<svg xmlns="http://www.w3.org/2000/svg" xmlns:xlink="http://www.w3.org/1999/xlink" width="768" zoomAndPan="magnify" viewBox="0 0 576 576" height="768" preserveAspectRatio="xMidYMid meet" version="1.0"><defs><clipPath id="7788b52e09"><path d="M 4.410156 30.011719 L 563.902344 30.011719 L 563.902344 547.46875 L 4.410156 547.46875 Z M 4.410156 30.011719 " clip-rule="nonzero"/></clipPath><clipPath id="edf7868ad6"><path d="M 51.234375 30.011719 L 559 30.011719 L 559 547.46875 L 51.234375 547.46875 Z M 51.234375 30.011719 " clip-rule="nonzero"/></clipPath><clipPath id="78a5d751bc"><path d="M 4.410156 24 L 549 24 L 549 530 L 4.410156 530 Z M 4.410156 24 " clip-rule="nonzero"/></clipPath><clipPath id="ba2c522870"><path d="M 45.234375 31.214844 L 563.902344 31.214844 L 563.902344 547.46875 L 45.234375 547.46875 Z M 45.234375 31.214844 " clip-rule="nonzero"/></clipPath><clipPath id="7ad940f129"><path d="M 109 162.082031 L 571.410156 162.082031 L 571.410156 531.875 L 109 531.875 Z M 109 162.082031 " clip-rule="nonzero"/></clipPath></defs><g clip-path="url(#7788b52e09)"><path fill="#f6836b" d="M 498.949219 434.632812 L 478.132812 403.335938 L 470.097656 403.335938 C 461.953125 414.203125 453.355469 424.679688 444.390625 434.632812 Z M 88.847656 82.589844 C 88.847656 83.070312 88.890625 83.542969 88.957031 84.003906 C 94.125 80.492188 99.480469 77.160156 104.996094 74.011719 C 103.339844 72.894531 101.347656 72.234375 99.199219 72.234375 C 93.492188 72.234375 88.847656 76.878906 88.847656 82.589844 Z M 563.65625 453.339844 L 539.519531 453.339844 L 550.449219 547.46875 L 532.917969 547.46875 L 521.984375 453.339844 L 460.175781 453.339844 L 449.246094 547.46875 L 431.710938 547.46875 L 442.644531 453.339844 L 426.464844 453.339844 C 379.714844 499.121094 324.992188 529.976562 271.355469 529.976562 C 247.378906 529.976562 223.628906 525.304688 200.75 516.890625 L 204.304688 547.46875 L 186.769531 547.46875 L 182.328125 509.222656 C 157.597656 497.726562 134.167969 481.925781 112.910156 463.03125 L 103.101562 547.46875 L 85.570312 547.46875 L 96.5 453.339844 L 73.691406 453.339844 L 73.691406 434.632812 L 84.617188 434.632812 C 36.074219 379.71875 4.410156 308.367188 4.410156 240.683594 C 4.410156 177.566406 31.945312 128.671875 75.03125 94.269531 C 74.285156 92.730469 73.6875 91.132812 73.25 89.476562 L 65.367188 87.742188 L 65.367188 77.441406 L 73.25 75.707031 C 73.863281 73.390625 74.78125 71.175781 75.980469 69.109375 L 71.632812 62.308594 L 78.921875 55.023438 L 85.722656 59.371094 C 87.789062 58.167969 90 57.25 92.316406 56.640625 L 94.050781 48.753906 L 104.355469 48.753906 L 106.085938 56.640625 C 108.402344 57.25 110.613281 58.167969 112.683594 59.371094 L 119.484375 55.023438 L 126.765625 62.308594 L 126.238281 63.136719 C 130.152344 61.347656 134.136719 59.632812 138.171875 58.003906 L 138.171875 48.753906 L 164.488281 48.753906 C 185.667969 42.355469 208.015625 37.964844 230.925781 35.601562 C 230.902344 35.40625 230.867188 35.214844 230.867188 35.007812 C 230.867188 32.617188 232.816406 30.667969 235.207031 30.667969 C 237.535156 30.667969 239.417969 32.507812 239.527344 34.804688 C 250.058594 33.957031 260.679688 33.53125 271.355469 33.53125 C 408.441406 33.53125 552.628906 54.246094 552.628906 191.335938 C 552.628906 254.609375 521.910156 331.613281 475.351562 396.199219 L 511.738281 396.199219 L 537.296875 434.632812 L 563.65625 434.632812 Z M 68.347656 39.351562 C 70.742188 39.351562 72.6875 37.402344 72.6875 35.007812 C 72.6875 32.617188 70.742188 30.667969 68.347656 30.667969 C 65.953125 30.667969 64.007812 32.617188 64.007812 35.007812 C 64.007812 37.402344 65.953125 39.351562 68.347656 39.351562 Z M 401.542969 35.007812 C 401.542969 32.617188 403.492188 30.667969 405.886719 30.667969 C 408.28125 30.667969 410.226562 32.617188 410.226562 35.007812 C 410.226562 37.402344 408.28125 39.351562 405.886719 39.351562 C 403.492188 39.351562 401.542969 37.402344 401.542969 35.007812 " fill-opacity="1" fill-rule="nonzero"/></g><g clip-path="url(#edf7868ad6)"><path fill="#16c5a9" d="M 393.992188 38.148438 C 395.726562 38.148438 397.132812 36.742188 397.132812 35.007812 C 397.132812 33.277344 395.726562 31.871094 393.992188 31.871094 C 392.253906 31.871094 390.847656 33.277344 390.847656 35.007812 C 390.847656 36.742188 392.253906 38.148438 393.992188 38.148438 Z M 465.046875 132.15625 L 479.671875 132.15625 L 479.671875 128.554688 L 465.046875 128.554688 Z M 459.375 83.546875 L 439.445312 71.644531 L 439.445312 95.457031 Z M 509.167969 116.425781 L 389.652344 116.425781 L 389.652344 53.996094 L 509.167969 53.996094 Z M 486.035156 124.546875 L 475.855469 124.546875 L 475.855469 128.148438 L 486.035156 128.148438 Z M 465.046875 124.546875 L 465.046875 128.148438 L 475.230469 128.148438 L 475.230469 124.546875 Z M 486.035156 120.546875 L 465.046875 120.546875 L 465.046875 124.148438 L 486.035156 124.148438 Z M 149.96875 132.355469 L 137.75 132.355469 L 137.75 133.558594 L 149.96875 133.558594 Z M 156.332031 129.550781 L 156.332031 128.351562 L 148.558594 128.351562 L 148.558594 129.550781 Z M 145.527344 128.351562 L 137.75 128.351562 L 137.75 129.550781 L 145.527344 129.550781 Z M 156.332031 124.351562 L 137.75 124.351562 L 137.75 125.550781 L 156.332031 125.550781 Z M 73.3125 132.355469 L 61.09375 132.355469 L 61.09375 133.558594 L 73.3125 133.558594 Z M 79.675781 129.550781 L 79.675781 128.351562 L 71.898438 128.351562 L 71.898438 129.550781 Z M 68.871094 128.351562 L 61.09375 128.351562 L 61.09375 129.550781 L 68.871094 129.550781 Z M 79.675781 124.351562 L 61.09375 124.351562 L 61.09375 125.550781 L 79.675781 125.550781 Z M 160.746094 95.078125 L 139.375 95.078125 L 139.375 102.558594 L 160.746094 102.558594 Z M 160.746094 62.445312 L 139.375 62.445312 L 139.375 69.917969 L 160.746094 69.917969 Z M 56.457031 38.148438 C 58.1875 38.148438 59.59375 36.742188 59.59375 35.007812 C 59.59375 33.277344 58.1875 31.871094 56.457031 31.871094 C 54.71875 31.871094 53.3125 33.277344 53.3125 35.007812 C 53.3125 36.742188 54.71875 38.148438 56.457031 38.148438 Z M 81.320312 82.589844 C 81.320312 92.449219 89.339844 100.46875 99.199219 100.46875 C 109.0625 100.46875 117.082031 92.449219 117.082031 82.589844 C 117.082031 72.734375 109.0625 64.707031 99.199219 64.707031 C 89.339844 64.707031 81.320312 72.734375 81.320312 82.589844 Z M 80.121094 82.589844 C 80.121094 72.066406 88.679688 63.507812 99.199219 63.507812 C 109.722656 63.507812 118.285156 72.066406 118.285156 82.589844 C 118.285156 93.109375 109.722656 101.671875 99.199219 101.671875 C 88.679688 101.671875 80.121094 93.109375 80.121094 82.589844 Z M 307.941406 190.304688 C 306.960938 190.304688 306.0625 191.101562 305.941406 192.082031 C 305.816406 193.0625 306.515625 193.855469 307.496094 193.855469 C 308.476562 193.855469 309.371094 193.0625 309.492188 192.082031 C 309.613281 191.101562 308.921875 190.304688 307.941406 190.304688 Z M 358.90625 190.878906 L 341.027344 190.878906 C 340.367188 190.878906 339.828125 191.417969 339.828125 192.078125 C 339.828125 192.746094 340.367188 193.277344 341.027344 193.277344 L 358.90625 193.277344 C 359.566406 193.277344 360.105469 192.746094 360.105469 192.078125 C 360.105469 191.417969 359.566406 190.878906 358.90625 190.878906 Z M 223.316406 39.351562 C 225.707031 39.351562 227.65625 37.402344 227.65625 35.007812 C 227.65625 32.617188 225.707031 30.667969 223.316406 30.667969 C 220.921875 30.667969 218.976562 32.617188 218.976562 35.007812 C 218.976562 37.402344 220.921875 39.351562 223.316406 39.351562 Z M 255.695312 120.109375 C 255.695312 122.007812 257.238281 123.550781 259.132812 123.550781 L 285.132812 123.550781 C 287.027344 123.550781 288.570312 122.007812 288.570312 120.109375 C 288.570312 118.214844 287.027344 116.679688 285.132812 116.679688 L 259.132812 116.679688 C 257.238281 116.679688 255.695312 118.214844 255.695312 120.109375 Z M 231.914062 102.65625 L 257.921875 102.65625 C 259.816406 102.65625 261.359375 101.117188 261.359375 99.21875 C 261.359375 97.324219 259.816406 95.785156 257.921875 95.785156 L 231.914062 95.785156 C 230.019531 95.785156 228.476562 97.324219 228.476562 99.21875 C 228.476562 101.117188 230.019531 102.65625 231.914062 102.65625 Z M 231.914062 81.761719 L 276.972656 81.761719 C 278.867188 81.761719 280.40625 80.21875 280.40625 78.324219 C 280.40625 76.429688 278.867188 74.890625 276.972656 74.890625 L 231.914062 74.890625 C 230.019531 74.890625 228.476562 76.429688 228.476562 78.324219 C 228.476562 80.21875 230.019531 81.761719 231.914062 81.761719 Z M 285.65625 102.65625 L 294.855469 102.65625 C 296.75 102.65625 298.289062 101.117188 298.289062 99.21875 C 298.289062 97.324219 296.75 95.785156 294.855469 95.785156 L 285.65625 95.785156 C 283.761719 95.785156 282.21875 97.324219 282.21875 99.21875 C 282.21875 101.117188 283.761719 102.65625 285.65625 102.65625 Z M 276.28125 102.65625 C 278.175781 102.65625 279.71875 101.117188 279.71875 99.21875 C 279.71875 97.324219 278.175781 95.785156 276.28125 95.785156 L 267.089844 95.785156 C 265.195312 95.785156 263.652344 97.324219 263.652344 99.21875 C 263.652344 101.117188 265.195312 102.65625 267.089844 102.65625 Z M 231.914062 71.316406 L 241.113281 71.316406 C 243.007812 71.316406 244.550781 69.773438 244.550781 67.878906 C 244.550781 65.984375 243.007812 64.441406 241.113281 64.441406 L 231.914062 64.441406 C 230.019531 64.441406 228.476562 65.984375 228.476562 67.878906 C 228.476562 69.773438 230.019531 71.316406 231.914062 71.316406 Z M 231.914062 60.867188 L 262.882812 60.867188 C 264.777344 60.867188 266.320312 59.328125 266.320312 57.433594 C 266.320312 55.539062 264.777344 53.996094 262.882812 53.996094 L 231.914062 53.996094 C 230.019531 53.996094 228.476562 55.539062 228.476562 57.433594 C 228.476562 59.328125 230.019531 60.867188 231.914062 60.867188 Z M 298.792969 514.882812 L 80.265625 514.882812 C 71.265625 514.882812 63.96875 522.175781 63.96875 531.175781 C 63.96875 540.175781 71.265625 547.46875 80.265625 547.46875 L 298.792969 547.46875 C 307.792969 547.46875 315.085938 540.175781 315.085938 531.175781 C 315.085938 522.175781 307.792969 514.882812 298.792969 514.882812 Z M 550.910156 174.476562 C 550.910156 173.816406 550.371094 173.277344 549.710938 173.277344 L 490.679688 173.277344 C 490.011719 173.277344 489.476562 173.816406 489.476562 174.476562 C 489.476562 175.144531 490.011719 175.675781 490.679688 175.675781 L 549.710938 175.675781 C 550.371094 175.675781 550.910156 175.144531 550.910156 174.476562 Z M 523.175781 193.277344 L 533.296875 193.277344 C 533.957031 193.277344 534.496094 192.746094 534.496094 192.078125 C 534.496094 191.417969 533.957031 190.878906 533.296875 190.878906 L 523.175781 190.878906 C 522.515625 190.878906 521.976562 191.417969 521.976562 192.078125 C 521.976562 192.746094 522.515625 193.277344 523.175781 193.277344 Z M 546.976562 199.925781 C 546.976562 199.261719 546.4375 198.722656 545.777344 198.722656 L 522.191406 198.722656 C 521.53125 198.722656 520.988281 199.261719 520.988281 199.925781 C 520.988281 200.585938 521.53125 201.125 522.191406 201.125 L 545.777344 201.125 C 546.4375 201.125 546.976562 200.585938 546.976562 199.925781 Z M 521.207031 208.972656 L 533.316406 208.972656 C 533.980469 208.972656 534.515625 208.433594 534.515625 207.769531 C 534.515625 207.105469 533.980469 206.570312 533.316406 206.570312 L 521.207031 206.570312 C 520.542969 206.570312 520.003906 207.105469 520.003906 207.769531 C 520.003906 208.433594 520.542969 208.972656 521.207031 208.972656 Z M 514.109375 259.023438 C 513.445312 259.023438 512.910156 259.558594 512.910156 260.222656 C 512.910156 260.882812 513.445312 261.425781 514.109375 261.425781 L 524.226562 261.425781 C 524.886719 261.425781 525.425781 260.882812 525.425781 260.222656 C 525.425781 259.558594 524.886719 259.023438 524.226562 259.023438 Z M 537.90625 268.066406 C 537.90625 267.402344 537.367188 266.863281 536.707031 266.863281 L 513.121094 266.863281 C 512.460938 266.863281 511.917969 267.402344 511.917969 268.066406 C 511.917969 268.730469 512.460938 269.265625 513.121094 269.265625 L 536.707031 269.265625 C 537.367188 269.265625 537.90625 268.730469 537.90625 268.066406 Z M 525.445312 275.910156 C 525.445312 275.246094 524.910156 274.710938 524.246094 274.710938 L 512.136719 274.710938 C 511.472656 274.710938 510.933594 275.246094 510.933594 275.910156 C 510.933594 276.574219 511.472656 277.113281 512.136719 277.113281 L 524.246094 277.113281 C 524.910156 277.113281 525.445312 276.574219 525.445312 275.910156 Z M 499.605469 200.828125 C 499.605469 200.167969 499.070312 199.628906 498.402344 199.628906 L 478.175781 199.628906 C 477.507812 199.628906 476.976562 200.167969 476.976562 200.828125 C 476.976562 201.496094 477.507812 202.03125 478.175781 202.03125 L 498.402344 202.03125 C 499.070312 202.03125 499.605469 201.496094 499.605469 200.828125 Z M 489.472656 216.523438 C 489.472656 215.855469 488.9375 215.320312 488.273438 215.320312 L 470.597656 215.320312 C 469.933594 215.320312 469.394531 215.855469 469.394531 216.523438 C 469.394531 217.183594 469.933594 217.722656 470.597656 217.722656 L 488.273438 217.722656 C 488.9375 217.722656 489.472656 217.183594 489.472656 216.523438 Z M 485.246094 315.058594 C 485.246094 314.398438 484.714844 313.859375 484.046875 313.859375 L 452.222656 313.859375 C 451.558594 313.859375 451.019531 314.398438 451.019531 315.058594 C 451.019531 315.71875 451.558594 316.257812 452.222656 316.257812 L 484.046875 316.257812 C 484.714844 316.257812 485.246094 315.71875 485.246094 315.058594 Z M 394.957031 183.332031 L 307.175781 183.332031 C 303.859375 183.332031 300.835938 186.019531 300.417969 189.335938 L 298.972656 200.828125 L 398.761719 200.828125 L 400.207031 189.335938 C 400.621094 186.019531 398.273438 183.332031 394.957031 183.332031 Z M 384.898438 273.589844 C 384.898438 272.921875 384.359375 272.390625 383.695312 272.390625 L 372.984375 272.390625 C 372.324219 272.390625 371.785156 272.921875 371.785156 273.589844 C 371.785156 274.25 372.324219 274.789062 372.984375 274.789062 L 383.695312 274.789062 C 384.359375 274.789062 384.898438 274.25 384.898438 273.589844 Z M 359.058594 279.355469 C 359.058594 278.6875 358.519531 278.152344 357.859375 278.152344 L 347.828125 278.152344 C 347.167969 278.152344 346.628906 278.6875 346.628906 279.355469 C 346.628906 280.015625 347.167969 280.554688 347.828125 280.554688 L 357.859375 280.554688 C 358.519531 280.554688 359.058594 280.015625 359.058594 279.355469 Z M 338.296875 273.589844 C 338.296875 272.921875 337.757812 272.390625 337.097656 272.390625 L 326.386719 272.390625 C 325.71875 272.390625 325.183594 272.921875 325.183594 273.589844 C 325.183594 274.25 325.71875 274.789062 326.386719 274.789062 L 337.097656 274.789062 C 337.757812 274.789062 338.296875 274.25 338.296875 273.589844 Z M 309.125 319.988281 L 299.980469 319.988281 C 298.71875 319.988281 297.570312 321.007812 297.410156 322.269531 C 297.257812 323.527344 298.148438 324.550781 299.410156 324.550781 L 308.554688 324.550781 C 309.8125 324.550781 310.964844 323.527344 311.125 322.269531 C 311.277344 321.007812 310.386719 319.988281 309.125 319.988281 Z M 299.738281 304.355469 C 300.71875 304.355469 301.609375 303.558594 301.734375 302.578125 C 301.855469 301.597656 301.164062 300.800781 300.183594 300.800781 C 299.203125 300.800781 298.308594 301.597656 298.183594 302.578125 C 298.058594 303.558594 298.757812 304.355469 299.738281 304.355469 Z M 298.6875 279.355469 C 298.6875 280.015625 299.222656 280.554688 299.886719 280.554688 L 307.253906 280.554688 C 307.917969 280.554688 308.457031 280.015625 308.457031 279.355469 C 308.457031 278.6875 307.917969 278.152344 307.253906 278.152344 L 299.886719 278.152344 C 299.222656 278.152344 298.6875 278.6875 298.6875 279.355469 Z M 345.824219 216.523438 C 345.824219 215.855469 345.289062 215.320312 344.625 215.320312 L 321.949219 215.320312 C 321.289062 215.320312 320.75 215.855469 320.75 216.523438 C 320.75 217.183594 321.289062 217.722656 321.949219 217.722656 L 344.625 217.722656 C 345.289062 217.722656 345.824219 217.183594 345.824219 216.523438 Z M 422.652344 346.433594 C 422.652344 347.101562 423.1875 347.632812 423.851562 347.632812 L 469.761719 347.632812 C 470.429688 347.632812 470.960938 347.101562 470.960938 346.433594 C 470.960938 345.773438 470.429688 345.234375 469.761719 345.234375 L 423.851562 345.234375 C 423.1875 345.234375 422.652344 345.773438 422.652344 346.433594 Z M 433.0625 263.585938 C 433.0625 264.246094 433.601562 264.785156 434.261719 264.785156 L 446.375 264.785156 C 447.035156 264.785156 447.574219 264.246094 447.574219 263.585938 C 447.574219 262.921875 447.035156 262.386719 446.375 262.386719 L 434.261719 262.386719 C 433.601562 262.386719 433.0625 262.921875 433.0625 263.585938 Z M 437.007812 232.210938 C 437.007812 232.871094 437.546875 233.410156 438.207031 233.410156 L 452.796875 233.410156 C 453.464844 233.410156 454 232.871094 454 232.210938 C 454 231.542969 453.464844 231.007812 452.796875 231.007812 L 438.207031 231.007812 C 437.546875 231.007812 437.007812 231.542969 437.007812 232.210938 Z M 439.960938 208.675781 C 439.960938 209.335938 440.5 209.875 441.164062 209.875 L 451.277344 209.875 C 451.945312 209.875 452.480469 209.335938 452.480469 208.675781 C 452.480469 208.015625 451.945312 207.476562 451.277344 207.476562 L 441.164062 207.476562 C 440.5 207.476562 439.960938 208.015625 439.960938 208.675781 Z M 480.164062 232.210938 C 480.164062 231.542969 479.625 231.007812 478.964844 231.007812 L 458.046875 231.007812 C 457.386719 231.007812 456.847656 231.542969 456.847656 232.210938 C 456.847656 232.871094 457.386719 233.410156 458.046875 233.410156 L 478.964844 233.410156 C 479.625 233.410156 480.164062 232.871094 480.164062 232.210938 Z M 483.34375 256.941406 C 484.011719 256.941406 484.542969 256.40625 484.542969 255.738281 C 484.542969 255.078125 484.011719 254.539062 483.34375 254.539062 L 465.667969 254.539062 C 465.007812 254.539062 464.46875 255.078125 464.46875 255.738281 C 464.46875 256.40625 465.007812 256.941406 465.667969 256.941406 Z M 558.570312 178.480469 L 539.976562 346.21875 C 539.425781 351.171875 535.246094 354.910156 530.261719 354.910156 L 269.851562 354.910156 C 267.035156 354.910156 264.449219 353.753906 262.574219 351.660156 C 262.199219 351.242188 261.878906 350.796875 261.589844 350.335938 C 258.882812 369.550781 245.925781 391.230469 245.925781 408.140625 C 245.925781 426.707031 260.078125 453.339844 260.078125 453.339844 C 260.078125 453.339844 255.054688 494.917969 204.066406 494.917969 C 185.636719 494.917969 172.625 491.6875 165.933594 489.5 C 162.457031 488.367188 159.898438 485.445312 159.113281 481.875 C 153.1875 454.96875 157.207031 416.769531 161.382812 403.335938 C 164.210938 394.257812 160.886719 347.75 149.984375 314.597656 C 144.414062 297.6875 157.011719 280.28125 174.816406 280.28125 L 179.03125 266.863281 C 179.03125 266.863281 192.441406 260.382812 206.609375 263.261719 C 220.777344 266.148438 227.546875 270.039062 232.824219 270.78125 L 229.402344 280.355469 C 235.246094 280.867188 240.46875 284.347656 243.144531 289.652344 C 248.90625 301.105469 258.078125 320.78125 261.082031 335.5625 L 278.734375 176.328125 C 279.285156 171.371094 283.457031 167.632812 288.449219 167.632812 L 548.859375 167.632812 C 551.671875 167.632812 554.261719 168.792969 556.136719 170.890625 C 558.015625 172.984375 558.878906 175.683594 558.570312 178.480469 Z M 314.660156 190.304688 C 313.683594 190.304688 312.789062 191.101562 312.664062 192.082031 C 312.539062 193.0625 313.234375 193.855469 314.214844 193.855469 C 315.195312 193.855469 316.089844 193.0625 316.214844 192.082031 C 316.339844 191.101562 315.644531 190.304688 314.660156 190.304688 Z M 321.386719 190.304688 C 320.40625 190.304688 319.511719 191.101562 319.386719 192.082031 C 319.265625 193.0625 319.960938 193.855469 320.941406 193.855469 C 321.921875 193.855469 322.816406 193.0625 322.9375 192.082031 C 323.058594 191.101562 322.367188 190.304688 321.386719 190.304688 Z M 137.371094 184.824219 L 123.078125 184.824219 L 123.078125 215.996094 L 137.371094 215.996094 Z M 87.21875 215.996094 L 101.511719 215.996094 L 101.511719 189.140625 L 87.21875 189.140625 Z M 65.652344 215.996094 L 51.359375 215.996094 L 51.359375 198.507812 L 65.652344 198.507812 L 65.652344 215.996094 " fill-opacity="1" fill-rule="nonzero"/></g><g clip-path="url(#78a5d751bc)"><path fill="#f3d0d2" d="M 99.199219 94.148438 C 105.582031 94.148438 110.757812 88.972656 110.757812 82.589844 C 110.757812 76.207031 105.582031 71.035156 99.199219 71.035156 C 92.820312 71.035156 87.648438 76.207031 87.648438 82.589844 C 87.648438 88.972656 92.820312 94.148438 99.199219 94.148438 Z M 65.207031 35.007812 C 65.207031 36.742188 66.613281 38.148438 68.347656 38.148438 C 70.085938 38.148438 71.488281 36.742188 71.488281 35.007812 C 71.488281 33.277344 70.085938 31.871094 68.347656 31.871094 C 66.613281 31.871094 65.207031 33.277344 65.207031 35.007812 Z M 73.164062 62.476562 L 77.394531 69.089844 C 75.953125 71.410156 74.878906 73.980469 74.234375 76.71875 L 66.566406 78.402344 L 66.566406 86.773438 L 74.234375 88.464844 C 74.878906 91.203125 75.953125 93.773438 77.394531 96.09375 L 73.164062 102.707031 L 79.085938 108.625 L 85.703125 104.398438 C 88.023438 105.839844 90.589844 106.914062 93.328125 107.554688 L 95.015625 115.222656 L 103.386719 115.222656 L 105.078125 107.554688 C 107.8125 106.914062 110.378906 105.839844 112.703125 104.398438 L 119.320312 108.625 L 125.238281 102.707031 L 121.007812 96.09375 C 122.449219 93.773438 123.527344 91.203125 124.167969 88.464844 L 131.835938 86.773438 L 131.835938 78.402344 L 124.167969 76.71875 C 123.527344 73.980469 122.449219 71.410156 121.007812 69.089844 L 125.238281 62.476562 L 119.320312 56.554688 L 112.703125 60.785156 C 110.378906 59.34375 107.8125 58.265625 105.078125 57.628906 L 103.386719 49.953125 L 95.015625 49.953125 L 93.328125 57.628906 C 90.589844 58.265625 88.023438 59.34375 85.703125 60.785156 L 79.085938 56.554688 Z M 139.375 90.066406 L 172.03125 90.066406 L 172.03125 82.589844 L 139.375 82.589844 Z M 139.375 57.433594 L 172.03125 57.433594 L 172.03125 49.953125 L 139.375 49.953125 Z M 105.226562 124.351562 L 86.644531 124.351562 L 86.644531 125.550781 L 105.226562 125.550781 Z M 105.226562 128.351562 L 97.449219 128.351562 L 97.449219 129.550781 L 105.226562 129.550781 Z M 94.421875 129.550781 L 94.421875 128.351562 L 86.644531 128.351562 L 86.644531 129.550781 Z M 98.867188 132.355469 L 86.644531 132.355469 L 86.644531 133.558594 L 98.867188 133.558594 Z M 186.410156 117.277344 L 208.128906 117.277344 L 208.128906 84.148438 L 186.410156 84.148438 Z M 186.410156 82.949219 L 208.128906 82.949219 L 208.128906 49.824219 L 186.410156 49.824219 Z M 220.175781 120.109375 C 220.175781 121.347656 221.175781 122.347656 222.410156 122.347656 L 222.621094 122.347656 C 223.859375 122.347656 224.859375 121.347656 224.859375 120.109375 C 224.859375 118.878906 223.859375 117.878906 222.621094 117.878906 L 222.410156 117.878906 C 221.175781 117.878906 220.175781 118.878906 220.175781 120.109375 Z M 220.175781 109.667969 C 220.175781 110.898438 221.175781 111.902344 222.410156 111.902344 L 222.621094 111.902344 C 223.859375 111.902344 224.859375 110.898438 224.859375 109.667969 C 224.859375 108.433594 223.859375 107.429688 222.621094 107.429688 L 222.410156 107.429688 C 221.175781 107.429688 220.175781 108.433594 220.175781 109.667969 Z M 220.175781 99.222656 C 220.175781 100.457031 221.175781 101.453125 222.410156 101.453125 L 222.621094 101.453125 C 223.859375 101.453125 224.859375 100.457031 224.859375 99.222656 C 224.859375 97.984375 223.859375 96.984375 222.621094 96.984375 L 222.410156 96.984375 C 221.175781 96.984375 220.175781 97.984375 220.175781 99.222656 Z M 220.175781 88.773438 C 220.175781 90.007812 221.175781 91.011719 222.410156 91.011719 L 222.621094 91.011719 C 223.859375 91.011719 224.859375 90.007812 224.859375 88.773438 C 224.859375 87.539062 223.859375 86.535156 222.621094 86.535156 L 222.410156 86.535156 C 221.175781 86.535156 220.175781 87.539062 220.175781 88.773438 Z M 220.175781 78.324219 C 220.175781 79.5625 221.175781 80.5625 222.410156 80.5625 L 222.621094 80.5625 C 223.859375 80.5625 224.859375 79.5625 224.859375 78.324219 C 224.859375 77.089844 223.859375 76.089844 222.621094 76.089844 L 222.410156 76.089844 C 221.175781 76.089844 220.175781 77.089844 220.175781 78.324219 Z M 220.175781 67.878906 C 220.175781 69.113281 221.175781 70.117188 222.410156 70.117188 L 222.621094 70.117188 C 223.859375 70.117188 224.859375 69.113281 224.859375 67.878906 C 224.859375 66.644531 223.859375 65.640625 222.621094 65.640625 L 222.410156 65.640625 C 221.175781 65.640625 220.175781 66.644531 220.175781 67.878906 Z M 220.175781 57.433594 C 220.175781 58.667969 221.175781 59.667969 222.410156 59.667969 L 222.621094 59.667969 C 223.859375 59.667969 224.859375 58.667969 224.859375 57.433594 C 224.859375 56.195312 223.859375 55.199219 222.621094 55.199219 L 222.410156 55.199219 C 221.175781 55.199219 220.175781 56.195312 220.175781 57.433594 Z M 220.175781 46.984375 C 220.175781 48.21875 221.175781 49.222656 222.410156 49.222656 L 222.621094 49.222656 C 223.859375 49.222656 224.859375 48.21875 224.859375 46.984375 C 224.859375 45.753906 223.859375 44.75 222.621094 44.75 L 222.410156 44.75 C 221.175781 44.75 220.175781 45.753906 220.175781 46.984375 Z M 220.175781 35.007812 C 220.175781 36.742188 221.578125 38.148438 223.316406 38.148438 C 225.050781 38.148438 226.457031 36.742188 226.457031 35.007812 C 226.457031 33.277344 225.050781 31.871094 223.316406 31.871094 C 221.578125 31.871094 220.175781 33.277344 220.175781 35.007812 Z M 229.679688 120.109375 C 229.679688 121.347656 230.683594 122.347656 231.914062 122.347656 L 250.878906 122.347656 C 252.109375 122.347656 253.113281 121.347656 253.113281 120.109375 C 253.113281 118.878906 252.109375 117.878906 250.878906 117.878906 L 231.914062 117.878906 C 230.683594 117.878906 229.679688 118.878906 229.679688 120.109375 Z M 229.679688 109.667969 C 229.679688 110.898438 230.683594 111.902344 231.914062 111.902344 L 272.488281 111.902344 C 273.722656 111.902344 274.726562 110.898438 274.726562 109.667969 C 274.726562 108.433594 273.722656 107.429688 272.488281 107.429688 L 231.914062 107.429688 C 230.683594 107.429688 229.679688 108.433594 229.679688 109.667969 Z M 229.679688 99.222656 C 229.679688 100.457031 230.683594 101.453125 231.914062 101.453125 L 257.921875 101.453125 C 259.15625 101.453125 260.160156 100.457031 260.160156 99.222656 C 260.160156 97.984375 259.15625 96.984375 257.921875 96.984375 L 231.914062 96.984375 C 230.683594 96.984375 229.679688 97.984375 229.679688 99.222656 Z M 229.679688 88.773438 C 229.679688 90.007812 230.683594 91.011719 231.914062 91.011719 L 266.246094 91.011719 C 267.480469 91.011719 268.480469 90.007812 268.480469 88.773438 C 268.480469 87.539062 267.480469 86.535156 266.246094 86.535156 L 231.914062 86.535156 C 230.683594 86.535156 229.679688 87.539062 229.679688 88.773438 Z M 229.679688 78.324219 C 229.679688 79.5625 230.683594 80.5625 231.914062 80.5625 L 276.972656 80.5625 C 278.207031 80.5625 279.203125 79.5625 279.203125 78.324219 C 279.203125 77.089844 278.207031 76.089844 276.972656 76.089844 L 231.914062 76.089844 C 230.683594 76.089844 229.679688 77.089844 229.679688 78.324219 Z M 229.679688 67.878906 C 229.679688 69.113281 230.683594 70.117188 231.914062 70.117188 L 241.113281 70.117188 C 242.347656 70.117188 243.351562 69.113281 243.351562 67.878906 C 243.351562 66.644531 242.347656 65.640625 241.113281 65.640625 L 231.914062 65.640625 C 230.683594 65.640625 229.679688 66.644531 229.679688 67.878906 Z M 229.679688 57.433594 C 229.679688 58.667969 230.683594 59.667969 231.914062 59.667969 L 262.882812 59.667969 C 264.117188 59.667969 265.121094 58.667969 265.121094 57.433594 C 265.121094 56.195312 264.117188 55.199219 262.882812 55.199219 L 231.914062 55.199219 C 230.683594 55.199219 229.679688 56.195312 229.679688 57.433594 Z M 229.679688 46.984375 C 229.679688 48.21875 230.683594 49.222656 231.914062 49.222656 L 246.136719 49.222656 C 247.371094 49.222656 248.367188 48.21875 248.367188 46.984375 C 248.367188 45.753906 247.371094 44.75 246.136719 44.75 L 231.914062 44.75 C 230.683594 44.75 229.679688 45.753906 229.679688 46.984375 Z M 232.066406 35.007812 C 232.066406 36.742188 233.472656 38.148438 235.207031 38.148438 C 236.945312 38.148438 238.351562 36.742188 238.351562 35.007812 C 238.351562 33.277344 236.945312 31.871094 235.207031 31.871094 C 233.472656 31.871094 232.066406 33.277344 232.066406 35.007812 Z M 297.25 65.640625 L 252.195312 65.640625 C 250.960938 65.640625 249.960938 66.644531 249.960938 67.878906 C 249.960938 69.113281 250.960938 70.117188 252.195312 70.117188 L 297.25 70.117188 C 298.484375 70.117188 299.488281 69.113281 299.488281 67.878906 C 299.488281 66.644531 298.484375 65.640625 297.25 65.640625 Z M 298.207031 78.324219 C 298.207031 77.089844 297.210938 76.089844 295.976562 76.089844 L 286.777344 76.089844 C 285.546875 76.089844 284.542969 77.089844 284.542969 78.324219 C 284.542969 79.5625 285.546875 80.5625 286.777344 80.5625 L 295.976562 80.5625 C 297.210938 80.5625 298.207031 79.5625 298.207031 78.324219 Z M 297.085938 99.222656 C 297.085938 97.984375 296.089844 96.984375 294.855469 96.984375 L 285.65625 96.984375 C 284.425781 96.984375 283.421875 97.984375 283.421875 99.222656 C 283.421875 100.457031 284.425781 101.453125 285.65625 101.453125 L 294.855469 101.453125 C 296.089844 101.453125 297.085938 100.457031 297.085938 99.222656 Z M 278.519531 99.222656 C 278.519531 97.984375 277.519531 96.984375 276.28125 96.984375 L 267.085938 96.984375 C 265.851562 96.984375 264.851562 97.984375 264.851562 99.222656 C 264.851562 100.457031 265.851562 101.453125 267.085938 101.453125 L 276.28125 101.453125 C 277.519531 101.453125 278.519531 100.457031 278.519531 99.222656 Z M 287.371094 120.109375 C 287.371094 118.878906 286.371094 117.878906 285.132812 117.878906 L 259.132812 117.878906 C 257.894531 117.878906 256.894531 118.878906 256.894531 120.109375 C 256.894531 121.347656 257.894531 122.347656 259.132812 122.347656 L 285.132812 122.347656 C 286.371094 122.347656 287.371094 121.347656 287.371094 120.109375 Z M 348.910156 117.277344 L 377.335938 117.277344 L 377.335938 84.148438 L 348.910156 84.148438 Z M 348.910156 82.949219 L 377.335938 82.949219 L 377.335938 49.824219 L 348.910156 49.824219 Z M 390.847656 115.222656 L 507.964844 115.222656 L 507.964844 55.199219 L 390.847656 55.199219 Z M 402.742188 35.007812 C 402.742188 36.742188 404.148438 38.148438 405.886719 38.148438 C 407.621094 38.148438 409.027344 36.742188 409.027344 35.007812 C 409.027344 33.277344 407.621094 31.871094 405.886719 31.871094 C 404.148438 31.871094 402.742188 33.277344 402.742188 35.007812 Z M 484.835938 121.746094 L 466.25 121.746094 L 466.25 122.949219 L 484.835938 122.949219 Z M 484.835938 125.75 L 477.054688 125.75 L 477.054688 126.949219 L 484.835938 126.949219 Z M 474.03125 126.949219 L 474.03125 125.75 L 466.25 125.75 L 466.25 126.949219 Z M 478.472656 129.753906 L 466.25 129.753906 L 466.25 130.953125 L 478.472656 130.953125 Z M 446.414062 121.746094 L 427.828125 121.746094 L 427.828125 122.949219 L 446.414062 122.949219 Z M 446.414062 125.75 L 438.632812 125.75 L 438.632812 126.949219 L 446.414062 126.949219 Z M 435.609375 126.949219 L 435.609375 125.75 L 427.828125 125.75 L 427.828125 126.949219 Z M 440.050781 129.753906 L 427.828125 129.753906 L 427.828125 130.953125 L 440.050781 130.953125 Z M 45.625 141.519531 L 45.625 30.011719 C 45.625 26.695312 48.3125 24.007812 51.628906 24.007812 L 180.40625 24.007812 C 183.722656 24.007812 186.410156 26.695312 186.410156 30.011719 L 186.410156 48.621094 L 208.128906 48.621094 L 208.128906 30.011719 C 208.128906 26.695312 210.816406 24.007812 214.132812 24.007812 L 342.90625 24.007812 C 346.222656 24.007812 348.910156 26.695312 348.910156 30.011719 L 348.910156 48.621094 L 377.335938 48.621094 L 377.335938 30.011719 C 377.335938 26.695312 380.023438 24.007812 383.339844 24.007812 L 512.113281 24.007812 C 515.433594 24.007812 518.113281 26.695312 518.113281 30.011719 L 518.113281 117.277344 L 533.628906 117.277344 C 533.875 117.671875 534.097656 118.082031 534.332031 118.480469 L 518.113281 118.480469 L 518.113281 141.519531 C 518.113281 144.835938 515.433594 147.523438 512.113281 147.523438 L 383.339844 147.523438 C 380.023438 147.523438 377.335938 144.835938 377.335938 141.519531 L 377.335938 118.480469 L 348.910156 118.480469 L 348.910156 129.03125 C 348.910156 132.347656 346.222656 135.035156 342.90625 135.035156 L 214.132812 135.035156 C 210.816406 135.035156 208.128906 132.347656 208.128906 129.03125 L 208.128906 118.480469 L 186.410156 118.480469 L 186.410156 141.519531 C 186.410156 144.835938 183.722656 147.523438 180.40625 147.523438 L 51.628906 147.523438 C 48.3125 147.523438 45.625 144.835938 45.625 141.519531 Z M 458.980469 173.277344 C 458.320312 173.277344 457.777344 173.816406 457.777344 174.476562 C 457.777344 175.144531 458.320312 175.675781 458.980469 175.675781 L 483.230469 175.675781 C 483.898438 175.675781 484.433594 175.144531 484.433594 174.476562 C 484.433594 173.816406 483.898438 173.277344 483.230469 173.277344 Z M 485.246094 315.058594 C 485.246094 314.398438 484.714844 313.859375 484.046875 313.859375 L 452.222656 313.859375 C 451.558594 313.859375 451.019531 314.398438 451.019531 315.058594 C 451.019531 315.71875 451.558594 316.257812 452.222656 316.257812 L 484.046875 316.257812 C 484.714844 316.257812 485.246094 315.71875 485.246094 315.058594 Z M 471.949219 338.59375 C 471.949219 337.925781 471.414062 337.390625 470.746094 337.390625 L 424.835938 337.390625 C 424.175781 337.390625 423.636719 337.925781 423.636719 338.59375 C 423.636719 339.253906 424.175781 339.792969 424.835938 339.792969 L 470.746094 339.792969 C 471.414062 339.792969 471.949219 339.253906 471.949219 338.59375 Z M 470.960938 346.433594 C 470.960938 345.773438 470.429688 345.234375 469.761719 345.234375 L 423.851562 345.234375 C 423.1875 345.234375 422.652344 345.773438 422.652344 346.433594 C 422.652344 347.101562 423.1875 347.632812 423.851562 347.632812 L 469.761719 347.632812 C 470.429688 347.632812 470.960938 347.101562 470.960938 346.433594 Z M 425.605469 322.898438 C 425.605469 323.566406 426.144531 324.101562 426.804688 324.101562 L 463.910156 324.101562 C 464.570312 324.101562 465.109375 323.566406 465.109375 322.898438 C 465.109375 322.238281 464.570312 321.699219 463.910156 321.699219 L 426.804688 321.699219 C 426.144531 321.699219 425.605469 322.238281 425.605469 322.898438 Z M 426.59375 315.058594 C 426.59375 315.71875 427.128906 316.257812 427.796875 316.257812 L 443.710938 316.257812 C 444.371094 316.257812 444.910156 315.71875 444.910156 315.058594 C 444.910156 314.398438 444.371094 313.859375 443.710938 313.859375 L 427.796875 313.859375 C 427.128906 313.859375 426.59375 314.398438 426.59375 315.058594 Z M 427.582031 307.214844 C 427.582031 307.878906 428.113281 308.417969 428.78125 308.417969 L 474.691406 308.417969 C 475.355469 308.417969 475.890625 307.878906 475.890625 307.214844 C 475.890625 306.550781 475.355469 306.015625 474.691406 306.015625 L 428.78125 306.015625 C 428.113281 306.015625 427.582031 306.550781 427.582031 307.214844 Z M 418.746094 307.214844 C 418.746094 306.550781 418.207031 306.015625 417.542969 306.015625 L 409.539062 306.015625 C 408.878906 306.015625 408.335938 306.550781 408.335938 307.214844 C 408.335938 307.878906 408.878906 308.417969 409.539062 308.417969 L 417.542969 308.417969 C 418.207031 308.417969 418.746094 307.878906 418.746094 307.214844 Z M 417.753906 315.058594 C 417.753906 314.398438 417.21875 313.859375 416.554688 313.859375 L 408.554688 313.859375 C 407.886719 313.859375 407.351562 314.398438 407.351562 315.058594 C 407.351562 315.71875 407.886719 316.257812 408.554688 316.257812 L 416.554688 316.257812 C 417.21875 316.257812 417.753906 315.71875 417.753906 315.058594 Z M 416.769531 322.898438 C 416.769531 322.238281 416.234375 321.699219 415.570312 321.699219 L 407.5625 321.699219 C 406.902344 321.699219 406.363281 322.238281 406.363281 322.898438 C 406.363281 323.566406 406.902344 324.101562 407.5625 324.101562 L 415.570312 324.101562 C 416.234375 324.101562 416.769531 323.566406 416.769531 322.898438 Z M 414.800781 338.59375 C 414.800781 337.925781 414.261719 337.390625 413.601562 337.390625 L 405.59375 337.390625 C 404.933594 337.390625 404.394531 337.925781 404.394531 338.59375 C 404.394531 339.253906 404.933594 339.792969 405.59375 339.792969 L 413.601562 339.792969 C 414.261719 339.792969 414.800781 339.253906 414.800781 338.59375 Z M 413.816406 346.433594 C 413.816406 345.773438 413.277344 345.234375 412.613281 345.234375 L 404.609375 345.234375 C 403.941406 345.234375 403.410156 345.773438 403.410156 346.433594 C 403.410156 347.101562 403.941406 347.632812 404.609375 347.632812 L 412.613281 347.632812 C 413.277344 347.632812 413.816406 347.101562 413.816406 346.433594 Z M 501.128906 302.390625 L 494.523438 354.910156 L 480.113281 354.910156 C 480.234375 354.726562 480.320312 354.515625 480.320312 354.28125 C 480.320312 353.613281 479.785156 353.078125 479.117188 353.078125 L 447.292969 353.078125 C 446.632812 353.078125 446.089844 353.613281 446.089844 354.28125 C 446.089844 354.515625 446.175781 354.726562 446.296875 354.910156 L 439.773438 354.910156 C 439.890625 354.726562 439.980469 354.515625 439.980469 354.28125 C 439.980469 353.613281 439.441406 353.078125 438.78125 353.078125 L 422.863281 353.078125 C 422.199219 353.078125 421.660156 353.613281 421.660156 354.28125 C 421.660156 354.515625 421.75 354.726562 421.867188 354.910156 L 412.621094 354.910156 C 412.742188 354.726562 412.824219 354.515625 412.824219 354.28125 C 412.824219 353.613281 412.292969 353.078125 411.625 353.078125 L 403.625 353.078125 C 402.957031 353.078125 402.421875 353.613281 402.421875 354.28125 C 402.421875 354.515625 402.507812 354.726562 402.628906 354.910156 L 394.738281 354.910156 L 401.339844 302.390625 C 401.757812 299.074219 404.78125 296.386719 408.097656 296.386719 L 495.878906 296.386719 C 499.191406 296.386719 501.546875 299.074219 501.128906 302.390625 Z M 330.691406 319.988281 L 321.546875 319.988281 C 320.285156 319.988281 319.136719 321.007812 318.980469 322.269531 C 318.820312 323.527344 319.710938 324.550781 320.972656 324.550781 L 330.117188 324.550781 C 331.378906 324.550781 332.53125 323.527344 332.6875 322.269531 C 332.84375 321.007812 331.953125 319.988281 330.691406 319.988281 Z M 309.125 319.988281 L 299.980469 319.988281 C 298.71875 319.988281 297.570312 321.007812 297.410156 322.269531 C 297.257812 323.527344 298.148438 324.550781 299.410156 324.550781 L 308.554688 324.550781 C 309.8125 324.550781 310.964844 323.527344 311.125 322.269531 C 311.277344 321.007812 310.386719 319.988281 309.125 319.988281 Z M 293.457031 300.800781 C 292.476562 300.800781 291.582031 301.597656 291.460938 302.578125 C 291.335938 303.558594 292.03125 304.355469 293.011719 304.355469 C 293.992188 304.355469 294.886719 303.558594 295.011719 302.578125 C 295.136719 301.597656 294.4375 300.800781 293.457031 300.800781 Z M 299.738281 304.355469 C 300.71875 304.355469 301.609375 303.558594 301.734375 302.578125 C 301.855469 301.597656 301.164062 300.800781 300.183594 300.800781 C 299.203125 300.800781 298.308594 301.597656 298.183594 302.578125 C 298.058594 303.558594 298.757812 304.355469 299.738281 304.355469 Z M 306.457031 304.355469 C 307.4375 304.355469 308.332031 303.558594 308.457031 302.578125 C 308.582031 301.597656 307.886719 300.800781 306.902344 300.800781 C 305.921875 300.800781 305.03125 301.597656 304.90625 302.578125 C 304.785156 303.558594 305.476562 304.355469 306.457031 304.355469 Z M 325.15625 311.820312 L 307.265625 311.820312 C 306.601562 311.820312 306.0625 312.363281 306.0625 313.023438 C 306.0625 313.6875 306.601562 314.222656 307.265625 314.222656 L 325.15625 314.222656 C 325.824219 314.222656 326.355469 313.6875 326.355469 313.023438 C 326.355469 312.363281 325.824219 311.820312 325.15625 311.820312 Z M 343.332031 296.375 C 346.644531 296.375 349 299.066406 348.582031 302.375 L 346.066406 322.386719 C 345.652344 325.703125 342.621094 328.390625 339.3125 328.390625 L 288.328125 328.390625 C 285.011719 328.390625 282.660156 325.703125 283.078125 322.386719 L 285.59375 302.375 C 286.011719 299.066406 289.035156 296.375 292.351562 296.375 Z M 316.214844 192.082031 C 316.339844 191.101562 315.644531 190.304688 314.660156 190.304688 C 313.683594 190.304688 312.789062 191.101562 312.664062 192.082031 C 312.539062 193.0625 313.234375 193.855469 314.214844 193.855469 C 315.195312 193.855469 316.089844 193.0625 316.214844 192.082031 Z M 379.597656 279.355469 C 379.597656 278.6875 379.058594 278.152344 378.398438 278.152344 L 372.261719 278.152344 C 371.597656 278.152344 371.0625 278.6875 371.0625 279.355469 C 371.0625 280.015625 371.597656 280.554688 372.261719 280.554688 L 378.398438 280.554688 C 379.058594 280.554688 379.597656 280.015625 379.597656 279.355469 Z M 370.800781 217.722656 C 371.460938 217.722656 372 217.183594 372 216.523438 C 372 215.855469 371.460938 215.320312 370.800781 215.320312 L 352.925781 215.320312 C 352.265625 215.320312 351.726562 215.855469 351.726562 216.523438 C 351.726562 217.183594 352.265625 217.722656 352.925781 217.722656 Z M 367.320312 227.03125 L 323.828125 227.03125 C 322.0625 227.03125 320.449219 228.46875 320.226562 230.234375 L 318.910156 240.695312 C 318.6875 242.457031 319.941406 243.894531 321.710938 243.894531 L 365.199219 243.894531 C 366.96875 243.894531 368.582031 242.457031 368.800781 240.695312 L 370.113281 230.234375 C 370.339844 228.46875 369.082031 227.03125 367.320312 227.03125 Z M 348.554688 274.789062 L 354.6875 274.789062 C 355.351562 274.789062 355.890625 274.25 355.890625 273.589844 C 355.890625 272.921875 355.351562 272.390625 354.6875 272.390625 L 348.554688 272.390625 C 347.890625 272.390625 347.355469 272.921875 347.355469 273.589844 C 347.355469 274.25 347.890625 274.789062 348.554688 274.789062 Z M 359.058594 279.355469 C 359.058594 278.6875 358.519531 278.152344 357.859375 278.152344 L 347.828125 278.152344 C 347.167969 278.152344 346.628906 278.6875 346.628906 279.355469 C 346.628906 280.015625 347.167969 280.554688 347.828125 280.554688 L 357.859375 280.554688 C 358.519531 280.554688 359.058594 280.015625 359.058594 279.355469 Z M 338.296875 273.589844 C 338.296875 272.921875 337.757812 272.390625 337.097656 272.390625 L 326.386719 272.390625 C 325.71875 272.390625 325.183594 272.921875 325.183594 273.589844 C 325.183594 274.25 325.71875 274.789062 326.386719 274.789062 L 337.097656 274.789062 C 337.757812 274.789062 338.296875 274.25 338.296875 273.589844 Z M 333 279.355469 C 333 278.6875 332.460938 278.152344 331.796875 278.152344 L 325.660156 278.152344 C 324.996094 278.152344 324.457031 278.6875 324.457031 279.355469 C 324.457031 280.015625 324.996094 280.554688 325.660156 280.554688 L 331.796875 280.554688 C 332.460938 280.554688 333 280.015625 333 279.355469 Z M 314.078125 273.589844 C 314.078125 272.921875 313.542969 272.390625 312.878906 272.390625 L 300.609375 272.390625 C 299.949219 272.390625 299.410156 272.921875 299.410156 273.589844 C 299.410156 274.25 299.949219 274.789062 300.609375 274.789062 L 312.878906 274.789062 C 313.542969 274.789062 314.078125 274.25 314.078125 273.589844 Z M 308.457031 279.355469 C 308.457031 278.6875 307.917969 278.152344 307.253906 278.152344 L 299.886719 278.152344 C 299.222656 278.152344 298.6875 278.6875 298.6875 279.355469 C 298.6875 280.015625 299.222656 280.554688 299.886719 280.554688 L 307.253906 280.554688 C 307.917969 280.554688 308.457031 280.015625 308.457031 279.355469 Z M 320.75 216.523438 C 320.75 217.183594 321.289062 217.722656 321.949219 217.722656 L 344.625 217.722656 C 345.289062 217.722656 345.824219 217.183594 345.824219 216.523438 C 345.824219 215.855469 345.289062 215.320312 344.625 215.320312 L 321.949219 215.320312 C 321.289062 215.320312 320.75 215.855469 320.75 216.523438 Z M 371.785156 273.589844 C 371.785156 274.25 372.324219 274.789062 372.984375 274.789062 L 383.695312 274.789062 C 384.359375 274.789062 384.898438 274.25 384.898438 273.589844 C 384.898438 272.921875 384.359375 272.390625 383.695312 272.390625 L 372.984375 272.390625 C 372.324219 272.390625 371.785156 272.921875 371.785156 273.589844 Z M 381.851562 287.597656 L 294.070312 287.597656 C 290.757812 287.597656 288.40625 284.910156 288.824219 281.59375 L 298.972656 200.828125 L 398.761719 200.828125 L 400.207031 189.335938 L 388.605469 281.59375 C 388.195312 284.910156 385.167969 287.597656 381.851562 287.597656 Z M 516.273438 346.402344 L 504.15625 346.402344 C 503.496094 346.402344 502.957031 346.941406 502.957031 347.601562 C 502.957031 348.261719 503.496094 348.800781 504.15625 348.800781 L 516.273438 348.800781 C 516.933594 348.800781 517.472656 348.261719 517.472656 347.601562 C 517.472656 346.941406 516.933594 346.402344 516.273438 346.402344 Z M 522.191406 338.554688 L 505.148438 338.554688 C 504.480469 338.554688 503.945312 339.09375 503.945312 339.753906 C 503.945312 340.421875 504.480469 340.957031 505.148438 340.957031 L 522.191406 340.957031 C 522.855469 340.957031 523.390625 340.421875 523.390625 339.753906 C 523.390625 339.09375 522.855469 338.554688 522.191406 338.554688 Z M 506.132812 333.113281 L 516.25 333.113281 C 516.910156 333.113281 517.449219 332.574219 517.449219 331.914062 C 517.449219 331.253906 516.910156 330.714844 516.25 330.714844 L 506.132812 330.714844 C 505.464844 330.714844 504.933594 331.253906 504.933594 331.914062 C 504.933594 332.574219 505.464844 333.113281 506.132812 333.113281 Z M 528.0625 242.105469 L 515.953125 242.105469 C 515.289062 242.105469 514.753906 242.644531 514.753906 243.304688 C 514.753906 243.972656 515.289062 244.507812 515.953125 244.507812 L 528.0625 244.507812 C 528.722656 244.507812 529.261719 243.972656 529.261719 243.304688 C 529.261719 242.644531 528.722656 242.105469 528.0625 242.105469 Z M 533.980469 234.265625 L 516.9375 234.265625 C 516.273438 234.265625 515.738281 234.800781 515.738281 235.464844 C 515.738281 236.125 516.273438 236.664062 516.9375 236.664062 L 533.980469 236.664062 C 534.648438 236.664062 535.183594 236.125 535.183594 235.464844 C 535.183594 234.800781 534.648438 234.265625 533.980469 234.265625 Z M 517.921875 226.417969 C 517.261719 226.417969 516.722656 226.957031 516.722656 227.617188 C 516.722656 228.285156 517.261719 228.820312 517.921875 228.820312 L 528.039062 228.820312 C 528.703125 228.820312 529.238281 228.285156 529.238281 227.617188 C 529.238281 226.957031 528.703125 226.417969 528.039062 226.417969 Z M 499.605469 200.828125 C 499.605469 200.167969 499.070312 199.628906 498.402344 199.628906 L 478.175781 199.628906 C 477.507812 199.628906 476.976562 200.167969 476.976562 200.828125 C 476.976562 201.496094 477.507812 202.03125 478.175781 202.03125 L 498.402344 202.03125 C 499.070312 202.03125 499.605469 201.496094 499.605469 200.828125 Z M 489.472656 216.523438 C 489.472656 215.855469 488.9375 215.320312 488.273438 215.320312 L 470.597656 215.320312 C 469.933594 215.320312 469.394531 215.855469 469.394531 216.523438 C 469.394531 217.183594 469.933594 217.722656 470.597656 217.722656 L 488.273438 217.722656 C 488.9375 217.722656 489.472656 217.183594 489.472656 216.523438 Z M 484.542969 255.738281 C 484.542969 255.078125 484.011719 254.539062 483.34375 254.539062 L 465.667969 254.539062 C 465.007812 254.539062 464.46875 255.078125 464.46875 255.738281 C 464.46875 256.40625 465.007812 256.941406 465.667969 256.941406 L 483.34375 256.941406 C 484.011719 256.941406 484.542969 256.40625 484.542969 255.738281 Z M 475.769531 263.585938 C 475.769531 262.921875 475.234375 262.386719 474.570312 262.386719 L 453.210938 262.386719 C 452.546875 262.386719 452.011719 262.921875 452.011719 263.585938 C 452.011719 264.246094 452.546875 264.785156 453.210938 264.785156 L 474.570312 264.785156 C 475.234375 264.785156 475.769531 264.246094 475.769531 263.585938 Z M 463.664062 271.425781 C 463.664062 270.765625 463.125 270.226562 462.464844 270.226562 L 433.277344 270.226562 C 432.613281 270.226562 432.078125 270.765625 432.078125 271.425781 C 432.078125 272.09375 432.613281 272.628906 433.277344 272.628906 L 462.464844 272.628906 C 463.125 272.628906 463.664062 272.09375 463.664062 271.425781 Z M 432.109375 200.828125 C 432.109375 200.167969 431.578125 199.628906 430.910156 199.628906 L 422.910156 199.628906 C 422.246094 199.628906 421.707031 200.167969 421.707031 200.828125 C 421.707031 201.496094 422.246094 202.03125 422.910156 202.03125 L 430.910156 202.03125 C 431.578125 202.03125 432.109375 201.496094 432.109375 200.828125 Z M 431.125 208.675781 C 431.125 208.015625 430.589844 207.476562 429.925781 207.476562 L 421.925781 207.476562 C 421.257812 207.476562 420.722656 208.015625 420.722656 208.675781 C 420.722656 209.335938 421.257812 209.875 421.925781 209.875 L 429.925781 209.875 C 430.589844 209.875 431.125 209.335938 431.125 208.675781 Z M 430.140625 216.523438 C 430.140625 215.855469 429.605469 215.320312 428.941406 215.320312 L 420.941406 215.320312 C 420.273438 215.320312 419.738281 215.855469 419.738281 216.523438 C 419.738281 217.183594 420.273438 217.722656 420.941406 217.722656 L 428.941406 217.722656 C 429.605469 217.722656 430.140625 217.183594 430.140625 216.523438 Z M 429.15625 224.363281 C 429.15625 223.703125 428.617188 223.164062 427.957031 223.164062 L 419.949219 223.164062 C 419.289062 223.164062 418.75 223.703125 418.75 224.363281 C 418.75 225.023438 419.289062 225.566406 419.949219 225.566406 L 427.957031 225.566406 C 428.617188 225.566406 429.15625 225.023438 429.15625 224.363281 Z M 428.171875 232.210938 C 428.171875 231.542969 427.632812 231.007812 426.972656 231.007812 L 418.964844 231.007812 C 418.304688 231.007812 417.765625 231.542969 417.765625 232.210938 C 417.765625 232.871094 418.304688 233.410156 418.964844 233.410156 L 426.972656 233.410156 C 427.632812 233.410156 428.171875 232.871094 428.171875 232.210938 Z M 426.195312 247.898438 C 426.195312 247.230469 425.664062 246.699219 424.996094 246.699219 L 416.996094 246.699219 C 416.328125 246.699219 415.792969 247.230469 415.792969 247.898438 C 415.792969 248.558594 416.328125 249.097656 416.996094 249.097656 L 424.996094 249.097656 C 425.664062 249.097656 426.195312 248.558594 426.195312 247.898438 Z M 425.210938 255.738281 C 425.210938 255.078125 424.671875 254.539062 424.011719 254.539062 L 416.003906 254.539062 C 415.34375 254.539062 414.804688 255.078125 414.804688 255.738281 C 414.804688 256.40625 415.34375 256.941406 416.003906 256.941406 L 424.011719 256.941406 C 424.671875 256.941406 425.210938 256.40625 425.210938 255.738281 Z M 424.226562 263.585938 C 424.226562 262.921875 423.6875 262.386719 423.027344 262.386719 L 415.019531 262.386719 C 414.359375 262.386719 413.820312 262.921875 413.820312 263.585938 C 413.820312 264.246094 414.359375 264.785156 415.019531 264.785156 L 423.027344 264.785156 C 423.6875 264.785156 424.226562 264.246094 424.226562 263.585938 Z M 423.242188 271.425781 C 423.242188 270.765625 422.703125 270.226562 422.042969 270.226562 L 414.035156 270.226562 C 413.375 270.226562 412.835938 270.765625 412.835938 271.425781 C 412.835938 272.09375 413.375 272.628906 414.035156 272.628906 L 422.042969 272.628906 C 422.703125 272.628906 423.242188 272.09375 423.242188 271.425781 Z M 433.0625 263.585938 C 433.0625 264.246094 433.601562 264.785156 434.261719 264.785156 L 446.375 264.785156 C 447.035156 264.785156 447.574219 264.246094 447.574219 263.585938 C 447.574219 262.921875 447.035156 262.386719 446.375 262.386719 L 434.261719 262.386719 C 433.601562 262.386719 433.0625 262.921875 433.0625 263.585938 Z M 434.046875 255.738281 C 434.046875 256.40625 434.585938 256.941406 435.25 256.941406 L 458.835938 256.941406 C 459.496094 256.941406 460.035156 256.40625 460.035156 255.738281 C 460.035156 255.078125 459.496094 254.539062 458.835938 254.539062 L 435.25 254.539062 C 434.585938 254.539062 434.046875 255.078125 434.046875 255.738281 Z M 435.03125 247.898438 C 435.03125 248.558594 435.570312 249.097656 436.234375 249.097656 L 446.351562 249.097656 C 447.015625 249.097656 447.550781 248.558594 447.550781 247.898438 C 447.550781 247.230469 447.015625 246.699219 446.351562 246.699219 L 436.234375 246.699219 C 435.570312 246.699219 435.03125 247.230469 435.03125 247.898438 Z M 437.007812 232.210938 C 437.007812 232.871094 437.546875 233.410156 438.207031 233.410156 L 452.796875 233.410156 C 453.464844 233.410156 454 232.871094 454 232.210938 C 454 231.542969 453.464844 231.007812 452.796875 231.007812 L 438.207031 231.007812 C 437.546875 231.007812 437.007812 231.542969 437.007812 232.210938 Z M 437.992188 224.363281 C 437.992188 225.023438 438.53125 225.566406 439.191406 225.566406 L 451.300781 225.566406 C 451.96875 225.566406 452.503906 225.023438 452.503906 224.363281 C 452.503906 223.703125 451.96875 223.164062 451.300781 223.164062 L 439.191406 223.164062 C 438.53125 223.164062 437.992188 223.703125 437.992188 224.363281 Z M 438.976562 216.523438 C 438.976562 217.183594 439.515625 217.722656 440.175781 217.722656 L 463.761719 217.722656 C 464.425781 217.722656 464.964844 217.183594 464.964844 216.523438 C 464.964844 215.855469 464.425781 215.320312 463.761719 215.320312 L 440.175781 215.320312 C 439.515625 215.320312 438.976562 215.855469 438.976562 216.523438 Z M 439.960938 208.675781 C 439.960938 209.335938 440.5 209.875 441.164062 209.875 L 451.277344 209.875 C 451.945312 209.875 452.480469 209.335938 452.480469 208.675781 C 452.480469 208.015625 451.945312 207.476562 451.277344 207.476562 L 441.164062 207.476562 C 440.5 207.476562 439.960938 208.015625 439.960938 208.675781 Z M 440.953125 200.828125 C 440.953125 201.496094 441.484375 202.03125 442.152344 202.03125 L 471.335938 202.03125 C 472 202.03125 472.539062 201.496094 472.539062 200.828125 C 472.539062 200.167969 472 199.628906 471.335938 199.628906 L 442.152344 199.628906 C 441.484375 199.628906 440.953125 200.167969 440.953125 200.828125 Z M 476.921875 209.875 C 477.589844 209.875 478.125 209.335938 478.125 208.675781 C 478.125 208.015625 477.589844 207.476562 476.921875 207.476562 L 456.691406 207.476562 C 456.03125 207.476562 455.492188 208.015625 455.492188 208.675781 C 455.492188 209.335938 456.03125 209.875 456.691406 209.875 Z M 467.359375 224.363281 C 467.359375 223.703125 466.820312 223.164062 466.160156 223.164062 L 458.140625 223.164062 C 457.472656 223.164062 456.941406 223.703125 456.941406 224.363281 C 456.941406 225.023438 457.472656 225.566406 458.140625 225.566406 L 466.160156 225.566406 C 466.820312 225.566406 467.359375 225.023438 467.359375 224.363281 Z M 471.996094 246.699219 L 451.761719 246.699219 C 451.101562 246.699219 450.5625 247.230469 450.5625 247.898438 C 450.5625 248.558594 451.101562 249.097656 451.761719 249.097656 L 471.996094 249.097656 C 472.660156 249.097656 473.195312 248.558594 473.195312 247.898438 C 473.195312 247.230469 472.660156 246.699219 471.996094 246.699219 Z M 478.964844 233.410156 C 479.625 233.410156 480.164062 232.871094 480.164062 232.210938 C 480.164062 231.542969 479.625 231.007812 478.964844 231.007812 L 458.046875 231.007812 C 457.386719 231.007812 456.847656 231.542969 456.847656 232.210938 C 456.847656 232.871094 457.386719 233.410156 458.046875 233.410156 Z M 503.742188 281.59375 C 503.324219 284.910156 500.296875 287.597656 496.980469 287.597656 L 409.199219 287.597656 C 405.886719 287.597656 403.535156 284.910156 403.953125 281.59375 L 415.550781 189.335938 C 415.964844 186.019531 418.992188 183.332031 422.304688 183.332031 L 510.085938 183.332031 C 513.402344 183.332031 515.75 186.019531 515.339844 189.335938 Z M 189.925781 220.261719 L 188.8125 211.050781 C 187.730469 202.105469 190.367188 193.652344 195.429688 187.128906 L 146.25 187.128906 L 146.25 220.125 C 146.25 220.171875 146.234375 220.214844 146.234375 220.261719 Z M 136.171875 186.023438 L 124.277344 186.023438 L 124.277344 214.796875 L 136.171875 214.796875 Z M 118.242188 187.128906 L 118.242188 182.421875 L 106.347656 182.421875 L 106.347656 214.796875 L 118.242188 214.796875 Z M 100.3125 190.34375 L 88.417969 190.34375 L 88.417969 214.796875 L 100.3125 214.796875 Z M 82.382812 204.796875 L 70.488281 204.796875 L 70.488281 214.796875 L 82.382812 214.796875 Z M 64.453125 199.707031 L 52.558594 199.707031 L 52.558594 214.796875 L 64.453125 214.796875 Z M 185.984375 255.785156 L 4.945312 255.785156 C 4.917969 255.386719 4.886719 254.984375 4.863281 254.585938 L 186.320312 254.585938 L 189.613281 242.988281 C 191.027344 237.988281 191.4375 232.761719 190.8125 227.605469 L 190.070312 221.460938 L 146.085938 221.460938 C 145.476562 224.128906 143.097656 226.128906 140.246094 226.128906 L 51.628906 226.128906 C 48.773438 226.128906 46.394531 224.128906 45.785156 221.460938 L 5.296875 221.460938 C 5.335938 221.058594 5.382812 220.660156 5.425781 220.261719 L 45.640625 220.261719 C 45.640625 220.214844 45.625 220.171875 45.625 220.125 L 45.625 187.128906 L 11.695312 187.128906 C 11.808594 186.726562 11.933594 186.332031 12.050781 185.929688 L 45.625 185.929688 L 45.625 173.636719 C 45.625 170.320312 48.3125 167.632812 51.628906 167.632812 L 140.246094 167.632812 C 143.558594 167.632812 146.25 170.320312 146.25 173.636719 L 146.25 185.929688 L 196.410156 185.929688 C 202.363281 178.960938 211.214844 174.476562 221.226562 174.476562 C 231.109375 174.476562 240.042969 178.890625 246.0625 185.929688 L 277.671875 185.929688 L 277.539062 187.128906 L 247.042969 187.128906 C 250.667969 191.804688 253.0625 197.507812 253.707031 203.78125 L 254.035156 206.953125 L 260.871094 220.261719 L 273.867188 220.261719 L 273.730469 221.460938 L 261.3125 221.460938 C 261.339844 222.21875 260.867188 222.957031 260.074219 223.1875 L 257.390625 223.976562 C 256.609375 224.199219 256.097656 224.941406 256.160156 225.753906 C 256.570312 231.09375 257.773438 250.144531 254.035156 252.15625 C 249.679688 254.5 228.898438 250.300781 228.898438 250.300781 C 228.507812 251.714844 228.183594 253.144531 227.910156 254.585938 L 270.058594 254.585938 L 269.929688 255.785156 L 227.703125 255.785156 C 226.96875 260.242188 226.785156 264.769531 227.167969 269.261719 C 222.511719 267.671875 216.289062 265.230469 206.609375 263.261719 C 197.332031 261.378906 188.386719 263.507812 183.3125 265.199219 Z M 158.757812 352.464844 C 157.28125 343.136719 155.332031 333.511719 152.898438 324.441406 L 152.90625 324.441406 C 152.863281 324.285156 152.820312 324.128906 152.777344 323.972656 C 151.90625 320.765625 150.976562 317.625 149.984375 314.597656 C 146.65625 304.488281 149.820312 294.210938 156.703125 287.570312 C 156.371094 287.71875 156.03125 287.851562 155.703125 288.015625 C 155.140625 288.296875 154.605469 288.601562 154.078125 288.910156 L 9.519531 288.910156 C 9.601562 289.316406 9.683594 289.714844 9.765625 290.113281 L 152.230469 290.113281 C 141.84375 297.566406 138.496094 311.835938 144.917969 323.242188 L 18.96875 323.242188 C 19.105469 323.640625 19.230469 324.042969 19.371094 324.441406 L 145.589844 324.441406 Z M 271.355469 529.976562 C 276.253906 529.976562 281.164062 529.707031 286.082031 529.207031 L 254.671875 529.207031 C 260.214844 529.699219 265.777344 529.976562 271.355469 529.976562 Z M 204.066406 494.917969 C 202.902344 494.917969 201.769531 494.902344 200.652344 494.878906 L 155.652344 494.878906 C 156.3125 495.285156 156.980469 495.675781 157.640625 496.082031 L 373.539062 496.082031 C 374.15625 495.683594 374.773438 495.277344 375.386719 494.878906 L 205.53125 494.878906 C 205.039062 494.882812 204.570312 494.917969 204.066406 494.917969 Z M 156.402344 460.550781 L 110.136719 460.550781 C 110.578125 460.953125 111.019531 461.351562 111.460938 461.75 L 156.472656 461.75 C 156.449219 461.351562 156.425781 460.953125 156.402344 460.550781 Z M 257.828125 461.75 L 417.605469 461.75 C 418.035156 461.351562 418.46875 460.953125 418.898438 460.550781 L 258.253906 460.550781 C 258.117188 460.945312 257.976562 461.335938 257.828125 461.75 Z M 157.351562 426.222656 L 77.402344 426.222656 C 77.738281 426.628906 78.082031 427.019531 78.417969 427.425781 L 157.230469 427.425781 C 157.265625 427.019531 157.308594 426.621094 157.351562 426.222656 Z M 162.335938 391.894531 L 52.371094 391.894531 C 52.628906 392.296875 52.886719 392.695312 53.144531 393.09375 L 162.335938 393.09375 C 162.335938 392.703125 162.335938 392.304688 162.335938 391.894531 Z M 347.335938 409.113281 C 350.148438 409.570312 352.917969 410.007812 355.59375 410.414062 L 355.289062 409.941406 L 348.164062 408.429688 Z M 410.097656 426.222656 L 428.167969 426.222656 L 422.449219 422.238281 L 412.226562 424.574219 Z M 271.457031 357.566406 L 500.453125 357.566406 C 500.21875 357.964844 499.988281 358.371094 499.753906 358.769531 L 272.066406 358.769531 C 279.671875 373.503906 286.648438 385.753906 290.855469 391.894531 L 478.414062 391.894531 C 478.132812 392.296875 477.851562 392.695312 477.570312 393.09375 L 291.699219 393.09375 C 292.792969 394.613281 293.648438 395.609375 294.207031 395.976562 C 298.667969 398.953125 309.695312 401.933594 322.574219 404.609375 L 343.003906 396.898438 C 345.089844 396.113281 347.425781 396.382812 349.277344 397.621094 L 359.371094 404.363281 L 363.582031 411.605469 C 371.460938 412.746094 377.9375 413.597656 381.542969 414.058594 L 392.730469 413.636719 L 416.71875 405.347656 C 418.871094 404.609375 421.253906 404.945312 423.109375 406.269531 L 433.222656 413.445312 L 440.175781 426.222656 L 451.769531 426.222656 C 451.429688 426.621094 451.085938 427.027344 450.742188 427.425781 L 440.828125 427.425781 L 441.0625 427.855469 C 441.507812 428.675781 441.171875 429.703125 440.324219 430.09375 C 438.628906 429.976562 436.691406 429.132812 435.117188 427.953125 L 435.523438 430.71875 C 435.710938 431.976562 434.679688 433.09375 433.410156 433 C 431.425781 432.859375 429.792969 431.386719 429.453125 429.425781 L 429.101562 427.425781 L 408.542969 427.425781 L 403.628906 431.226562 C 401.3125 433.015625 398.617188 434.210938 395.769531 434.730469 C 393.917969 435.070312 392.007812 435.011719 390.140625 434.757812 L 378.796875 433.191406 L 294.34375 432.59375 C 284.148438 432.167969 276.640625 430.230469 270.925781 427.425781 L 249.386719 427.425781 C 249.324219 427.230469 249.269531 427.039062 249.210938 426.84375 L 249.207031 426.84375 C 249.160156 426.683594 249.113281 426.523438 249.066406 426.359375 C 249.054688 426.316406 249.039062 426.269531 249.023438 426.222656 L 249.03125 426.222656 C 247.222656 420.097656 245.925781 413.75 245.925781 408.140625 C 245.925781 404.945312 246.398438 401.578125 247.167969 398.089844 C 247.363281 398.125 247.566406 398.164062 247.769531 398.203125 L 235.101562 373.75 C 234.433594 373.890625 233.753906 373.964844 233.058594 373.964844 C 226.757812 373.964844 220.539062 368.054688 215.867188 358.769531 L 33.75 358.769531 C 33.558594 358.371094 33.359375 357.972656 33.160156 357.566406 L 215.28125 357.566406 C 211.851562 350.335938 209.332031 341.242188 208.367188 331.351562 C 207.59375 323.421875 207.917969 316 209.113281 309.640625 C 209.019531 301.324219 211.261719 294.066406 217.460938 291.175781 C 217.957031 290.941406 218.460938 290.757812 218.957031 290.566406 C 220.730469 289.378906 222.664062 288.738281 224.734375 288.738281 C 225.578125 288.738281 226.417969 288.855469 227.253906 289.058594 C 235.570312 289.246094 242.964844 294.554688 246.46875 303.367188 C 253.476562 320.992188 262.828125 340.796875 271.449219 357.566406 Z M 262.316406 324.441406 L 262.449219 323.242188 L 257.644531 323.242188 C 257.78125 323.640625 257.917969 324.042969 258.046875 324.441406 Z M 266.253906 288.910156 L 242.742188 288.910156 C 242.875 289.160156 243.015625 289.402344 243.144531 289.652344 C 243.21875 289.804688 243.296875 289.960938 243.375 290.113281 L 266.125 290.113281 Z M 547.941406 151.605469 L 26.242188 151.605469 C 26.027344 152.003906 25.816406 152.40625 25.605469 152.804688 L 548.234375 152.804688 C 548.136719 152.40625 548.042969 152.003906 547.941406 151.605469 " fill-opacity="1" fill-rule="nonzero"/></g><g clip-path="url(#ba2c522870)"><path fill="#393a3f" d="M 417.253906 395.597656 L 383.433594 395.703125 L 366.527344 395.757812 L 349.621094 395.925781 L 349.621094 396.472656 L 366.527344 396.636719 L 383.433594 396.691406 L 417.253906 396.792969 L 451.066406 396.667969 L 467.980469 396.601562 L 484.886719 396.429688 L 484.886719 395.96875 L 467.980469 395.796875 L 451.066406 395.726562 Z M 403.070312 129.753906 L 390.851562 129.753906 L 390.851562 130.953125 L 403.070312 130.953125 Z M 409.433594 126.949219 L 409.433594 125.75 L 401.660156 125.75 L 401.660156 126.949219 Z M 398.628906 125.75 L 390.851562 125.75 L 390.851562 126.949219 L 398.628906 126.949219 Z M 409.433594 121.746094 L 390.851562 121.746094 L 390.851562 122.949219 L 409.433594 122.949219 Z M 417.777344 38.148438 C 419.515625 38.148438 420.921875 36.742188 420.921875 35.007812 C 420.921875 33.277344 419.515625 31.871094 417.777344 31.871094 C 416.042969 31.871094 414.640625 33.277344 414.640625 35.007812 C 414.640625 36.742188 416.042969 38.148438 417.777344 38.148438 Z M 247.101562 38.148438 C 248.835938 38.148438 250.246094 36.742188 250.246094 35.007812 C 250.246094 33.277344 248.835938 31.871094 247.101562 31.871094 C 245.367188 31.871094 243.960938 33.277344 243.960938 35.007812 C 243.960938 36.742188 245.367188 38.148438 247.101562 38.148438 Z M 124.417969 132.355469 L 112.195312 132.355469 L 112.195312 133.558594 L 124.417969 133.558594 Z M 130.78125 129.550781 L 130.78125 128.351562 L 123 128.351562 L 123 129.550781 Z M 119.976562 128.351562 L 112.195312 128.351562 L 112.195312 129.550781 L 119.976562 129.550781 Z M 130.78125 124.351562 L 112.195312 124.351562 L 112.195312 125.550781 L 130.78125 125.550781 Z M 80.242188 38.148438 C 81.972656 38.148438 83.378906 36.742188 83.378906 35.007812 C 83.378906 33.277344 81.972656 31.871094 80.242188 31.871094 C 78.507812 31.871094 77.101562 33.277344 77.101562 35.007812 C 77.101562 36.742188 78.507812 38.148438 80.242188 38.148438 Z M 57.90625 220.558594 L 59.105469 220.558594 L 59.105469 219.28125 L 75.835938 219.28125 L 75.835938 220.558594 L 77.035156 220.558594 L 77.035156 219.28125 L 93.765625 219.28125 L 93.765625 220.558594 L 94.964844 220.558594 L 94.964844 219.28125 L 111.695312 219.28125 L 111.695312 220.558594 L 112.894531 220.558594 L 112.894531 219.28125 L 129.625 219.28125 L 129.625 220.558594 L 130.824219 220.558594 L 130.824219 219.28125 L 136.289062 219.28125 L 136.289062 218.078125 L 130.824219 218.078125 L 130.824219 216.800781 L 129.625 216.800781 L 129.625 218.078125 L 112.894531 218.078125 L 112.894531 216.800781 L 111.695312 216.800781 L 111.695312 218.078125 L 94.964844 218.078125 L 94.964844 216.800781 L 93.765625 216.800781 L 93.765625 218.078125 L 77.035156 218.078125 L 77.035156 216.800781 L 75.835938 216.800781 L 75.835938 218.078125 L 59.105469 218.078125 L 59.105469 216.800781 L 57.90625 216.800781 L 57.90625 218.078125 L 52.558594 218.078125 L 52.558594 219.28125 L 57.90625 219.28125 Z M 447.691406 174.476562 C 447.691406 173.816406 447.152344 173.277344 446.492188 173.277344 L 291.375 173.277344 C 290.710938 173.277344 290.175781 173.816406 290.175781 174.476562 C 290.175781 175.144531 290.710938 175.675781 291.375 175.675781 L 446.492188 175.675781 C 447.152344 175.675781 447.691406 175.144531 447.691406 174.476562 Z M 412.613281 345.234375 L 404.609375 345.234375 C 403.941406 345.234375 403.410156 345.773438 403.410156 346.433594 C 403.410156 347.101562 403.941406 347.632812 404.609375 347.632812 L 412.613281 347.632812 C 413.277344 347.632812 413.816406 347.101562 413.816406 346.433594 C 413.816406 345.773438 413.277344 345.234375 412.613281 345.234375 Z M 414.800781 338.59375 C 414.800781 337.925781 414.261719 337.390625 413.601562 337.390625 L 405.59375 337.390625 C 404.933594 337.390625 404.394531 337.925781 404.394531 338.59375 C 404.394531 339.253906 404.933594 339.792969 405.59375 339.792969 L 413.601562 339.792969 C 414.261719 339.792969 414.800781 339.253906 414.800781 338.59375 Z M 416.769531 322.898438 C 416.769531 322.238281 416.234375 321.699219 415.570312 321.699219 L 407.5625 321.699219 C 406.902344 321.699219 406.363281 322.238281 406.363281 322.898438 C 406.363281 323.566406 406.902344 324.101562 407.5625 324.101562 L 415.570312 324.101562 C 416.234375 324.101562 416.769531 323.566406 416.769531 322.898438 Z M 417.753906 315.058594 C 417.753906 314.398438 417.21875 313.859375 416.554688 313.859375 L 408.554688 313.859375 C 407.886719 313.859375 407.351562 314.398438 407.351562 315.058594 C 407.351562 315.71875 407.886719 316.257812 408.554688 316.257812 L 416.554688 316.257812 C 417.21875 316.257812 417.753906 315.71875 417.753906 315.058594 Z M 418.746094 307.214844 C 418.746094 306.550781 418.207031 306.015625 417.542969 306.015625 L 409.539062 306.015625 C 408.878906 306.015625 408.335938 306.550781 408.335938 307.214844 C 408.335938 307.878906 408.878906 308.417969 409.539062 308.417969 L 417.542969 308.417969 C 418.207031 308.417969 418.746094 307.878906 418.746094 307.214844 Z M 304.90625 302.578125 C 304.785156 303.558594 305.476562 304.355469 306.457031 304.355469 C 307.4375 304.355469 308.332031 303.558594 308.457031 302.578125 C 308.582031 301.597656 307.886719 300.800781 306.902344 300.800781 C 305.921875 300.800781 305.03125 301.597656 304.90625 302.578125 Z M 319.386719 192.082031 C 319.265625 193.0625 319.960938 193.855469 320.941406 193.855469 C 321.921875 193.855469 322.816406 193.0625 322.9375 192.082031 C 323.058594 191.101562 322.367188 190.304688 321.386719 190.304688 C 320.40625 190.304688 319.511719 191.101562 319.386719 192.082031 Z M 337.160156 234.265625 C 336.496094 234.265625 335.957031 234.800781 335.957031 235.464844 C 335.957031 236.125 336.496094 236.664062 337.160156 236.664062 L 351.871094 236.664062 C 352.53125 236.664062 353.070312 236.125 353.070312 235.464844 C 353.070312 234.800781 352.53125 234.265625 351.871094 234.265625 Z M 423.242188 271.425781 C 423.242188 270.765625 422.703125 270.226562 422.042969 270.226562 L 414.035156 270.226562 C 413.375 270.226562 412.835938 270.765625 412.835938 271.425781 C 412.835938 272.09375 413.375 272.628906 414.035156 272.628906 L 422.042969 272.628906 C 422.703125 272.628906 423.242188 272.09375 423.242188 271.425781 Z M 424.226562 263.585938 C 424.226562 262.921875 423.6875 262.386719 423.027344 262.386719 L 415.019531 262.386719 C 414.359375 262.386719 413.820312 262.921875 413.820312 263.585938 C 413.820312 264.246094 414.359375 264.785156 415.019531 264.785156 L 423.027344 264.785156 C 423.6875 264.785156 424.226562 264.246094 424.226562 263.585938 Z M 425.210938 255.738281 C 425.210938 255.078125 424.671875 254.539062 424.011719 254.539062 L 416.003906 254.539062 C 415.34375 254.539062 414.804688 255.078125 414.804688 255.738281 C 414.804688 256.40625 415.34375 256.941406 416.003906 256.941406 L 424.011719 256.941406 C 424.671875 256.941406 425.210938 256.40625 425.210938 255.738281 Z M 426.195312 247.898438 C 426.195312 247.230469 425.664062 246.699219 424.996094 246.699219 L 416.996094 246.699219 C 416.328125 246.699219 415.792969 247.230469 415.792969 247.898438 C 415.792969 248.558594 416.328125 249.097656 416.996094 249.097656 L 424.996094 249.097656 C 425.664062 249.097656 426.195312 248.558594 426.195312 247.898438 Z M 428.171875 232.210938 C 428.171875 231.542969 427.632812 231.007812 426.972656 231.007812 L 418.964844 231.007812 C 418.304688 231.007812 417.765625 231.542969 417.765625 232.210938 C 417.765625 232.871094 418.304688 233.410156 418.964844 233.410156 L 426.972656 233.410156 C 427.632812 233.410156 428.171875 232.871094 428.171875 232.210938 Z M 429.15625 224.363281 C 429.15625 223.703125 428.617188 223.164062 427.957031 223.164062 L 419.949219 223.164062 C 419.289062 223.164062 418.75 223.703125 418.75 224.363281 C 418.75 225.023438 419.289062 225.566406 419.949219 225.566406 L 427.957031 225.566406 C 428.617188 225.566406 429.15625 225.023438 429.15625 224.363281 Z M 430.140625 216.523438 C 430.140625 215.855469 429.605469 215.320312 428.941406 215.320312 L 420.941406 215.320312 C 420.273438 215.320312 419.738281 215.855469 419.738281 216.523438 C 419.738281 217.183594 420.273438 217.722656 420.941406 217.722656 L 428.941406 217.722656 C 429.605469 217.722656 430.140625 217.183594 430.140625 216.523438 Z M 431.125 208.675781 C 431.125 208.015625 430.589844 207.476562 429.925781 207.476562 L 421.925781 207.476562 C 421.257812 207.476562 420.722656 208.015625 420.722656 208.675781 C 420.722656 209.335938 421.257812 209.875 421.925781 209.875 L 429.925781 209.875 C 430.589844 209.875 431.125 209.335938 431.125 208.675781 Z M 432.109375 200.828125 C 432.109375 200.167969 431.578125 199.628906 430.910156 199.628906 L 422.910156 199.628906 C 422.246094 199.628906 421.707031 200.167969 421.707031 200.828125 C 421.707031 201.496094 422.246094 202.03125 422.910156 202.03125 L 430.910156 202.03125 C 431.578125 202.03125 432.109375 201.496094 432.109375 200.828125 Z M 248.152344 206.460938 L 253.800781 206.179688 C 254.074219 202.890625 255.027344 199.855469 256.585938 199.085938 C 254.925781 198.910156 253.3125 198.957031 252.082031 199.496094 C 252.003906 195.332031 250.355469 193.113281 249.324219 190.496094 C 249.304688 193.488281 250.121094 192.570312 249.808594 196.582031 C 249.632812 198.804688 250.085938 201.082031 249.5625 203.25 C 249.292969 204.398438 248.757812 205.445312 248.152344 206.460938 Z M 255.003906 206.121094 L 259.707031 205.886719 C 259.351562 202.292969 258.203125 200.097656 257.367188 200.097656 C 256.515625 200.097656 255.332031 202.390625 255.003906 206.121094 Z M 259.796875 207.082031 L 254.925781 207.324219 C 254.914062 207.605469 254.910156 207.894531 254.910156 208.1875 C 254.910156 213.125 256.363281 216.277344 257.367188 216.277344 C 258.367188 216.277344 259.824219 213.125 259.824219 208.1875 C 259.824219 207.808594 259.8125 207.441406 259.796875 207.082031 Z M 146.585938 255.339844 C 145.285156 246.757812 147.789062 237.667969 153.308594 230.972656 C 155.328125 228.515625 157.828125 226.183594 158.453125 223.066406 C 159.089844 219.847656 157.566406 216.648438 156.867188 213.445312 C 155.539062 207.328125 157.429688 200.605469 161.753906 196.078125 C 165.070312 192.609375 169.660156 190.402344 172.460938 186.503906 C 174.8125 183.234375 175.636719 179.152344 177.246094 175.464844 C 181.761719 165.128906 193.183594 158.25 204.429688 159.085938 C 207.554688 155.191406 213.605469 153.367188 218.519531 154.234375 C 223.4375 155.101562 227.808594 157.894531 231.628906 161.101562 C 243.660156 159.257812 258.78125 170.734375 262.980469 200.511719 C 261.851562 200.171875 260.277344 199.722656 258.617188 199.394531 C 260.1875 200.730469 261.027344 204.554688 261.027344 208.1875 C 261.027344 212.691406 259.742188 217.480469 257.367188 217.480469 C 254.992188 217.480469 253.710938 212.691406 253.710938 208.1875 C 253.710938 207.921875 253.714844 207.652344 253.722656 207.386719 L 251.003906 207.523438 C 251.523438 207.800781 251.914062 208.824219 251.914062 210.058594 C 251.914062 211.503906 251.378906 212.675781 250.722656 212.675781 C 250.0625 212.675781 249.53125 211.503906 249.53125 210.058594 C 249.53125 208.863281 249.898438 207.863281 250.394531 207.550781 L 247.382812 207.699219 C 246.671875 208.820312 245.949219 209.941406 245.460938 211.171875 C 243.234375 216.804688 246.390625 223.191406 245.503906 229.191406 C 244.945312 232.953125 242.839844 236.289062 241.699219 239.921875 C 240.085938 245.070312 241.222656 252.195312 243.589844 257.042969 L 226.929688 257.042969 C 225.890625 253.117188 224.546875 249.558594 224.398438 245.5 C 223.292969 249.746094 222.804688 253.613281 222.433594 257.992188 C 220.382812 252.457031 219.027344 247.074219 218.890625 241.175781 C 218.304688 245.894531 218.105469 250.617188 217.519531 255.339844 Z M 259.175781 417.375 C 261.015625 419.691406 263.039062 421.882812 265.253906 423.875 C 267.453125 425.871094 269.894531 427.644531 272.59375 429.003906 C 273.945312 429.65625 275.378906 430.183594 276.851562 430.550781 C 278.355469 430.882812 279.804688 431.039062 281.261719 431.246094 C 284.191406 431.617188 287.117188 431.984375 290.046875 432.246094 C 295.914062 432.804688 301.796875 433.167969 307.691406 433.277344 C 307.835938 433.277344 307.964844 433.164062 307.96875 433.019531 C 307.976562 432.871094 307.859375 432.742188 307.710938 432.734375 C 304.777344 432.570312 301.847656 432.332031 298.925781 432.0625 C 296 431.808594 293.078125 431.523438 290.160156 431.191406 C 287.242188 430.84375 284.324219 430.511719 281.417969 430.105469 C 279.96875 429.894531 278.492188 429.71875 277.128906 429.410156 C 275.75 429.050781 274.40625 428.550781 273.117188 427.925781 C 267.945312 425.367188 263.695312 421.175781 259.957031 416.730469 C 258.082031 414.496094 256.339844 412.136719 254.710938 409.707031 C 253.058594 407.285156 251.5 404.789062 250.109375 402.222656 L 250.105469 402.210938 C 250.042969 402.101562 249.910156 402.0625 249.796875 402.117188 C 249.6875 402.175781 249.640625 402.308594 249.695312 402.421875 C 252.320312 407.71875 255.476562 412.742188 259.175781 417.375 Z M 218.992188 344.800781 C 218.324219 344.402344 217.710938 343.9375 217.121094 343.4375 C 216.53125 342.925781 215.992188 342.347656 215.453125 341.742188 C 215.386719 341.671875 215.285156 341.644531 215.191406 341.683594 C 215.074219 341.730469 215.011719 341.867188 215.058594 341.984375 C 215.683594 343.558594 216.902344 344.90625 218.351562 345.820312 C 219.085938 346.273438 219.859375 346.644531 220.664062 346.898438 C 221.34375 347.113281 222.035156 347.257812 222.734375 347.347656 C 225.046875 352.613281 227.445312 357.84375 229.863281 363.0625 C 232.621094 368.871094 235.394531 374.667969 238.246094 380.425781 C 241.105469 386.1875 244.015625 391.914062 247.066406 397.578125 C 247.128906 397.710938 247.292969 397.761719 247.421875 397.695312 C 247.558594 397.628906 247.613281 397.464844 247.546875 397.328125 C 246.125 394.449219 244.742188 391.550781 243.363281 388.652344 L 239.203125 379.960938 L 230.945312 362.554688 C 228.1875 356.757812 225.496094 350.921875 222.835938 345.082031 C 221.503906 342.160156 220.207031 339.226562 218.945312 336.28125 C 217.695312 333.332031 216.410156 330.375 215.476562 327.328125 L 215.472656 327.3125 C 215.441406 327.195312 215.3125 327.128906 215.191406 327.164062 C 215.070312 327.195312 215 327.324219 215.035156 327.445312 C 216.8125 333.667969 219.390625 339.578125 221.90625 345.492188 C 222.054688 345.820312 222.203125 346.148438 222.347656 346.476562 C 221.914062 346.289062 221.472656 346.105469 221.054688 345.910156 C 220.339844 345.566406 219.640625 345.214844 218.992188 344.800781 Z M 250.503906 230.796875 C 250.957031 231.089844 251.46875 231.273438 251.988281 231.398438 C 252.515625 231.503906 253.042969 231.554688 253.570312 231.503906 C 253.832031 231.484375 254.085938 231.433594 254.34375 231.394531 C 254.597656 231.320312 254.84375 231.253906 255.085938 231.15625 C 255.160156 231.121094 255.214844 231.050781 255.230469 230.972656 C 255.25 230.839844 255.160156 230.71875 255.027344 230.699219 C 254.039062 230.546875 253.132812 230.441406 252.257812 230.230469 C 251.820312 230.128906 251.398438 229.992188 250.972656 229.847656 C 250.554688 229.699219 250.128906 229.5 249.734375 229.308594 L 249.679688 229.277344 C 249.601562 229.242188 249.507812 229.242188 249.421875 229.292969 C 249.292969 229.367188 249.25 229.535156 249.324219 229.664062 C 249.625 230.175781 250.042969 230.507812 250.503906 230.796875 Z M 498.925781 434.59375 L 478.132812 403.335938 L 478.132812 403.066406 L 463.097656 402.894531 L 448.0625 402.84375 L 417.984375 402.738281 L 387.910156 402.867188 L 372.871094 402.933594 L 357.832031 403.105469 L 357.832031 403.566406 L 358.183594 403.570312 L 359.371094 404.363281 L 363.351562 411.210938 L 356.339844 410.210938 C 356.382812 410.195312 356.429688 410.179688 356.472656 410.15625 C 356.742188 410.019531 356.972656 409.8125 357.179688 409.59375 C 357.371094 409.359375 357.546875 409.105469 357.648438 408.820312 C 357.75 408.535156 357.820312 408.234375 357.789062 407.914062 C 357.78125 407.859375 357.757812 407.796875 357.71875 407.75 C 357.609375 407.625 357.417969 407.609375 357.292969 407.71875 L 357.277344 407.726562 C 357.058594 407.914062 356.898438 408.101562 356.730469 408.28125 C 356.5625 408.453125 356.421875 408.636719 356.269531 408.816406 C 356.125 408.996094 355.96875 409.171875 355.828125 409.371094 C 355.679688 409.570312 355.523438 409.765625 355.375 410.015625 L 355.363281 410.023438 C 355.363281 410.035156 355.363281 410.039062 355.359375 410.046875 L 355.289062 409.941406 L 348.375 408.476562 C 348.417969 408.308594 348.464844 408.144531 348.5 407.980469 C 348.621094 407.402344 348.652344 406.816406 348.65625 406.230469 C 348.644531 405.640625 348.597656 405.054688 348.464844 404.480469 C 348.34375 403.910156 348.175781 403.339844 347.902344 402.816406 C 347.855469 402.726562 347.761719 402.667969 347.660156 402.667969 C 347.503906 402.660156 347.371094 402.789062 347.371094 402.941406 C 347.363281 403.515625 347.394531 404.0625 347.410156 404.613281 L 347.457031 406.25 L 347.492188 407.886719 C 347.496094 408.238281 347.503906 408.597656 347.507812 408.957031 L 344.0625 408.464844 C 332.066406 406.667969 320.058594 404.84375 308.167969 402.496094 C 305.207031 401.90625 302.226562 401.304688 299.363281 400.460938 C 298.660156 400.242188 297.9375 400.007812 297.335938 399.699219 C 297.011719 399.519531 296.957031 399.480469 296.71875 399.097656 L 296.105469 398.179688 C 295.308594 396.894531 294.515625 395.601562 293.742188 394.300781 C 290.640625 389.09375 287.601562 383.835938 284.566406 378.582031 L 273.824219 359.929688 L 402.085938 359.929688 L 409.148438 386.945312 L 460.039062 386.945312 L 452.980469 359.929688 L 530.261719 359.929688 C 537.804688 359.929688 544.136719 354.261719 544.964844 346.773438 L 563.5625 179.035156 C 564.53125 170.273438 557.675781 162.613281 548.859375 162.613281 L 288.449219 162.613281 C 280.90625 162.613281 274.574219 168.28125 273.746094 175.777344 L 257.457031 322.703125 C 258.996094 327.199219 260.261719 331.585938 261.078125 335.613281 L 278.734375 176.328125 C 279.285156 171.371094 283.457031 167.632812 288.449219 167.632812 L 548.859375 167.632812 C 551.671875 167.632812 554.261719 168.792969 556.136719 170.890625 C 558.015625 172.984375 558.878906 175.683594 558.570312 178.480469 L 539.976562 346.21875 C 539.425781 351.171875 535.246094 354.910156 530.261719 354.910156 L 412.621094 354.910156 C 412.742188 354.726562 412.824219 354.515625 412.824219 354.28125 C 412.824219 353.613281 412.292969 353.078125 411.625 353.078125 L 403.625 353.078125 C 402.957031 353.078125 402.421875 353.613281 402.421875 354.28125 C 402.421875 354.515625 402.507812 354.726562 402.628906 354.910156 L 270.929688 354.910156 L 266.386719 347.023438 C 266.324219 346.921875 266.191406 346.878906 266.078125 346.941406 C 265.96875 347 265.925781 347.140625 265.988281 347.253906 L 270.222656 354.910156 L 270.085938 354.910156 C 270.953125 356.617188 271.816406 358.289062 272.671875 359.929688 L 272.996094 359.929688 L 274.796875 363.191406 L 283.75 379.050781 C 286.75 384.328125 289.746094 389.605469 292.824219 394.84375 C 293.589844 396.15625 294.375 397.460938 295.175781 398.765625 L 295.8125 399.738281 C 295.949219 399.917969 295.957031 400.03125 296.214844 400.269531 C 296.429688 400.484375 296.613281 400.570312 296.804688 400.683594 C 297.554688 401.070312 298.289062 401.304688 299.027344 401.546875 C 301.980469 402.4375 304.957031 403.054688 307.941406 403.671875 C 319.886719 405.96875 331.90625 407.710938 343.921875 409.441406 L 361.96875 411.917969 L 380.042969 414.136719 C 380.1875 414.152344 380.328125 414.046875 380.34375 413.902344 C 380.367188 413.753906 380.257812 413.617188 380.113281 413.597656 L 373.433594 412.648438 L 379.339844 403.769531 L 387.910156 403.804688 L 417.984375 403.933594 L 448.0625 403.828125 L 463.097656 403.777344 L 470.367188 403.695312 L 490.917969 434.59375 L 483.304688 434.59375 L 472.398438 422.25 L 467.367188 425.558594 L 476.683594 434.59375 L 446.476562 434.59375 L 473.945312 417.164062 L 435.242188 417.164062 L 441.0625 427.855469 C 441.507812 428.675781 441.171875 429.703125 440.324219 430.09375 C 438.75 429.980469 436.972656 429.238281 435.464844 428.195312 C 435.464844 428.15625 435.476562 428.128906 435.464844 428.09375 C 434.816406 426.570312 434.804688 424.886719 434.597656 423.15625 C 434.503906 422.285156 434.316406 421.394531 433.972656 420.53125 C 433.628906 419.667969 433.144531 418.882812 432.574219 418.175781 C 431.40625 416.792969 430 415.699219 428.578125 414.734375 C 427.160156 413.757812 425.738281 412.84375 424.460938 411.726562 C 424.382812 411.652344 424.253906 411.648438 424.167969 411.722656 C 424.066406 411.800781 424.054688 411.941406 424.132812 412.042969 C 425.238281 413.414062 426.640625 414.488281 427.980469 415.550781 C 429.316406 416.605469 430.644531 417.640625 431.648438 418.929688 C 432.15625 419.558594 432.601562 420.234375 432.910156 420.960938 C 433.226562 421.6875 433.378906 422.492188 433.546875 423.3125 C 433.792969 424.648438 433.949219 426.125 434.53125 427.472656 C 433.792969 426.839844 433.15625 426.144531 432.71875 425.417969 L 428.894531 419.019531 L 422.09375 417.378906 C 422.078125 417.359375 422.070312 417.339844 422.054688 417.328125 C 421.996094 417.257812 421.894531 417.21875 421.800781 417.253906 C 421.777344 417.261719 421.769531 417.285156 421.75 417.292969 L 421.660156 417.277344 L 412.09375 424.675781 C 412.105469 424.621094 412.113281 424.566406 412.117188 424.515625 C 412.175781 424.015625 412.140625 423.511719 412.066406 423.015625 C 411.980469 422.519531 411.851562 422.03125 411.644531 421.570312 C 411.4375 421.117188 411.1875 420.675781 410.847656 420.300781 C 410.78125 420.234375 410.683594 420.199219 410.589844 420.214844 C 410.433594 420.238281 410.332031 420.390625 410.359375 420.542969 C 410.433594 421.019531 410.546875 421.457031 410.632812 421.898438 C 410.710938 422.34375 410.8125 422.777344 410.882812 423.21875 C 410.972656 423.652344 411.03125 424.09375 411.105469 424.539062 C 411.148438 424.804688 411.1875 425.074219 411.230469 425.347656 L 403.628906 431.226562 C 401.46875 432.898438 398.96875 434.023438 396.332031 434.59375 L 388.945312 434.59375 L 379.582031 433.300781 C 380.15625 432.789062 380.671875 432.195312 381.03125 431.492188 C 381.496094 430.632812 381.71875 429.621094 381.570312 428.671875 C 381.554688 428.558594 381.460938 428.460938 381.335938 428.441406 C 381.1875 428.421875 381.050781 428.527344 381.027344 428.675781 C 380.902344 429.519531 380.601562 430.285156 380.140625 430.957031 C 379.945312 431.234375 379.714844 431.492188 379.480469 431.742188 C 379.464844 431.191406 379.394531 430.648438 379.265625 430.113281 C 379.015625 429.078125 378.585938 428.09375 377.9375 427.277344 C 377.875 427.199219 377.769531 427.167969 377.675781 427.203125 C 377.554688 427.25 377.496094 427.382812 377.539062 427.503906 C 377.886719 428.429688 378.140625 429.351562 378.246094 430.292969 C 378.355469 431.238281 378.351562 432.179688 378.203125 433.097656 C 378.199219 433.132812 378.210938 433.160156 378.210938 433.191406 L 313.71875 432.730469 L 310.894531 434.59375 L 251.816406 434.59375 C 251.964844 435 252.117188 435.398438 252.265625 435.796875 L 563.65625 435.796875 L 563.65625 434.59375 Z M 73.691406 434.59375 L 73.691406 435.796875 L 207.945312 435.796875 C 216.082031 435.796875 218.421875 434.59375 218.421875 434.59375 C 219.484375 434.308594 220.496094 433.925781 221.457031 433.457031 C 228.347656 430.082031 232.496094 422.238281 230.53125 414.152344 L 207.554688 319.625 C 205.699219 311.992188 198.867188 306.621094 191.015625 306.621094 L 62.65625 306.621094 C 51.628906 306.621094 43.511719 316.949219 46.113281 327.664062 L 69.089844 422.191406 C 70.582031 428.328125 75.300781 432.996094 81.171875 434.59375 Z M 260.078125 453.339844 C 260.078125 453.339844 260.050781 453.5625 259.984375 453.941406 L 259.988281 453.941406 C 259.152344 458.953125 251.503906 494.917969 204.066406 494.917969 C 186.699219 494.917969 174.144531 492.046875 167.15625 489.886719 C 169.636719 504.085938 182.019531 514.882812 196.929688 514.882812 L 288.1875 514.882812 C 310.78125 514.882812 332.828125 505.46875 332.828125 505.46875 L 325.742188 547.46875 L 372.265625 547.46875 C 372.265625 547.46875 377.652344 505.46875 379.972656 477.292969 C 381.332031 460.792969 369.179688 455.5 358.871094 453.941406 L 442.574219 453.941406 L 437.136719 500.734375 L 454.339844 503.585938 L 460.109375 453.941406 L 522.054688 453.941406 L 529.257812 516 L 547.136719 518.957031 L 539.589844 453.941406 L 563.65625 453.941406 L 563.65625 452.742188 L 259.769531 452.742188 C 259.964844 453.125 260.078125 453.339844 260.078125 453.339844 Z M 156.144531 452.742188 L 73.691406 452.742188 L 73.691406 453.941406 L 113.359375 453.941406 C 113.320312 454.121094 113.339844 454.308594 113.289062 454.484375 L 113.128906 455.695312 C 113.007812 456.503906 112.964844 457.316406 112.886719 458.128906 L 112.75 460.574219 L 112.683594 461.792969 L 112.652344 462.40625 C 112.664062 462.613281 112.515625 462.800781 112.902344 463.050781 C 113.34375 462.894531 113.238281 462.679688 113.300781 462.480469 L 113.410156 461.875 L 113.625 460.671875 L 114.058594 458.265625 C 114.160156 457.453125 114.304688 456.652344 114.375 455.839844 L 114.5 454.625 C 114.484375 454.394531 114.582031 454.175781 114.539062 453.941406 L 156.164062 453.941406 C 156.15625 453.542969 156.148438 453.144531 156.144531 452.742188 Z M 360.105469 192.078125 C 360.105469 191.417969 359.566406 190.878906 358.90625 190.878906 L 341.027344 190.878906 C 340.367188 190.878906 339.828125 191.417969 339.828125 192.078125 C 339.828125 192.746094 340.367188 193.277344 341.027344 193.277344 L 358.90625 193.277344 C 359.566406 193.277344 360.105469 192.746094 360.105469 192.078125 Z M 312.664062 192.082031 C 312.539062 193.0625 313.234375 193.855469 314.214844 193.855469 C 315.195312 193.855469 316.089844 193.0625 316.214844 192.082031 C 316.339844 191.101562 315.644531 190.304688 314.660156 190.304688 C 313.683594 190.304688 312.789062 191.101562 312.664062 192.082031 Z M 307.496094 193.855469 C 306.515625 193.855469 305.816406 193.0625 305.941406 192.082031 C 306.0625 191.101562 306.960938 190.304688 307.941406 190.304688 C 308.921875 190.304688 309.613281 191.101562 309.492188 192.082031 C 309.371094 193.0625 308.476562 193.855469 307.496094 193.855469 " fill-opacity="1" fill-rule="nonzero"/></g><g clip-path="url(#7ad940f129)"><path fill="#777b85" d="M 475.632812 386.945312 L 465.964844 386.945312 L 458.90625 359.929688 L 452.980469 359.929688 L 460.039062 386.945312 L 358.867188 386.945312 C 353.761719 386.945312 349.621094 391.085938 349.621094 396.199219 L 484.886719 396.199219 C 484.886719 391.085938 480.746094 386.945312 475.632812 386.945312 Z M 148.445312 386.3125 L 128.511719 386.3125 C 127.238281 386.3125 126.15625 387.269531 126.011719 388.535156 L 109.875 528.371094 C 109.707031 529.863281 110.875 531.175781 112.375 531.175781 L 132.3125 531.175781 C 133.585938 531.175781 134.660156 530.21875 134.8125 528.949219 L 150.945312 389.117188 C 151.117188 387.621094 149.949219 386.3125 148.445312 386.3125 Z M 445.570312 435.167969 L 453.660156 435.167969 L 472.078125 423.0625 L 482.78125 435.167969 L 488.757812 435.167969 L 473.945312 417.164062 Z M 556.785156 162.613281 L 548.859375 162.613281 C 557.675781 162.613281 564.53125 170.273438 563.5625 179.035156 L 544.964844 346.773438 C 544.136719 354.261719 537.804688 359.929688 530.261719 359.929688 L 538.1875 359.929688 C 545.726562 359.929688 552.0625 354.261719 552.890625 346.773438 L 571.488281 179.035156 C 572.457031 170.273438 565.597656 162.613281 556.785156 162.613281 Z M 360.105469 192.078125 C 360.105469 191.417969 359.566406 190.878906 358.90625 190.878906 L 341.027344 190.878906 C 340.367188 190.878906 339.828125 191.417969 339.828125 192.078125 C 339.828125 192.746094 340.367188 193.277344 341.027344 193.277344 L 358.90625 193.277344 C 359.566406 193.277344 360.105469 192.746094 360.105469 192.078125 Z M 314.660156 190.304688 C 313.683594 190.304688 312.789062 191.101562 312.664062 192.082031 C 312.539062 193.0625 313.234375 193.855469 314.214844 193.855469 C 315.195312 193.855469 316.089844 193.0625 316.214844 192.082031 C 316.339844 191.101562 315.644531 190.304688 314.660156 190.304688 Z M 307.941406 190.304688 C 306.960938 190.304688 306.0625 191.101562 305.941406 192.082031 C 305.816406 193.0625 306.515625 193.855469 307.496094 193.855469 C 308.476562 193.855469 309.371094 193.0625 309.492188 192.082031 C 309.613281 191.101562 308.921875 190.304688 307.941406 190.304688 Z M 322.9375 192.082031 C 322.816406 193.0625 321.921875 193.855469 320.941406 193.855469 C 319.960938 193.855469 319.265625 193.0625 319.386719 192.082031 C 319.511719 191.101562 320.40625 190.304688 321.386719 190.304688 C 322.367188 190.304688 323.058594 191.101562 322.9375 192.082031 " fill-opacity="1" fill-rule="nonzero"/></g></svg>