<svg xmlns="http://www.w3.org/2000/svg" xmlns:xlink="http://www.w3.org/1999/xlink" width="700" zoomAndPan="magnify" viewBox="0 0 525 576" height="768" preserveAspectRatio="xMidYMid meet" version="1.0"><defs><clipPath id="12b9c95601"><path d="M 26.242188 35 L 493 35 L 493 565.871094 L 26.242188 565.871094 Z M 26.242188 35 " clip-rule="nonzero"/></clipPath><clipPath id="03f3e6c1dd"><path d="M 331.195312 70 L 498.792969 70 L 498.792969 406.894531 L 331.195312 406.894531 Z M 331.195312 70 " clip-rule="nonzero"/></clipPath></defs><path fill="#100f0d" d="M 395.597656 11.753906 C 358.898438 13.21875 348.132812 28.875 347.394531 36.464844 C 346.664062 44.046875 373.085938 97.628906 373.085938 97.628906 L 409.292969 95.421875 C 409.292969 95.421875 416.148438 81.722656 423.730469 66.066406 C 431.3125 50.40625 432.292969 10.285156 395.597656 11.753906 Z M 245.65625 220.925781 L 215.460938 103.496094 C 214.347656 99.175781 210.457031 96.152344 205.996094 96.136719 L 44.746094 95.703125 C 38.171875 95.6875 33.449219 102.011719 35.332031 108.308594 L 70.5625 226.171875 C 71.804688 230.320312 75.617188 233.164062 79.949219 233.164062 L 236.164062 233.164062 C 242.566406 233.164062 247.246094 227.121094 245.65625 220.925781 Z M 313.753906 546.566406 L 289.773438 559.476562 C 289.855469 560.996094 289.902344 562.484375 289.902344 563.933594 L 212.105469 563.933594 C 212.105469 563.933594 221.894531 549.257812 241.953125 549.257812 C 262.015625 549.257812 260.546875 535.554688 260.546875 535.554688 L 285.402344 527.480469 C 285.402344 527.480469 286.382812 528.71875 286.832031 530.621094 L 303.113281 524.914062 C 303.113281 524.914062 311.191406 533.722656 313.753906 546.566406 " fill-opacity="1" fill-rule="nonzero"/><path fill="#ffffff" d="M 316.816406 282.582031 L 214.0625 282.582031 L 214.0625 279.15625 L 172.824219 279.15625 C 163.3125 279.15625 156.433594 270.074219 159.011719 260.917969 L 166.894531 232.917969 L 235.433594 232.917969 C 241.765625 232.917969 246.398438 226.945312 244.820312 220.8125 L 240.714844 204.851562 L 65.3125 204.851562 L 71.632812 226.003906 C 72.859375 230.109375 76.640625 232.917969 80.921875 232.917969 L 112.953125 232.917969 L 104.640625 263.742188 C 102.078125 273.242188 109.234375 282.582031 119.078125 282.582031 L 27.199219 282.582031 L 27.199219 323.6875 L 316.816406 323.6875 Z M 479.265625 325.640625 L 378.957031 311.945312 C 378.957031 311.945312 263.96875 341.792969 236.082031 348.148438 C 208.191406 354.511719 192.53125 374.085938 203.296875 410.292969 C 214.0625 446.503906 246.355469 539.472656 246.355469 539.472656 L 285.753906 527.960938 L 287.152344 531.179688 L 313.390625 522.34375 L 287.5625 400.019531 C 302.558594 400.019531 324.761719 400.019531 357.429688 400.019531 C 444.527344 400.019531 480 412.253906 479.265625 325.640625 Z M 192 158.800781 C 189.589844 153.28125 186.910156 147.964844 184.085938 142.890625 L 192.042969 159.035156 C 192.042969 159.035156 192.023438 158.9375 192 158.800781 Z M 145.558594 91.511719 L 218.464844 91.511719 C 218.464844 91.511719 238.644531 100.796875 253.207031 129.429688 C 267.886719 158.300781 274.734375 193.042969 274.734375 193.042969 L 202.070312 193.042969 C 201.859375 191.527344 201.601562 190.019531 201.324219 188.515625 L 190.082031 202.09375 C 190.082031 202.09375 188.613281 200.625 177.117188 181.785156 C 165.804688 163.246094 183.140625 142.832031 183.699219 142.183594 C 167 112.429688 145.558594 91.511719 145.558594 91.511719 Z M 344.8125 86.191406 L 338.347656 86.371094 L 345.324219 76.28125 L 347.394531 36.464844 L 362.808594 43.558594 C 362.808594 43.558594 362.324219 61.664062 376.019531 68.757812 L 380.421875 54.8125 C 380.421875 54.8125 392.65625 53.34375 392.171875 64.597656 C 392.0625 67.007812 391.464844 69.171875 390.589844 71.085938 C 385.183594 82.867188 393.644531 96.628906 406.582031 95.777344 C 407.472656 95.71875 408.375 95.601562 409.292969 95.421875 L 410.515625 113.042969 L 378.714844 119.398438 L 378.957031 106.921875 L 368.429688 111.074219 C 356.527344 115.773438 343.75 106.585938 344.414062 93.800781 L 344.8125 86.191406 " fill-opacity="1" fill-rule="nonzero"/><path fill="#06a3c8" d="M 358.898438 317.199219 L 341.28125 208.210938 C 341.28125 208.210938 285.992188 260.566406 272.777344 272.308594 C 259.566406 284.050781 241.460938 286.5 227.273438 267.90625 C 213.082031 249.308594 177.363281 194.507812 177.363281 194.507812 L 206.722656 182.277344 L 248.800781 236.097656 C 248.800781 236.097656 310.453125 172.492188 326.113281 157.324219 C 341.769531 142.152344 371.617188 130.898438 371.617188 130.898438 L 374.066406 118.175781 L 411.742188 101.539062 L 417.125 121.113281 C 417.125 121.113281 441.589844 135.304688 452.351562 141.664062 C 463.117188 148.023438 466.054688 161.726562 468.503906 180.808594 C 470.949219 199.890625 482.691406 304.113281 484.15625 324.171875 C 485.625 344.238281 430.824219 375.550781 370.148438 315.367188 L 358.898438 317.199219 " fill-opacity="1" fill-rule="nonzero"/><g clip-path="url(#12b9c95601)"><path fill="#100f0d" d="M 182.546875 142.085938 C 179.773438 145.570312 165.632812 164.800781 176.304688 182.285156 C 177.921875 184.929688 179.332031 186.925781 180.570312 188.683594 C 181.433594 189.894531 182.207031 190.988281 182.902344 192.105469 C 183.085938 192.390625 183.398438 192.550781 183.714844 192.550781 C 183.890625 192.550781 184.0625 192.5 184.222656 192.402344 C 184.671875 192.121094 184.804688 191.535156 184.523438 191.085938 C 183.804688 189.945312 183.011719 188.820312 182.132812 187.574219 C 180.90625 185.84375 179.511719 183.878906 177.933594 181.289062 C 168.433594 165.734375 180.070312 148.472656 183.53125 143.925781 L 191.183594 159.457031 C 191.398438 159.882812 191.890625 160.089844 192.339844 159.941406 C 192.796875 159.792969 193.066406 159.335938 192.984375 158.867188 C 192.964844 158.769531 191.246094 149.21875 189.785156 143.625 C 189.25 141.558594 189.652344 140.398438 190.292969 140.167969 C 191.050781 139.898438 192.347656 140.640625 193.132812 142.3125 C 194.316406 144.820312 194.542969 145.246094 196.03125 148.015625 C 197.035156 149.886719 198.621094 152.84375 201.472656 158.253906 C 208.21875 171.050781 200.804688 183.332031 200.726562 183.453125 C 200.445312 183.902344 200.589844 184.488281 201.035156 184.769531 C 201.480469 185.046875 202.070312 184.90625 202.347656 184.457031 C 202.683594 183.921875 210.425781 171.148438 203.164062 157.367188 C 200.304688 151.945312 198.714844 148.984375 197.710938 147.109375 C 196.210938 144.320312 196.019531 143.964844 194.867188 141.503906 C 193.539062 138.6875 191.230469 137.800781 189.644531 138.375 C 188.230469 138.886719 187.039062 140.664062 187.9375 144.109375 C 188.480469 146.183594 189.054688 148.808594 189.570312 151.289062 C 188.070312 148.234375 186.5 145.242188 184.875 142.332031 L 184.582031 141.730469 C 184.550781 141.671875 184.496094 141.636719 184.457031 141.582031 C 170.492188 116.78125 153.144531 97.957031 147.835938 92.464844 L 218.246094 92.464844 C 220.269531 93.472656 238.832031 103.277344 252.355469 129.863281 C 265.320312 155.367188 272.230469 185.863281 273.5625 192.085938 L 215.539062 192.085938 C 215.011719 192.085938 214.585938 192.515625 214.585938 193.042969 C 214.585938 193.566406 215.011719 193.996094 215.539062 193.996094 L 274.734375 193.996094 C 275.019531 193.996094 275.292969 193.867188 275.476562 193.648438 C 275.652344 193.425781 275.726562 193.136719 275.671875 192.859375 C 275.605469 192.511719 268.628906 157.652344 254.054688 129 C 239.511719 100.394531 219.703125 91.023438 218.863281 90.640625 C 218.738281 90.582031 218.605469 90.554688 218.464844 90.554688 L 145.558594 90.554688 C 145.167969 90.554688 144.820312 90.789062 144.671875 91.148438 C 144.527344 91.511719 144.617188 91.921875 144.890625 92.195312 C 145.128906 92.425781 166.125 113.074219 182.546875 142.085938 Z M 243.847656 229.75 C 245.882812 227.132812 246.574219 223.785156 245.746094 220.574219 L 241.644531 204.609375 C 241.511719 204.097656 240.996094 203.792969 240.480469 203.921875 C 239.972656 204.058594 239.660156 204.574219 239.792969 205.082031 L 243.898438 221.050781 C 244.574219 223.6875 244.007812 226.425781 242.339844 228.582031 Z M 480.664062 533.132812 L 437.714844 400.792969 C 437.59375 400.410156 437.71875 400.015625 438.003906 399.769531 C 424.988281 401.878906 408.757812 401.703125 388.96875 401.351562 C 389.378906 401.550781 389.609375 402.007812 389.476562 402.460938 L 351.339844 533.132812 L 412.257812 533.132812 L 412.257812 404.910156 C 412.257812 404.382812 412.679688 403.953125 413.210938 403.953125 C 413.738281 403.953125 414.164062 404.382812 414.164062 404.910156 L 414.164062 533.132812 Z M 286.230469 400.972656 L 258.839844 400.972656 L 290.828125 526.515625 C 290.957031 527.011719 290.667969 527.519531 290.171875 527.664062 L 287.320312 528.496094 L 287.984375 529.992188 L 312.277344 521.714844 Z M 133.792969 283.566406 L 133.792969 322.734375 L 315.859375 322.734375 L 315.859375 283.539062 L 133.789062 283.539062 C 133.789062 283.546875 133.792969 283.554688 133.792969 283.566406 Z M 131.882812 322.734375 L 131.882812 283.566406 C 131.882812 283.554688 131.886719 283.546875 131.886719 283.539062 L 28.152344 283.539062 L 28.152344 322.734375 Z M 119.078125 281.628906 L 213.109375 281.628906 L 213.109375 280.113281 L 172.824219 280.113281 C 167.988281 280.113281 163.546875 277.902344 160.625 274.046875 C 157.707031 270.195312 156.78125 265.316406 158.09375 260.664062 L 165.632812 233.871094 L 113.890625 233.871094 L 105.5625 263.996094 C 104.421875 268.230469 105.296875 272.660156 107.96875 276.144531 C 110.636719 279.628906 114.6875 281.628906 119.078125 281.628906 Z M 492.035156 565.089844 C 491.941406 565.121094 491.839844 565.136719 491.742188 565.136719 C 491.339844 565.136719 490.964844 564.878906 490.835938 564.476562 L 481.285156 535.042969 L 414.164062 535.042969 L 414.164062 564.917969 C 414.164062 565.441406 413.738281 565.871094 413.210938 565.871094 C 412.679688 565.871094 412.257812 565.441406 412.257812 564.917969 L 412.257812 535.042969 L 350.78125 535.042969 L 342.199219 564.449219 C 342.078125 564.863281 341.691406 565.136719 341.28125 565.136719 C 341.195312 565.136719 341.105469 565.121094 341.015625 565.09375 C 340.507812 564.949219 340.214844 564.421875 340.363281 563.914062 L 348.890625 534.710938 C 348.742188 534.542969 348.644531 534.328125 348.644531 534.085938 C 348.644531 533.65625 348.9375 533.300781 349.335938 533.1875 L 387.648438 401.929688 C 387.722656 401.652344 387.917969 401.453125 388.164062 401.339844 C 387.492188 401.328125 386.820312 401.3125 386.140625 401.300781 C 377.078125 401.144531 367.707031 400.972656 357.429688 400.972656 L 317.769531 400.972656 L 317.769531 564.179688 C 317.769531 564.707031 317.34375 565.136719 316.816406 565.136719 C 316.289062 565.136719 315.859375 564.707031 315.859375 564.179688 L 315.859375 400.972656 L 288.1875 400.972656 L 314.320312 522.144531 C 314.425781 522.617188 314.15625 523.09375 313.699219 523.25 L 287.777344 532.085938 C 287.671875 532.117188 287.570312 532.132812 287.46875 532.132812 C 287.101562 532.132812 286.753906 531.917969 286.59375 531.566406 L 285.472656 529.035156 L 246.625 540.386719 C 246.535156 540.414062 246.445312 540.425781 246.355469 540.425781 C 245.957031 540.425781 245.59375 540.175781 245.453125 539.785156 C 245.128906 538.851562 213.027344 446.382812 202.382812 410.566406 C 197.203125 393.144531 197.832031 378.734375 204.257812 367.734375 C 210.207031 357.550781 220.84375 350.648438 235.867188 347.222656 C 250.160156 343.960938 285.246094 335.175781 315.859375 327.433594 L 315.859375 324.640625 L 133.792969 324.640625 L 133.792969 564.179688 C 133.792969 564.707031 133.363281 565.136719 132.835938 565.136719 C 132.308594 565.136719 131.882812 564.707031 131.882812 564.179688 L 131.882812 324.640625 L 28.152344 324.640625 L 28.152344 564.179688 C 28.152344 564.707031 27.722656 565.136719 27.199219 565.136719 C 26.671875 565.136719 26.242188 564.707031 26.242188 564.179688 L 26.242188 282.582031 C 26.242188 282.058594 26.671875 281.628906 27.199219 281.628906 L 111.542969 281.628906 C 109.59375 280.582031 107.851562 279.128906 106.453125 277.304688 C 103.417969 273.34375 102.421875 268.3125 103.722656 263.492188 L 111.90625 233.871094 L 80.921875 233.871094 C 76.25 233.871094 72.058594 230.75 70.71875 226.273438 L 64.398438 205.125 C 64.246094 204.617188 64.53125 204.082031 65.039062 203.933594 C 65.539062 203.785156 66.074219 204.070312 66.226562 204.574219 L 72.546875 225.730469 C 73.644531 229.398438 77.089844 231.964844 80.921875 231.964844 L 202.027344 231.964844 L 203.453125 233.871094 L 167.617188 233.871094 L 159.933594 261.183594 C 158.785156 265.25 159.59375 269.523438 162.144531 272.898438 C 164.699219 276.269531 168.589844 278.203125 172.824219 278.203125 L 214.0625 278.203125 C 214.589844 278.203125 215.019531 278.628906 215.019531 279.15625 L 215.019531 281.628906 L 316.816406 281.628906 C 317.34375 281.628906 317.769531 282.058594 317.769531 282.582031 L 317.769531 326.953125 C 345.363281 319.972656 368.847656 313.964844 369.339844 313.835938 C 369.859375 313.703125 370.371094 314.015625 370.5 314.523438 C 370.636719 315.035156 370.328125 315.554688 369.8125 315.6875 C 368.761719 315.960938 263.875 342.792969 236.289062 349.082031 C 221.804688 352.382812 211.582031 358.988281 205.902344 368.699219 C 199.757812 379.222656 199.1875 393.125 204.210938 410.023438 C 214.300781 443.949219 243.675781 528.824219 246.957031 538.300781 L 288.753906 526.09375 L 256.683594 400.253906 C 256.613281 399.96875 256.675781 399.667969 256.851562 399.433594 C 257.035156 399.199219 257.3125 399.066406 257.605469 399.066406 L 357.429688 399.066406 C 367.726562 399.066406 377.105469 399.230469 386.175781 399.390625 C 424.152344 400.074219 449.238281 400.519531 463.429688 386.460938 C 473.988281 376 478.578125 357.246094 478.3125 325.652344 C 478.308594 325.125 478.734375 324.691406 479.257812 324.6875 C 479.257812 324.6875 479.265625 324.6875 479.269531 324.6875 C 479.789062 324.6875 480.21875 325.109375 480.222656 325.636719 C 480.496094 357.785156 475.730469 376.964844 464.773438 387.816406 C 458.289062 394.242188 449.75 397.753906 438.953125 399.617188 C 439.21875 399.71875 439.4375 399.917969 439.53125 400.203125 L 492.652344 563.886719 C 492.8125 564.386719 492.542969 564.925781 492.035156 565.089844 Z M 217.554688 198.054688 L 189.664062 211.757812 C 189.191406 211.988281 188.992188 212.558594 189.226562 213.035156 C 189.394531 213.371094 189.734375 213.570312 190.085938 213.570312 C 190.226562 213.570312 190.367188 213.539062 190.507812 213.46875 L 218.394531 199.769531 C 218.867188 199.539062 219.0625 198.964844 218.832031 198.492188 C 218.605469 198.019531 218.03125 197.824219 217.554688 198.054688 Z M 370.703125 131.167969 C 370.824219 131.585938 371.207031 131.851562 371.617188 131.851562 C 371.707031 131.851562 371.800781 131.84375 371.890625 131.816406 L 413.480469 119.582031 C 413.984375 119.433594 414.273438 118.90625 414.125 118.394531 C 413.980469 117.890625 413.441406 117.597656 412.9375 117.753906 L 371.347656 129.984375 C 370.84375 130.128906 370.554688 130.660156 370.703125 131.167969 Z M 338.375 87.324219 L 343.804688 87.175781 L 343.460938 93.75 C 343.128906 100.082031 346.007812 106.070312 351.152344 109.765625 C 356.292969 113.46875 362.886719 114.292969 368.785156 111.960938 L 377.980469 108.339844 L 377.816406 116.402344 C 377.808594 116.929688 378.222656 117.367188 378.753906 117.375 C 378.757812 117.375 378.765625 117.375 378.773438 117.375 C 379.289062 117.375 379.714844 116.960938 379.726562 116.4375 L 379.914062 106.941406 C 379.917969 106.621094 379.769531 106.324219 379.503906 106.140625 C 379.242188 105.957031 378.90625 105.921875 378.609375 106.03125 L 368.082031 110.1875 C 362.800781 112.273438 356.878906 111.539062 352.265625 108.21875 C 347.652344 104.898438 345.070312 99.527344 345.363281 93.847656 L 345.761719 86.242188 C 345.777344 85.972656 345.675781 85.714844 345.488281 85.523438 C 345.308594 85.332031 345.003906 85.230469 344.785156 85.238281 L 340.203125 85.363281 L 346.109375 76.824219 C 346.210938 76.675781 346.269531 76.507812 346.28125 76.328125 L 347.144531 59.75 C 347.160156 59.84375 347.175781 59.9375 347.222656 60.027344 C 347.472656 60.488281 348.050781 60.671875 348.511719 60.425781 C 348.640625 60.363281 351.621094 58.863281 354.054688 62.667969 C 354.238281 62.949219 354.546875 63.105469 354.859375 63.105469 C 355.039062 63.105469 355.210938 63.054688 355.375 62.957031 C 355.820312 62.671875 355.949219 62.082031 355.664062 61.636719 C 352.96875 57.425781 349.230469 57.898438 347.628906 58.738281 C 347.398438 58.855469 347.242188 59.054688 347.167969 59.28125 L 348.277344 37.917969 L 361.855469 44.171875 C 361.898438 47.550781 362.820312 62.992188 375.582031 69.605469 C 375.832031 69.734375 376.128906 69.746094 376.386719 69.640625 C 376.648438 69.527344 376.84375 69.316406 376.929688 69.042969 L 381.140625 55.722656 C 382.636719 55.652344 386.535156 55.738281 389.003906 58.03125 C 390.597656 59.511719 391.335938 61.707031 391.214844 64.554688 C 391.121094 66.660156 390.621094 68.726562 389.722656 70.6875 C 386.949219 76.726562 387.546875 83.835938 391.277344 89.25 C 394.839844 94.410156 400.445312 97.136719 406.644531 96.730469 C 407.234375 96.691406 407.824219 96.628906 408.414062 96.542969 L 408.820312 102.386719 C 408.855469 102.914062 409.316406 103.28125 409.839844 103.277344 C 410.371094 103.234375 410.761719 102.78125 410.726562 102.253906 L 410.25 95.355469 C 410.230469 95.085938 410.09375 94.835938 409.878906 94.667969 C 409.660156 94.5 409.390625 94.433594 409.109375 94.488281 C 408.257812 94.652344 407.382812 94.769531 406.515625 94.820312 C 401.019531 95.191406 396.015625 92.761719 392.847656 88.164062 C 389.503906 83.304688 388.96875 76.917969 391.457031 71.484375 C 392.460938 69.292969 393.023438 66.992188 393.121094 64.640625 C 393.273438 61.199219 392.316406 58.503906 390.292969 56.621094 C 386.554688 53.160156 380.570312 53.839844 380.3125 53.863281 C 379.9375 53.910156 379.628906 54.167969 379.511719 54.523438 L 375.460938 67.355469 C 363.480469 60.277344 363.761719 43.753906 363.765625 43.582031 C 363.773438 43.203125 363.558594 42.847656 363.210938 42.6875 L 347.796875 35.59375 C 347.511719 35.464844 347.175781 35.484375 346.90625 35.644531 C 346.632812 35.808594 346.460938 36.097656 346.445312 36.414062 L 344.386719 75.960938 L 337.5625 85.828125 C 337.355469 86.125 337.335938 86.507812 337.503906 86.828125 C 337.679688 87.144531 337.988281 87.324219 338.375 87.324219 Z M 354.636719 89.480469 C 352.054688 93.035156 348.589844 93.121094 348.433594 93.121094 C 347.90625 93.125 347.484375 93.550781 347.484375 94.078125 C 347.484375 94.605469 347.90625 95.03125 348.433594 95.03125 C 348.621094 95.03125 353 94.980469 356.183594 90.601562 C 356.492188 90.175781 356.398438 89.578125 355.96875 89.269531 C 355.546875 88.964844 354.949219 89.050781 354.636719 89.480469 Z M 359.578125 190.417969 C 359.949219 190.796875 359.941406 191.398438 359.5625 191.769531 L 341.949219 208.894531 C 341.761719 209.074219 341.523438 209.164062 341.28125 209.164062 C 341.03125 209.164062 340.78125 209.066406 340.597656 208.875 C 340.230469 208.496094 340.238281 207.894531 340.613281 207.527344 L 358.230469 190.398438 C 358.609375 190.035156 359.214844 190.042969 359.578125 190.417969 " fill-opacity="1" fill-rule="nonzero"/></g><g clip-path="url(#03f3e6c1dd)"><path fill="#100f0d" d="M 351.066406 73.40625 C 351.878906 73.40625 352.535156 72.75 352.535156 71.9375 C 352.535156 71.125 351.878906 70.46875 351.066406 70.46875 C 350.253906 70.46875 349.597656 71.125 349.597656 71.9375 C 349.597656 72.75 350.253906 73.40625 351.066406 73.40625 Z M 455.289062 406.382812 C 405.269531 406.382812 355.867188 405.765625 337.511719 405.511719 C 333.316406 405.449219 330.378906 401.207031 331.953125 397.3125 C 334.28125 391.558594 339.394531 384.851562 350.574219 384.851562 C 370.148438 384.851562 375.535156 384.851562 390.210938 384.851562 C 420.058594 384.851562 428.378906 309.984375 453.332031 309.984375 C 463.609375 309.984375 475.839844 309.984375 486.605469 309.984375 C 497.367188 309.984375 518.410156 406.382812 455.289062 406.382812 " fill-opacity="1" fill-rule="nonzero"/></g></svg>