<svg xmlns="http://www.w3.org/2000/svg" xmlns:xlink="http://www.w3.org/1999/xlink" width="700" zoomAndPan="magnify" viewBox="0 0 525 510.000002" height="680" preserveAspectRatio="xMidYMid meet" version="1.0"><defs><clipPath id="0bf733f4dd"><path d="M 277.628906 370.160156 L 459.8125 370.160156 L 459.8125 500 L 277.628906 500 Z M 277.628906 370.160156 " clip-rule="nonzero"/></clipPath><clipPath id="ca47a59c93"><path d="M 277 368 L 455 368 L 455 500.179688 L 277 500.179688 Z M 277 368 " clip-rule="nonzero"/></clipPath><clipPath id="3d8fd845c2"><path d="M 368.722656 248.59375 L 519.773438 248.59375 L 519.773438 408 L 368.722656 408 Z M 368.722656 248.59375 " clip-rule="nonzero"/></clipPath></defs><path fill="#100f0d" d="M 149.421875 133.523438 L 157.058594 135.550781 L 156.78125 136.597656 L 149.144531 134.570312 Z M 114.601562 155.855469 L 115.601562 156.273438 L 112.980469 162.496094 L 111.984375 162.074219 Z M 103.570312 150.304688 L 104.414062 150.984375 L 100.308594 156.097656 L 99.460938 155.417969 Z M 97.25 143.367188 L 97.808594 144.296875 L 91.949219 147.820312 L 91.390625 146.886719 Z M 84.273438 138.746094 L 91.488281 136.191406 L 91.851562 137.214844 L 84.632812 139.773438 Z M 123.210938 155.507812 L 124.296875 155.507812 L 124.296875 162.28125 L 123.210938 162.28125 Z M 147.140625 140 L 154.386719 143.339844 L 153.933594 144.328125 L 146.6875 140.988281 Z M 134.234375 152.558594 L 136.644531 158.546875 L 135.640625 158.953125 L 133.230469 152.96875 Z M 141.113281 147.859375 L 145.53125 153.472656 L 144.679688 154.144531 L 140.261719 148.527344 Z M 166.652344 238.777344 L 161.117188 247.507812 L 160.203125 246.925781 L 165.738281 238.195312 Z M 212.332031 249.648438 C 211.929688 252.011719 192.542969 305.246094 170.136719 323.414062 L 169.453125 322.570312 C 191.148438 304.980469 210.882812 251.71875 211.261719 249.464844 C 211.597656 247.511719 205.972656 222.335938 202.109375 205.894531 L 202.09375 205.824219 L 202.097656 205.75 C 202.253906 200.96875 203.535156 163.28125 204.417969 153.316406 L 188.019531 177.09375 C 187.222656 180.386719 175.167969 230.28125 171.460938 236.367188 C 171.652344 238.304688 172.296875 244.824219 172.984375 252.292969 C 178.300781 232.160156 199.820312 231.910156 200.0625 231.910156 C 200.0625 231.910156 200.0625 231.910156 200.066406 231.910156 L 200.0625 232.996094 C 199.113281 232.996094 176.78125 233.265625 173.320312 255.96875 C 173.332031 256.082031 173.34375 256.199219 173.355469 256.308594 C 183.445312 239.628906 198.9375 246.652344 199.097656 246.726562 L 198.636719 247.710938 C 198 247.410156 183.070312 240.691406 173.523438 258.199219 C 174.46875 268.796875 175.316406 279.421875 175.03125 280.710938 C 174.441406 283.355469 165.792969 288.597656 164.804688 289.1875 L 164.25 288.253906 C 167.8125 286.121094 173.605469 282.125 173.972656 280.476562 C 174.210938 279.402344 173.449219 269.570312 172.433594 258.253906 L 172.292969 258.183594 C 172.332031 258.109375 172.371094 258.042969 172.410156 257.972656 C 171.761719 250.6875 171.011719 242.820312 170.363281 236.285156 L 170.34375 236.089844 L 170.457031 235.925781 C 173.957031 230.78125 186.859375 177.28125 186.984375 176.738281 L 187.066406 176.5625 L 204.585938 151.15625 C 201.855469 148.828125 170.5 136.78125 149.582031 129.066406 L 149.953125 128.050781 C 162.777344 132.777344 204.691406 148.390625 205.730469 150.855469 C 205.808594 151.039062 205.808594 151.230469 205.730469 151.398438 C 205.140625 153 203.882812 184.730469 203.179688 205.714844 C 204.242188 210.246094 212.808594 246.863281 212.332031 249.648438 Z M 74.4375 256.578125 C 67.957031 258.644531 62.121094 258.1875 57.085938 255.191406 C 45.820312 248.488281 41.878906 231.105469 41.402344 228.789062 C 47.472656 218.5625 54.371094 212.101562 55.398438 211.167969 C 65.40625 210.261719 73.285156 212.25 78.824219 217.058594 C 85.800781 223.117188 86.730469 231.816406 86.828125 233.003906 C 86.191406 234.28125 81.167969 244.328125 74.4375 256.578125 Z M 79.546875 216.246094 C 73.742188 211.203125 65.527344 209.128906 55.117188 210.097656 L 54.945312 210.117188 L 54.8125 210.234375 C 54.683594 210.34375 48.335938 215.980469 42.199219 225.460938 C 38.054688 226.425781 27.71875 242.84375 25.632812 246.222656 L 26.558594 246.792969 C 30.6875 240.109375 37.550781 230.101562 41.054688 227.273438 C 35.34375 236.597656 30.167969 249.207031 30.816406 263.710938 L 31.898438 263.664062 C 31.316406 250.59375 35.554688 239.085938 40.597656 230.1875 C 41.699219 234.925781 45.914062 249.800781 56.527344 256.125 C 59.683594 258 63.132812 258.941406 66.832031 258.941406 C 69.03125 258.941406 71.328125 258.589844 73.703125 257.925781 C 62.066406 278.996094 45.78125 305.753906 37.984375 306.054688 C 24.40625 306.59375 18.070312 294.492188 12.21875 274.832031 C 5.996094 253.921875 23.050781 227.945312 23.222656 227.6875 L 23.332031 227.53125 L 23.3125 227.34375 C 21.535156 204.535156 18.742188 160.703125 20.65625 154.949219 C 44.972656 155.445312 56.921875 205.382812 57.039062 205.894531 L 58.09375 205.648438 C 57.609375 203.5625 46.074219 155.347656 21.441406 153.882812 C 27.011719 149.195312 63.191406 136.992188 87.535156 129.523438 L 87.21875 128.488281 C 80.613281 130.511719 22.589844 148.453125 19.796875 154.15625 C 17.039062 159.78125 21.855469 222.578125 22.21875 227.242188 C 20.777344 229.484375 5.074219 254.613281 11.179688 275.144531 C 17.046875 294.875 23.484375 307.160156 37.121094 307.160156 C 37.417969 307.160156 37.71875 307.148438 38.019531 307.140625 C 51.480469 306.625 86.382812 236.34375 87.867188 233.355469 L 87.925781 233.226562 L 87.921875 233.089844 C 87.902344 232.679688 87.359375 223.042969 79.546875 216.246094 " fill-opacity="1" fill-rule="nonzero"/><path fill="#3e5bb2" d="M 100.574219 116.8125 L 87.378906 129.007812 C 87.378906 129.007812 102.703125 163.277344 127.15625 155.425781 C 151.613281 147.574219 149.769531 128.558594 149.769531 128.558594 L 135.816406 120.441406 Z M 69.84375 204.941406 C 69.84375 204.941406 66.105469 196.210938 58.628906 202.996094 C 54.808594 206.46875 52.507812 210.394531 51.167969 213.402344 C 49.890625 216.28125 50.363281 219.628906 52.363281 222.0625 C 58 228.90625 70.820312 242.042969 80.886719 234.171875 C 94.175781 223.78125 91.023438 219.070312 69.84375 204.941406 Z M 162.59375 298.699219 C 180.6875 319.023438 182.726562 432.199219 182.726562 432.199219 L 57.105469 463.675781 C 57.105469 463.675781 43.722656 381.464844 42.617188 353.691406 C 41.511719 325.914062 58.488281 298.699219 58.488281 298.699219 L 162.59375 298.699219 " fill-opacity="1" fill-rule="nonzero"/><path fill="#edaa98" d="M 76.71875 225.835938 L 86.621094 207.273438 C 118.679688 193.136719 126.003906 181.777344 123.375 180.359375 C 120.742188 178.945312 106.164062 187.457031 106.164062 187.457031 C 126.816406 175.480469 132.386719 172.78125 129.898438 169.515625 C 127.410156 166.246094 118.941406 172.078125 118.941406 172.078125 C 131.125 165.839844 132.417969 161.890625 129.464844 160.714844 C 126.394531 159.488281 98.453125 172.078125 98.453125 172.078125 C 98.453125 172.078125 113.679688 157.664062 117.28125 153.847656 C 120.878906 150.027344 116.726562 144.914062 112.992188 148.660156 C 109.25 152.398438 80.59375 176.230469 80.59375 176.230469 C 79.628906 175.265625 84.054688 166.535156 85.996094 160.988281 C 87.933594 155.449219 82.808594 146.71875 80.179688 153.847656 C 77.546875 160.976562 69.378906 173.738281 67.859375 179.144531 C 66.335938 184.546875 67.859375 201.316406 67.859375 201.316406 L 60.523438 213.367188 C 66.613281 228.054688 76.71875 225.835938 76.71875 225.835938 Z M 154.019531 87.269531 C 152.753906 92.53125 147.222656 114.558594 143.523438 116.730469 C 141.972656 117.648438 138.089844 117.269531 136.984375 117.503906 C 135.078125 117.917969 136.121094 120.285156 135.738281 122.21875 C 135.476562 123.585938 134.640625 124.78125 133.449219 125.496094 C 129.015625 128.144531 117.289062 132.8125 102.707031 120.070312 C 101.761719 119.242188 101.148438 118.09375 101.015625 116.84375 L 98.890625 97.035156 C 98.679688 95.128906 97.394531 93.476562 95.570312 92.902344 C 93.152344 92.128906 89.59375 90.082031 86.246094 84.664062 C 82.742188 78.984375 84.855469 74.351562 88.488281 72.542969 C 88.488281 72.542969 100.996094 80.238281 99.332031 74.832031 C 97.671875 69.425781 102.511719 48.636719 102.511719 48.636719 L 99.332031 45.316406 L 104.589844 47.25 C 118.160156 38.804688 142.65625 44.765625 147.363281 45.726562 C 152.082031 46.695312 153.261719 55.867188 153.261719 55.867188 L 153.25 55.878906 C 153.519531 57.996094 153.589844 60.164062 153.304688 62.371094 C 151.886719 73.257812 153.4375 82.179688 154.054688 85.121094 C 154.207031 85.835938 154.195312 86.5625 154.019531 87.269531 " fill-opacity="1" fill-rule="nonzero"/><path fill="#ffffff" d="M 145.109375 96.421875 C 145.109375 96.421875 137.308594 101.59375 119.679688 97.34375 C 119.679688 97.34375 129.371094 106.859375 136.753906 105.011719 C 144.136719 103.164062 145.109375 96.421875 145.109375 96.421875 Z M 125.308594 73.488281 C 125.308594 73.488281 118.0625 68.082031 108.699219 71.457031 C 108.699219 71.457031 109.894531 77.609375 116.082031 78.664062 C 125.308594 80.234375 125.308594 73.488281 125.308594 73.488281 Z M 145.109375 77.554688 C 139.0625 78.9375 138.96875 73.304688 138.96875 73.304688 C 143.675781 67.578125 151.242188 69.519531 151.242188 69.519531 C 151.242188 69.519531 151.152344 76.167969 145.109375 77.554688 " fill-opacity="1" fill-rule="nonzero"/><path fill="#100f0d" d="M 121.742188 186.109375 L 121.183594 185.175781 C 120.859375 185.367188 119.820312 185.855469 119.242188 185.589844 C 119.148438 185.546875 118.871094 185.414062 118.761719 184.757812 C 118.492188 183.140625 122.457031 181.933594 123.867188 181.636719 L 123.644531 180.574219 C 122.984375 180.714844 117.207031 182.015625 117.691406 184.9375 C 117.863281 185.949219 118.382812 186.386719 118.789062 186.574219 C 119.066406 186.699219 119.363281 186.75 119.652344 186.75 C 120.636719 186.75 121.605469 186.191406 121.742188 186.109375 Z M 126.5 174.824219 C 126.457031 174.824219 125.484375 174.796875 125.484375 173.136719 C 125.484375 171.6875 128.8125 170.605469 129.976562 170.34375 L 129.734375 169.28125 C 129.1875 169.40625 124.398438 170.5625 124.398438 173.136719 C 124.398438 175.316406 125.765625 175.90625 126.492188 175.910156 Z M 126.914062 167.828125 L 126.871094 166.746094 C 126.859375 166.742188 125.910156 166.773438 125.371094 166.25 C 125.121094 166.007812 125 165.679688 125 165.238281 C 125 164.035156 127.933594 162.550781 130.023438 161.875 L 129.6875 160.84375 C 129.101562 161.03125 123.914062 162.769531 123.914062 165.238281 C 123.914062 165.980469 124.152344 166.585938 124.621094 167.039062 C 125.398438 167.78125 126.550781 167.832031 126.84375 167.832031 C 126.878906 167.832031 126.90625 167.832031 126.914062 167.828125 Z M 116.929688 154.863281 L 116.707031 153.796875 C 116.625 153.820312 114.703125 154.199219 114.171875 152.660156 C 113.761719 151.464844 115.898438 149.242188 117.335938 148.117188 L 116.671875 147.261719 C 116.226562 147.605469 112.351562 150.707031 113.148438 153.015625 C 113.671875 154.539062 115.070312 154.9375 116.136719 154.9375 C 116.433594 154.9375 116.707031 154.910156 116.929688 154.863281 Z M 82.292969 158.253906 C 85.21875 155.941406 83.160156 151.160156 83.070312 150.957031 L 82.082031 151.394531 C 82.097656 151.4375 83.894531 155.605469 81.617188 157.402344 C 80.820312 158.035156 80.132812 158.304688 79.628906 158.179688 C 79.160156 158.0625 78.960938 157.632812 78.953125 157.617188 L 77.953125 158.039062 C 78.101562 158.382812 78.554688 159.023438 79.347656 159.226562 C 79.523438 159.273438 79.699219 159.292969 79.882812 159.292969 C 80.605469 159.292969 81.414062 158.945312 82.292969 158.253906 Z M 86.882812 207.746094 L 86.359375 206.796875 L 84.070312 208.0625 L 84.597656 209.015625 Z M 126.359375 176.117188 L 125.796875 175.191406 L 101.492188 190.066406 L 102.058594 190.992188 Z M 124.03125 169.867188 L 123.480469 168.929688 L 98.175781 183.871094 L 98.726562 184.804688 Z M 94.554688 176.070312 L 93.855469 175.238281 L 98.105469 171.660156 L 98.804688 172.492188 L 94.554688 176.070312 " fill-opacity="1" fill-rule="nonzero"/><path fill="#100f0d" d="M 177.625 351.390625 C 172.5 310.335938 163.398438 298.824219 163.015625 298.355469 L 162.175781 299.042969 C 162.269531 299.15625 171.460938 310.777344 176.546875 351.523438 C 181.652344 392.382812 181.613281 430.847656 181.613281 431.234375 L 182.699219 431.234375 C 182.699219 430.851562 182.738281 392.324219 177.625 351.390625 Z M 80.105469 301.433594 L 57.179688 329.242188 L 59.605469 332.957031 L 83.4375 304.285156 Z M 79.976562 299.890625 L 84.953125 304.152344 L 59.496094 334.78125 L 55.832031 329.167969 Z M 156.273438 361.394531 L 123.851562 385.421875 L 152.410156 372.9375 L 152.847656 373.929688 L 120.253906 388.183594 L 125.605469 446.597656 L 124.527344 446.699219 L 119.113281 387.589844 L 133.261719 377.101562 L 133.261719 306.089844 L 134.34375 306.089844 L 134.34375 376.296875 L 155.625 360.519531 L 156.273438 361.394531 " fill-opacity="1" fill-rule="nonzero"/><path fill="#ffffff" d="M 139.480469 288.71875 L 139.480469 305.890625 C 131.421875 306.550781 122.921875 306.691406 114.558594 306.542969 L 114.558594 288.71875 L 139.480469 288.71875 " fill-opacity="1" fill-rule="nonzero"/><path fill="#100f0d" d="M 135.738281 291.953125 L 119.679688 291.953125 L 119.679688 302.625 L 135.738281 302.625 Z M 139.480469 288.71875 L 139.480469 305.890625 C 148.710938 305.132812 157.351562 303.707031 164.53125 301.320312 L 164.53125 288.71875 Z M 58.3125 288.71875 L 114.558594 288.71875 L 114.558594 306.542969 C 84.878906 305.933594 56.976562 301.320312 56.976562 301.320312 L 58.3125 288.71875 " fill-opacity="1" fill-rule="nonzero"/><path fill="#100f0d" d="M 129.820312 143.621094 C 129.820312 142.492188 129.164062 141.53125 128.382812 141.53125 C 127.605469 141.53125 126.945312 142.492188 126.945312 143.621094 C 126.945312 144.757812 127.605469 145.714844 128.382812 145.714844 C 129.164062 145.714844 129.820312 144.757812 129.820312 143.621094 Z M 130.90625 143.621094 C 130.90625 145.375 129.773438 146.796875 128.382812 146.796875 C 126.996094 146.796875 125.859375 145.375 125.859375 143.621094 C 125.859375 141.875 126.996094 140.445312 128.382812 140.445312 C 129.773438 140.445312 130.90625 141.875 130.90625 143.621094 Z M 145.183594 126.324219 L 138.382812 148.40625 L 122.65625 131.644531 L 126.074219 155.679688 L 125.003906 155.832031 L 121.542969 131.527344 L 108.222656 151.988281 L 89.894531 127.25 L 90.769531 126.605469 L 108.160156 150.089844 L 121.800781 129.148438 L 137.894531 146.300781 L 144.152344 126.007812 L 145.183594 126.324219 " fill-opacity="1" fill-rule="nonzero"/><path fill="#100f0d" d="M 159.0625 43.589844 C 157.296875 49.765625 153.261719 55.867188 153.261719 55.867188 C 153.261719 55.867188 152.082031 46.695312 147.363281 45.726562 C 142.65625 44.765625 118.160156 38.804688 104.589844 47.25 L 99.332031 45.316406 L 102.511719 48.636719 C 102.511719 48.636719 97.671875 69.425781 99.332031 74.832031 C 100.996094 80.238281 88.488281 72.542969 88.488281 72.542969 C 84.984375 65.960938 78.414062 51.875 82.167969 44.894531 C 87.003906 35.882812 96.289062 39.359375 96.816406 39.5625 C 96.492188 39.328125 93.140625 36.4375 105.972656 27.15625 C 111.507812 23.164062 117.984375 22.726562 124.730469 23.753906 C 109.726562 27.941406 103.226562 42.003906 103.148438 42.183594 L 104.140625 42.625 C 104.222656 42.449219 111.214844 27.347656 127.457031 24.238281 C 131.160156 24.988281 134.917969 26.09375 138.613281 27.214844 C 124.09375 30.335938 112.640625 37.964844 112.476562 38.074219 L 113.082031 38.972656 C 113.253906 38.859375 125.597656 30.640625 140.800781 27.875 C 145.121094 29.183594 149.335938 30.421875 153.261719 31.046875 C 159.789062 32.074219 160.585938 36.980469 159.429688 42.164062 C 157.949219 40.109375 156.089844 38.507812 153.859375 37.375 C 144.363281 32.546875 131.679688 37.800781 131.144531 38.023438 L 131.566406 39.023438 C 131.691406 38.96875 144.320312 33.742188 153.367188 38.34375 C 155.707031 39.53125 157.597656 41.300781 159.0625 43.589844 Z M 121.601562 98.332031 C 124.585938 100.851562 131.3125 105.808594 136.625 104.484375 C 141.828125 103.183594 143.675781 99.382812 144.289062 97.46875 C 141.679688 98.667969 134.449219 101.027344 121.601562 98.332031 Z M 134.738281 105.792969 C 127.601562 105.792969 119.667969 98.089844 119.300781 97.730469 L 117.898438 96.355469 L 119.804688 96.816406 C 137.003906 100.960938 144.730469 96.015625 144.808594 95.964844 L 145.816406 95.300781 L 145.640625 96.496094 C 145.632812 96.570312 144.535156 103.625 136.886719 105.535156 C 136.183594 105.714844 135.46875 105.792969 134.738281 105.792969 Z M 129.8125 92.1875 L 129.394531 91.1875 L 132.898438 89.707031 L 133.320312 90.710938 Z M 136.40625 92.566406 L 135.71875 91.730469 C 137.101562 90.578125 139.304688 88.316406 139.304688 87.160156 C 139.304688 85.917969 136.402344 80.285156 134.574219 77.019531 L 135.519531 76.488281 C 136.019531 77.378906 140.390625 85.226562 140.390625 87.160156 C 140.390625 89.203125 136.8125 92.226562 136.40625 92.566406 Z M 135.980469 123.269531 L 134.902344 123.128906 L 135.539062 118.4375 C 132.804688 117.917969 120.152344 115.410156 113.632812 112.316406 C 106.285156 108.824219 103.578125 98.089844 103.464844 97.636719 L 104.519531 97.375 C 104.542969 97.484375 107.222656 108.066406 114.101562 111.335938 C 121.148438 114.679688 136.089844 117.4375 136.242188 117.460938 L 136.75 117.554688 Z M 96.160156 82.386719 C 92.667969 77.269531 87.457031 79.375 87.40625 79.398438 L 86.984375 78.398438 C 87.042969 78.375 93.070312 75.933594 97.054688 81.773438 Z M 149.738281 59.84375 L 151.492188 63.171875 C 144.78125 60.925781 138.695312 65.640625 138.695312 65.640625 L 138.695312 62.679688 C 143.859375 56.957031 149.738281 59.84375 149.738281 59.84375 Z M 125.136719 66.007812 C 122.007812 62.679688 108.699219 64.621094 108.699219 64.621094 L 111.464844 61.480469 C 121.621094 57.785156 125.636719 63.605469 125.636719 63.605469 Z M 115.410156 78.523438 C 117.828125 69.332031 125.136719 74.625 125.136719 74.625 C 123.535156 80.839844 115.410156 78.523438 115.410156 78.523438 Z M 108.699219 71.871094 L 108.699219 70.71875 C 118.117188 66.796875 125.636719 73.488281 125.636719 73.488281 C 116.40625 68.214844 108.699219 71.871094 108.699219 71.871094 Z M 151.796875 69.199219 C 151.796875 69.199219 150.042969 67.667969 146.074219 68.546875 C 142.109375 69.425781 138.695312 73.164062 138.695312 73.164062 C 138.695312 73.164062 146.535156 68.265625 151.429688 69.933594 Z M 142.933594 77.757812 C 143.628906 69.515625 150.789062 72.066406 150.789062 72.066406 C 149.273438 78.222656 142.933594 77.757812 142.933594 77.757812 " fill-opacity="1" fill-rule="nonzero"/><path fill="#d57961" d="M 248.109375 189.363281 C 233.085938 186.683594 222.4375 161.476562 217.820312 148.191406 C 216.570312 151.777344 215.75 155.714844 215.429688 160.042969 C 211.558594 212.699219 269.320312 284.476562 269.320312 284.476562 L 274.339844 282.824219 Z M 472.984375 263.386719 L 442.199219 276.988281 C 442.199219 276.988281 412.289062 246.8125 405.652344 229.339844 C 405.652344 229.339844 390.023438 221.589844 379.386719 214.714844 C 382.628906 193.203125 401.410156 182.925781 413.875 178.421875 C 424.878906 196.222656 433.609375 212.289062 433.609375 212.289062 C 433.609375 212.289062 461.6875 231.5 472.984375 263.386719 " fill-opacity="1" fill-rule="nonzero"/><path fill="#100f0d" d="M 406 73.882812 C 401.179688 82.976562 395.832031 85.910156 392.996094 86.855469 C 390.117188 80.960938 402.136719 83.644531 402.046875 66.0625 C 402.015625 60.355469 400.898438 54.828125 398.929688 49.914062 C 403.890625 55.367188 410.660156 65.09375 406 73.882812 Z M 343.789062 40.707031 L 342.707031 40.832031 C 341.644531 31.242188 351.667969 27.925781 351.769531 27.890625 L 352.097656 28.925781 C 351.71875 29.050781 342.824219 32.011719 343.789062 40.707031 Z M 336.644531 40.109375 L 335.597656 39.835938 C 335.609375 39.785156 336.867188 34.710938 333.894531 30.398438 C 331.570312 27.039062 327.335938 24.996094 321.304688 24.328125 L 321.421875 23.253906 C 327.789062 23.953125 332.285156 26.152344 334.792969 29.796875 C 338.042969 34.519531 336.707031 39.882812 336.644531 40.109375 Z M 292.550781 24.703125 C 294.875 21.863281 298.292969 19.101562 303.28125 16.898438 C 317.21875 10.746094 323.871094 16.238281 326.1875 19.085938 C 324.234375 19.261719 322.246094 19.105469 320.308594 18.582031 C 311.753906 16.25 300.890625 18.664062 292.550781 24.703125 Z M 273.015625 81.242188 C 267.113281 87.765625 265.632812 95.238281 265.996094 101.898438 C 265.628906 99.714844 265.488281 97.476562 265.589844 95.234375 C 265.871094 89.203125 267.929688 84.007812 270.953125 81.675781 C 275.519531 78.15625 278.945312 72.644531 280.902344 68.9375 C 280.246094 72.015625 278.144531 75.574219 273.015625 81.242188 Z M 397.585938 46.917969 C 393.207031 38.152344 385.957031 31.964844 377.429688 31.457031 C 363.464844 30.625 366.886719 21.761719 351.933594 15.664062 C 343.925781 12.394531 337.371094 14.378906 333.011719 16.921875 C 331.257812 17.949219 329.359375 18.605469 327.40625 18.933594 C 325.242188 16.09375 318.066406 9.183594 302.847656 15.90625 C 295.867188 18.988281 291.847656 23.136719 289.554688 27.132812 C 284.515625 31.695312 280.835938 37.765625 279.898438 45.039062 C 278.414062 56.546875 280.945312 61.355469 281.132812 66.027344 C 279.6875 69.101562 275.785156 76.578125 270.292969 80.8125 C 267.023438 83.335938 264.804688 88.84375 264.511719 95.1875 C 264.265625 100.480469 265.273438 105.625 267.367188 110.222656 C 269.003906 116.257812 271.457031 120.414062 271.457031 120.414062 L 282.484375 123.246094 C 279.664062 116.886719 270.707031 94.441406 281.613281 88.078125 C 293.707031 81.015625 298.703125 65.398438 299.015625 57.210938 C 299.066406 55.824219 299.03125 54.347656 298.988281 52.785156 C 298.792969 45.039062 298.542969 35.390625 310.28125 30.3125 C 314.167969 28.628906 317.476562 28.585938 320.109375 30.183594 C 325.234375 33.300781 325.867188 41.472656 325.890625 41.816406 L 324.8125 41.894531 C 324.804688 41.816406 324.1875 33.933594 319.542969 31.113281 C 317.234375 29.710938 314.257812 29.773438 310.710938 31.308594 C 299.644531 36.101562 299.875 44.949219 300.070312 52.757812 C 300.113281 54.335938 300.152344 55.828125 300.101562 57.253906 C 299.78125 65.667969 294.625 81.734375 282.15625 89.011719 C 271.671875 95.136719 281.691406 118.847656 283.835938 123.59375 L 288.929688 124.902344 C 288.257812 118.300781 287.316406 106.628906 288.363281 100.765625 C 289.898438 92.15625 299.4375 91.617188 299.53125 91.613281 L 299.582031 92.695312 C 299.226562 92.714844 290.8125 93.207031 289.429688 100.957031 C 288.402344 106.734375 289.394531 118.714844 290.054688 125.191406 L 380.964844 148.539062 C 379.535156 143.582031 376.660156 132.003906 376.890625 119.988281 C 377.074219 110.191406 381.332031 106.425781 384.4375 103.675781 C 386.53125 101.824219 388.039062 100.492188 387.941406 98.0625 C 387.832031 95.4375 386.578125 93.589844 385.128906 91.441406 C 383.042969 88.359375 380.679688 84.871094 381.433594 78.265625 C 381.890625 74.28125 383.972656 70.824219 385.988281 67.480469 C 389.664062 61.378906 393.136719 55.613281 387.335938 46.859375 C 385.273438 43.746094 382.492188 41.863281 379.078125 41.269531 C 370.007812 39.691406 359.269531 47.605469 359.164062 47.6875 L 358.515625 46.816406 C 358.945312 46.496094 368.632812 39.367188 377.761719 40.03125 C 364.148438 34.191406 349.402344 42.828125 349.242188 42.925781 L 348.683594 41.992188 C 348.863281 41.886719 366.707031 31.402344 381.707031 40.871094 C 384.320312 41.859375 386.511719 43.660156 388.242188 46.261719 C 394.417969 55.585938 390.605469 61.917969 386.914062 68.039062 C 384.964844 71.28125 382.941406 74.640625 382.515625 78.386719 C 381.804688 84.59375 383.949219 87.765625 386.027344 90.832031 C 387.503906 93.019531 388.902344 95.085938 389.023438 98.015625 C 389.144531 100.960938 387.296875 102.597656 385.15625 104.488281 C 382.035156 107.253906 378.152344 110.6875 377.972656 120.011719 C 377.734375 132.425781 380.859375 144.367188 382.183594 148.855469 L 390.144531 150.898438 C 390.144531 150.898438 380.453125 133.992188 393.464844 121.695312 C 406.058594 109.792969 397.144531 94.214844 393.53125 87.847656 C 396.632812 86.789062 402.042969 83.660156 406.957031 74.390625 C 412.75 63.460938 402.503906 51.675781 397.585938 46.917969 " fill-opacity="1" fill-rule="nonzero"/><path fill="#ffffff" d="M 397.066406 286.039062 L 324.644531 269.789062 L 335.65625 243.457031 C 335.65625 243.457031 339.570312 221.175781 329.691406 220.957031 C 324.988281 220.847656 318.710938 225.632812 317.046875 236.671875 C 315.21875 248.800781 318.25 267.296875 318.25 267.296875 L 278.015625 281.613281 L 274.339844 282.824219 L 248.109375 189.363281 C 233.085938 186.683594 222.4375 161.476562 217.820312 148.191406 C 231.550781 108.261719 296.832031 112.929688 296.832031 112.929688 L 357.441406 126.191406 C 357.441406 126.191406 381.839844 131.5 398.722656 155.332031 C 403.851562 162.574219 409.078125 170.660156 413.875 178.421875 C 401.410156 182.925781 382.628906 193.203125 379.386719 214.714844 C 375.523438 212.21875 372.316406 209.832031 370.753906 207.988281 L 356.546875 234.039062 C 356.546875 234.039062 387.925781 260.71875 397.066406 286.039062 " fill-opacity="1" fill-rule="nonzero"/><path fill="#3e5bb2" d="M 314.140625 219.488281 L 283.824219 205.953125 L 300.429688 160.316406 L 323.28125 166.554688 L 314.140625 219.488281 " fill-opacity="1" fill-rule="nonzero"/><path fill="#100f0d" d="M 356.285156 233.390625 L 351.539062 231.929688 L 351.222656 232.96875 L 356.28125 234.519531 C 357.890625 235.90625 387.011719 261.226562 396.210938 285.289062 L 325.394531 269.402344 L 336.15625 243.667969 L 336.183594 243.550781 C 336.300781 242.929688 338.816406 228.238281 334.195312 222.601562 C 333.039062 221.191406 331.523438 220.457031 329.703125 220.414062 C 324.367188 220.324219 318.136719 225.808594 316.511719 236.585938 C 314.847656 247.613281 317.199219 264.023438 317.644531 266.933594 L 277.84375 281.097656 L 274.707031 282.128906 L 248.628906 189.21875 C 242.984375 167.335938 267.605469 148.8125 267.851562 148.628906 L 267.214844 147.757812 C 266.957031 147.941406 242.398438 166.429688 247.398438 188.644531 C 245.34375 188.164062 243.367188 187.257812 241.484375 186.011719 L 245.84375 174.484375 L 244.828125 174.097656 L 240.5625 185.375 C 236.917969 182.714844 233.613281 178.808594 230.691406 174.363281 L 239.65625 163.71875 L 238.832031 163.019531 L 230.074219 173.40625 C 227.601562 169.515625 225.410156 165.261719 223.523438 161.089844 L 231.460938 153.144531 L 230.695312 152.378906 L 223.046875 160.03125 C 221.175781 155.804688 219.617188 151.699219 218.390625 148.191406 C 231.964844 109.304688 296.140625 113.425781 296.71875 113.457031 L 357.324219 126.722656 C 357.566406 126.773438 381.722656 132.273438 398.28125 155.648438 C 402.785156 162.007812 407.757812 169.570312 413.0625 178.140625 C 410.832031 178.964844 408.324219 180.019531 405.703125 181.328125 L 399.683594 175.296875 L 398.917969 176.066406 L 404.6875 181.839844 C 401.035156 183.734375 397.210938 186.140625 393.644531 189.136719 L 386.78125 182.515625 L 386.03125 183.300781 L 392.8125 189.84375 C 389.402344 192.832031 386.277344 196.390625 383.800781 200.601562 L 376.589844 196.027344 L 376.007812 196.941406 L 383.261719 201.542969 C 381.273438 205.152344 379.773438 209.21875 378.984375 213.804688 C 375.121094 211.269531 372.5 209.203125 371.1875 207.652344 L 364.296875 196.886719 L 363.382812 197.472656 L 370.128906 208.007812 Z M 379.09375 215.175781 L 379.800781 215.628906 L 379.921875 214.796875 C 383.1875 193.148438 402.710938 183.03125 414.054688 178.933594 L 414.6875 178.703125 L 414.335938 178.136719 C 408.882812 169.3125 403.78125 161.535156 399.167969 155.019531 C 382.355469 131.289062 357.800781 125.714844 357.554688 125.664062 L 296.871094 112.386719 C 296.214844 112.339844 231.011719 108.152344 217.304688 148.015625 L 217.246094 148.191406 L 217.308594 148.371094 C 222.261719 162.617188 232.765625 186.839844 247.675781 189.832031 L 273.96875 283.519531 L 278.195312 282.121094 L 318.855469 267.652344 L 318.78125 267.207031 C 318.753906 267.023438 315.789062 248.660156 317.585938 236.75 C 319.113281 226.59375 324.835938 221.390625 329.679688 221.5 C 331.191406 221.535156 332.394531 222.121094 333.355469 223.292969 C 337.523438 228.367188 335.300781 242.285156 335.128906 243.304688 L 323.894531 270.179688 L 397.910156 286.785156 L 397.574219 285.851562 C 388.996094 262.097656 360.648438 236.886719 357.234375 233.914062 L 370.871094 208.917969 C 372.453125 210.566406 375.214844 212.664062 379.09375 215.175781 " fill-opacity="1" fill-rule="nonzero"/><path fill="#d57961" d="M 377.261719 94.222656 C 375.746094 102.398438 366.050781 107.945312 363.144531 107.53125 C 363.144531 107.53125 356.503906 117.648438 351.929688 121.382812 L 359.40625 127.902344 C 359.40625 127.902344 341.824219 156.160156 326.042969 153.53125 L 323.28125 166.554688 C 323.28125 166.554688 305.832031 170.574219 300.429688 160.316406 L 305.007812 148.125 C 305.007812 148.125 289.359375 139.957031 296.832031 112.929688 L 303.066406 111.546875 C 303.066406 111.546875 301.265625 107.804688 300.984375 99.632812 C 300.984375 99.632812 300.949219 98.929688 300.9375 97.699219 C 293.828125 94.085938 294.527344 79.683594 297.390625 78.015625 C 299.394531 76.84375 301.09375 78.601562 302.125 80.175781 C 303.050781 73.863281 304.660156 66.84375 307.445312 60.46875 L 307.445312 61.109375 C 307.445312 61.109375 313.03125 54.320312 319.949219 50.855469 C 326.878906 47.390625 359.132812 52.796875 363.566406 67.625 C 367.988281 82.449219 366.234375 92.15625 366.234375 92.15625 L 369.519531 89.796875 C 369.519531 89.796875 378.792969 86.054688 377.261719 94.222656 " fill-opacity="1" fill-rule="nonzero"/><path fill="#ffffff" d="M 323.554688 91.59375 C 323.554688 91.59375 321.203125 79.675781 312.203125 80.921875 C 303.203125 82.175781 313.445312 100.691406 323.554688 91.59375 Z M 338.089844 94.363281 C 338.089844 94.363281 345.5625 83.695312 354.011719 89.652344 C 362.457031 95.609375 346.398438 108.359375 338.089844 94.363281 " fill-opacity="1" fill-rule="nonzero"/><path fill="#100f0d" d="M 359.988281 65.304688 C 361.226562 65.832031 362.160156 67.308594 361.949219 68.394531 C 361.757812 69.382812 360.65625 69.613281 359.769531 69.628906 C 358.738281 69.644531 358.085938 69.375 357.746094 68.792969 C 357.296875 68.03125 357.390625 66.8125 357.726562 65.511719 C 358.441406 65.050781 359.210938 64.972656 359.988281 65.304688 Z M 325.351562 41.851562 C 316.675781 45.003906 311.070312 52.191406 307.445312 60.46875 L 305.972656 62.980469 C 305.972656 62.980469 312.269531 55.257812 318.796875 51.480469 C 318.972656 51.632812 319.164062 51.796875 319.359375 51.957031 C 318.714844 53.851562 318.171875 56.515625 319.199219 58.558594 C 319.945312 60.042969 321.378906 60.957031 323.472656 61.277344 L 323.636719 60.203125 C 321.914062 59.941406 320.746094 59.222656 320.167969 58.070312 C 319.378906 56.5 319.742188 54.375 320.261719 52.707031 C 323.0625 55.023438 326.824219 57.980469 330.0625 59.992188 C 329.582031 61.277344 329.316406 62.734375 329.699219 64.125 C 330.203125 65.960938 331.726562 67.320312 334.222656 68.171875 L 334.570312 67.140625 C 332.4375 66.417969 331.152344 65.308594 330.746094 63.835938 C 330.453125 62.773438 330.644531 61.621094 331.015625 60.5625 C 331.824219 61.035156 332.589844 61.425781 333.277344 61.710938 C 333.566406 63.015625 334.355469 65.390625 336.402344 66.890625 C 337.59375 67.757812 339.027344 68.199219 340.679688 68.199219 C 341.433594 68.199219 342.234375 68.105469 343.082031 67.925781 L 342.851562 66.859375 C 340.484375 67.378906 338.523438 67.09375 337.050781 66.015625 C 335.585938 64.953125 334.863281 63.308594 334.511719 62.125 C 339.1875 63.265625 351.359375 62.074219 358.1875 61.261719 C 357.714844 62.234375 357.148438 63.523438 356.773438 64.859375 C 356.398438 65.15625 356.023438 65.554688 355.65625 66.074219 C 354.652344 67.496094 354.375 68.925781 354.828125 70.316406 C 355.996094 73.921875 361.753906 75.910156 362 75.992188 L 362.347656 74.964844 C 362.292969 74.945312 356.859375 73.066406 355.855469 69.980469 C 355.535156 68.992188 355.703125 67.996094 356.378906 66.945312 C 356.316406 67.847656 356.421875 68.683594 356.808594 69.34375 C 357.359375 70.28125 358.347656 70.734375 359.792969 70.714844 C 362.339844 70.664062 362.894531 69.222656 363.011719 68.605469 C 363.324219 67.007812 362.136719 65.042969 360.410156 64.308594 C 359.964844 64.113281 359.128906 63.871094 358.152344 64.132812 C 358.542969 63.042969 359.03125 61.988281 359.449219 61.175781 C 361.394531 63.082031 362.851562 65.226562 363.566406 67.625 C 367.988281 82.449219 366.234375 92.15625 366.234375 92.15625 L 369.519531 89.796875 C 382.390625 61.660156 352.070312 32.152344 325.351562 41.851562 " fill-opacity="1" fill-rule="nonzero"/><path fill="#100f0d" d="M 333.730469 122.210938 L 333.40625 121.175781 C 326.523438 123.375 321.941406 121.226562 321.894531 121.207031 L 321.425781 122.183594 C 321.558594 122.25 323.699219 123.261719 327.261719 123.261719 C 329.078125 123.261719 331.261719 123 333.730469 122.210938 Z M 235.84375 181.445312 L 228.183594 179.714844 L 227.945312 180.777344 L 235.609375 182.507812 Z M 422.804688 218.21875 L 421.71875 218.21875 L 421.71875 224.800781 L 422.804688 224.800781 Z M 350.792969 122.753906 L 348.792969 127.699219 L 349.800781 128.105469 L 353.089844 119.976562 L 351.632812 120.929688 C 351.457031 121.050781 333.539062 132.746094 325.738281 131.152344 C 317.308594 129.425781 310.042969 122.929688 303.539062 111.28125 L 302.324219 109.109375 L 302.957031 116.949219 L 304.039062 116.859375 L 303.800781 113.902344 C 310.167969 124.53125 317.289062 130.53125 325.523438 132.21875 C 326.082031 132.332031 326.683594 132.386719 327.324219 132.382812 C 334.660156 132.382812 346.652344 125.332031 350.792969 122.753906 Z M 316.839844 98.035156 C 316.609375 98.035156 316.421875 98.222656 316.421875 98.457031 C 316.421875 98.683594 316.609375 98.867188 316.839844 98.867188 C 317.066406 98.867188 317.253906 98.683594 317.253906 98.457031 C 317.253906 98.222656 317.066406 98.035156 316.839844 98.035156 Z M 311.855469 98.035156 C 311.546875 98.035156 311.300781 98.285156 311.300781 98.589844 C 311.300781 98.894531 311.546875 99.148438 311.855469 99.148438 C 312.160156 99.148438 312.40625 98.894531 312.40625 98.589844 C 312.40625 98.285156 312.160156 98.035156 311.855469 98.035156 Z M 308.09375 92.785156 C 307.734375 92.785156 307.445312 93.078125 307.445312 93.433594 C 307.445312 93.792969 307.734375 94.085938 308.09375 94.085938 C 308.453125 94.085938 308.738281 93.792969 308.738281 93.433594 C 308.738281 93.078125 308.453125 92.785156 308.09375 92.785156 Z M 350.78125 103.527344 C 350.5 103.527344 350.273438 103.753906 350.273438 104.039062 C 350.273438 104.320312 350.5 104.546875 350.78125 104.546875 C 351.0625 104.546875 351.289062 104.320312 351.289062 104.039062 C 351.289062 103.753906 351.0625 103.527344 350.78125 103.527344 Z M 346.207031 106.488281 C 345.851562 106.488281 345.5625 106.777344 345.5625 107.128906 C 345.5625 107.484375 345.851562 107.769531 346.207031 107.769531 C 346.558594 107.769531 346.847656 107.484375 346.847656 107.128906 C 346.847656 106.777344 346.558594 106.488281 346.207031 106.488281 Z M 341.707031 102.816406 C 341.316406 102.816406 340.996094 103.136719 340.996094 103.527344 C 340.996094 103.921875 341.316406 104.238281 341.707031 104.238281 C 342.097656 104.238281 342.414062 103.921875 342.414062 103.527344 C 342.414062 103.136719 342.097656 102.816406 341.707031 102.816406 Z M 324.636719 77.230469 C 324.636719 77.230469 324.570312 73.070312 323.117188 72.105469 C 321.664062 71.132812 313.632812 66.558594 312.59375 68.433594 C 311.554688 70.300781 312.59375 73.558594 313.980469 73.765625 C 315.363281 73.972656 324.945312 79.894531 324.636719 77.230469 Z M 344.808594 76.03125 C 344.03125 76.136719 343.292969 76.425781 342.652344 76.882812 C 341.132812 77.980469 338.640625 80.050781 340.480469 80.714844 C 343.03125 81.640625 353.546875 81.363281 354.839844 79.75 C 356.101562 78.167969 361.074219 73.804688 344.808594 76.03125 Z M 301.714844 88.535156 C 301.617188 83.941406 298.464844 80.597656 298.335938 80.457031 L 297.550781 81.207031 C 297.582031 81.242188 300.542969 84.382812 300.632812 88.554688 Z M 375.246094 93.335938 L 375.320312 92.253906 C 375.253906 92.242188 368.730469 91.863281 365.75 98.308594 L 366.730469 98.765625 C 369.394531 93.011719 375.003906 93.3125 375.246094 93.335938 Z M 341.503906 116.363281 C 341.140625 116.34375 339.738281 115.390625 338.441406 114.273438 L 337.738281 115.101562 C 338.019531 115.34375 338.449219 115.699219 338.921875 116.054688 C 335.46875 117.203125 324.378906 120.09375 315.429688 113.605469 L 314.792969 114.480469 C 319.355469 117.792969 324.433594 118.777344 328.859375 118.777344 C 334.277344 118.777344 338.699219 117.308594 340.015625 116.824219 C 340.589844 117.183594 341.132812 117.449219 341.503906 117.449219 Z M 331.804688 109.410156 L 327.375 106.917969 L 326.839844 107.863281 L 331.269531 110.355469 Z M 322.78125 107.949219 C 321.894531 107.382812 321.449219 106.734375 321.414062 105.964844 C 321.332031 104.089844 323.734375 101.835938 324.667969 101.121094 L 324.011719 100.257812 C 323.855469 100.375 320.210938 103.1875 320.332031 106.011719 C 320.378906 107.152344 321.011719 108.109375 322.203125 108.863281 Z M 315.753906 80.324219 C 308.738281 79.121094 307.445312 78.015625 307.445312 78.015625 C 307.445312 78.015625 308.164062 82.898438 309.191406 82.855469 C 309.191406 82.855469 313.261719 81.089844 316.957031 82.261719 C 318.417969 82.730469 319.753906 84.292969 320.835938 86.007812 C 320.789062 86.007812 313.839844 85.882812 313.785156 92.953125 C 313.785156 92.953125 318.640625 96.859375 323.554688 91.59375 C 323.554688 91.59375 322.769531 81.527344 315.753906 80.324219 Z M 359.5 88.914062 C 359.5 88.914062 358.667969 93.351562 356.824219 93.441406 C 356.824219 93.441406 356.667969 93.011719 356.308594 92.429688 L 356.824219 93.441406 C 354.519531 103.121094 346.105469 100.554688 346.105469 100.554688 C 346.398438 90.496094 353.828125 91.03125 355.433594 91.265625 C 354.226562 89.941406 352.136719 88.628906 348.796875 89.285156 C 342.703125 90.484375 338.089844 94.363281 338.089844 94.363281 C 338.089844 94.363281 341.042969 88.601562 346.765625 87.464844 C 352.484375 86.328125 354.613281 89.839844 359.5 88.914062 " fill-opacity="1" fill-rule="nonzero"/><path fill="#100f0d" d="M 294.882812 118.769531 L 287.453125 117.726562 L 287.300781 118.796875 L 294.734375 119.84375 Z M 299.0625 144.082031 L 292.097656 148.929688 L 292.714844 149.820312 L 299.683594 144.972656 Z M 363.574219 141.671875 L 364.105469 140.726562 L 354.796875 135.472656 C 357.757812 131.597656 359.640625 128.558594 359.867188 128.183594 L 358.941406 127.617188 C 358.765625 127.90625 341.328125 156.074219 326.152344 153 L 325.621094 152.890625 L 319.007812 185.523438 L 320.070312 185.742188 L 326.472656 154.160156 C 328.828125 154.535156 331.203125 154.234375 333.550781 153.46875 L 335.601562 160.609375 L 336.640625 160.3125 L 334.570312 153.097656 C 337.183594 152.089844 339.746094 150.523438 342.179688 148.648438 L 347.203125 155.652344 L 348.082031 155.015625 L 343.03125 147.972656 C 345.035156 146.339844 346.949219 144.527344 348.710938 142.664062 L 354.863281 149.195312 L 355.648438 148.449219 L 349.449219 141.871094 C 351.175781 139.992188 352.757812 138.097656 354.128906 136.34375 Z M 305.253906 147.640625 L 305.683594 147.863281 L 294.246094 178.609375 L 293.230469 178.234375 L 304.332031 148.386719 C 299.578125 145.816406 296.914062 141.746094 295.511719 137.265625 L 288.015625 138.941406 L 287.777344 137.886719 L 295.199219 136.222656 C 294.515625 133.644531 294.226562 130.964844 294.175781 128.371094 L 286.390625 127.464844 L 286.511719 126.386719 L 294.164062 127.277344 C 294.207031 119.542969 296.273438 112.894531 296.316406 112.761719 L 297.347656 113.089844 C 297.265625 113.355469 289.15625 139.453125 305.253906 147.640625 " fill-opacity="1" fill-rule="nonzero"/><path fill="#3e5bb2" d="M 304.457031 115.066406 C 304.457031 117.757812 302.273438 119.941406 299.582031 119.941406 C 296.890625 119.941406 294.710938 117.757812 294.710938 115.066406 C 294.710938 112.371094 296.890625 110.1875 299.582031 110.1875 C 302.273438 110.1875 304.457031 112.371094 304.457031 115.066406 Z M 308.421875 125.242188 C 308.421875 127.9375 306.246094 130.121094 303.550781 130.121094 C 300.859375 130.121094 298.679688 127.9375 298.679688 125.242188 C 298.679688 122.550781 300.859375 120.367188 303.550781 120.367188 C 306.246094 120.367188 308.421875 122.550781 308.421875 125.242188 Z M 314.125 134.132812 C 314.125 136.824219 311.941406 139.007812 309.25 139.007812 C 306.5625 139.007812 304.378906 136.824219 304.378906 134.132812 C 304.378906 131.4375 306.5625 129.257812 309.25 129.257812 C 311.941406 129.257812 314.125 131.4375 314.125 134.132812 Z M 355.308594 129.589844 C 355.308594 132.285156 353.128906 134.46875 350.4375 134.46875 C 347.746094 134.46875 345.5625 132.285156 345.5625 129.589844 C 345.5625 126.894531 347.746094 124.710938 350.4375 124.710938 C 353.128906 124.710938 355.308594 126.894531 355.308594 129.589844 Z M 346.375 136.640625 C 346.375 139.332031 344.195312 141.515625 341.503906 141.515625 C 338.816406 141.515625 336.632812 139.332031 336.632812 136.640625 C 336.632812 133.941406 338.816406 131.757812 341.503906 131.757812 C 344.195312 131.757812 346.375 133.941406 346.375 136.640625 Z M 336.121094 140.09375 C 336.121094 142.789062 333.941406 144.972656 331.25 144.972656 C 328.558594 144.972656 326.375 142.789062 326.375 140.09375 C 326.375 137.402344 328.558594 135.21875 331.25 135.21875 C 333.941406 135.21875 336.121094 137.402344 336.121094 140.09375 Z M 319.734375 135.707031 C 317.046875 135.707031 314.863281 137.890625 314.863281 140.582031 C 314.863281 143.277344 317.046875 145.460938 319.734375 145.460938 C 322.425781 145.460938 324.609375 143.277344 324.609375 140.582031 C 324.609375 137.890625 322.425781 135.707031 319.734375 135.707031 Z M 370.925781 89.34375 L 368.714844 90.375 C 372.84375 81.921875 372.304688 69.832031 367.589844 60.527344 C 362.445312 50.367188 353.183594 43.621094 341.515625 41.527344 C 316.421875 37.023438 305.722656 64.90625 305.628906 65.167969 L 305.230469 62.542969 C 305.328125 62.257812 315.007812 34.570312 341.898438 39.390625 C 354.25 41.605469 364.0625 48.765625 369.523438 59.542969 C 374.617188 69.59375 375.414062 80.15625 370.925781 89.34375 " fill-opacity="1" fill-rule="nonzero"/><path fill="#100f0d" d="M 481.367188 354.746094 L 372.695312 382.933594 L 287.566406 405.011719 L 261.074219 411.878906 L 228.21875 420.402344 L 38.917969 469.503906 L 38.648438 468.464844 L 227.339844 419.511719 L 260.339844 410.957031 L 287.070312 404.023438 L 372.695312 381.8125 L 481.097656 353.691406 L 481.367188 354.746094 " fill-opacity="1" fill-rule="nonzero"/><path fill="#100f0d" d="M 218.753906 422.503906 C 218.449219 421.9375 188.417969 365.53125 201.625 325.136719 C 214.875 284.613281 284.09375 278.308594 284.792969 278.25 L 284.882812 279.332031 C 284.191406 279.390625 215.6875 285.636719 202.660156 325.46875 C 189.59375 365.425781 219.40625 421.425781 219.710938 421.988281 L 218.753906 422.503906 " fill-opacity="1" fill-rule="nonzero"/><path fill="#100f0d" d="M 333.566406 191.171875 C 330.328125 183.484375 324.824219 183.453125 321.367188 184.371094 C 323.222656 183.019531 325.792969 181.800781 328.339844 182.808594 C 333.875 184.992188 339.691406 197.265625 338.65625 240.460938 C 337.566406 218.742188 335.914062 196.742188 333.566406 191.171875 Z M 333.207031 241.398438 C 333.207031 244.601562 330.582031 247.21875 327.382812 247.21875 C 327.097656 247.21875 326.820312 247.199219 326.546875 247.152344 C 323.746094 246.753906 319.628906 245.175781 319.628906 242.257812 L 320.371094 235.789062 C 320.371094 232.59375 323.882812 228.214844 327.074219 228.214844 C 328.179688 228.214844 329.53125 230.070312 330.417969 230.621094 C 330.808594 230.847656 331.164062 231.132812 331.492188 231.460938 C 332.554688 232.519531 333.207031 233.972656 333.207031 235.574219 Z M 315.46875 184.257812 C 306.402344 179.890625 298.550781 177.539062 291.773438 176.847656 C 302.785156 176.785156 311.464844 181.5625 315.46875 184.257812 Z M 340.398438 288.90625 C 340.398438 288.90625 340.050781 272.796875 339.25 253.570312 C 341.398438 209.535156 337.871094 185.398438 328.734375 181.796875 C 324.175781 180 319.835938 183.992188 318.363281 185.566406 C 318.289062 185.605469 318.25 185.632812 318.25 185.632812 L 318.601562 185.222656 C 318.421875 185.066406 302.597656 171.589844 282.046875 177.054688 C 232.214844 185.238281 257.890625 306.089844 257.890625 306.089844 L 288.964844 299.617188 C 283.492188 290.3125 283.851562 280.675781 283.859375 280.507812 L 285.113281 279.855469 C 285.105469 280.019531 284.683594 289.96875 290.28125 299.34375 L 335.320312 289.960938 C 336.066406 281.691406 335.320312 274.542969 335.320312 274.542969 L 336.320312 274.796875 C 336.382812 275.339844 337.105469 281.945312 336.476562 289.722656 L 340.398438 288.90625 " fill-opacity="1" fill-rule="nonzero"/><path fill="#ffffff" d="M 269.839844 295.035156 C 269.714844 294.621094 257.714844 253.175781 259.351562 220.578125 C 260.96875 188.433594 286.320312 188.371094 287.367188 188.390625 L 287.382812 187.304688 C 287.382812 187.304688 287.371094 187.304688 287.367188 187.304688 C 286.554688 187.304688 259.921875 187.652344 258.269531 220.519531 C 256.621094 253.304688 268.675781 294.921875 268.796875 295.34375 Z M 279.371094 289.945312 L 270.929688 253.183594 L 271.984375 252.941406 L 280.429688 289.703125 L 279.371094 289.945312 " fill-opacity="1" fill-rule="nonzero"/><g clip-path="url(#0bf733f4dd)"><path fill="#ffffff" d="M 281.425781 467.066406 C 281.425781 467.066406 273.140625 471.699219 281.425781 482.695312 C 289.710938 493.691406 315.269531 504.902344 324.652344 496.960938 C 334.042969 489.023438 326.925781 464.261719 303.242188 459.714844 C 279.558594 455.15625 281.425781 467.066406 281.425781 467.066406 Z M 459.359375 375.371094 L 447.132812 406.421875 L 332.890625 438.277344 C 326.765625 441.324219 324.964844 437.910156 324.964844 437.910156 C 324.964844 437.910156 311.992188 410.96875 309.886719 408.042969 C 307.78125 405.121094 311.972656 403.261719 311.972656 403.261719 L 357.054688 390.5625 L 438.523438 370.285156 L 459.359375 375.371094 " fill-opacity="1" fill-rule="nonzero"/></g><g clip-path="url(#ca47a59c93)"><path fill="#100f0d" d="M 324.308594 496.550781 C 324.035156 496.777344 323.738281 496.984375 323.433594 497.179688 C 322.570312 494.082031 319.351562 483.558594 314.828125 481.511719 C 320.03125 479.402344 325.140625 479.535156 326.792969 479.648438 C 327.023438 480.292969 327.226562 480.929688 327.390625 481.550781 C 329.027344 487.804688 327.84375 493.554688 324.308594 496.550781 Z M 312.8125 498.921875 C 309.546875 498.558594 306 497.617188 302.464844 496.285156 C 304.332031 488.695312 308.660156 484.515625 313.199219 482.242188 C 313.230469 482.242188 313.257812 482.242188 313.292969 482.242188 C 317.371094 482.242188 321.171875 493.011719 322.460938 497.726562 C 320.015625 498.945312 316.738281 499.363281 312.8125 498.921875 Z M 281.855469 482.371094 C 278.980469 478.550781 277.832031 475.132812 278.441406 472.203125 C 279.097656 469.039062 281.667969 467.550781 281.691406 467.539062 L 282.019531 467.351562 L 281.957031 466.984375 C 281.953125 466.953125 281.566406 464.261719 283.828125 462.074219 C 285.324219 460.628906 288.195312 459.222656 293.726562 459.222656 C 296.265625 459.222656 299.359375 459.519531 303.140625 460.242188 C 315.914062 462.703125 323.339844 471.070312 326.382812 478.554688 C 324.113281 478.480469 318.5625 478.609375 313.171875 481.15625 C 313.164062 481.15625 313.160156 481.15625 313.152344 481.15625 L 313.152344 481.167969 C 308.238281 483.5 303.472656 487.847656 301.453125 495.890625 C 293.492188 492.710938 285.785156 487.582031 281.855469 482.371094 Z M 328.441406 481.277344 C 326.242188 472.886719 318.355469 462.066406 303.347656 459.179688 C 293.335938 457.253906 286.511719 457.964844 283.074219 461.292969 C 280.902344 463.390625 280.804688 465.863281 280.859375 466.785156 C 280.070312 467.320312 278.015625 468.96875 277.382812 471.960938 C 276.703125 475.214844 277.914062 478.9375 280.992188 483.023438 C 286.980469 490.96875 301.496094 498.746094 312.691406 500 C 313.753906 500.117188 314.777344 500.179688 315.746094 500.179688 C 319.652344 500.179688 322.820312 499.226562 325.003906 497.375 C 328.863281 494.109375 330.183594 487.941406 328.441406 481.277344 Z M 437.105469 377.511719 L 430.097656 379.46875 L 428.226562 375.828125 L 434.605469 374.039062 C 434.949219 373.941406 435.390625 374.167969 435.578125 374.550781 Z M 439.558594 382.289062 L 432.554688 384.25 L 430.589844 380.421875 L 437.59375 378.460938 Z M 441.890625 386.820312 L 434.886719 388.785156 L 433.042969 385.203125 L 440.046875 383.238281 Z M 444.222656 391.359375 L 437.214844 393.320312 L 435.375 389.738281 L 442.378906 387.773438 Z M 446.042969 394.90625 C 446.238281 395.285156 446.113281 395.667969 445.773438 395.765625 L 439.390625 397.550781 L 437.707031 394.273438 L 444.707031 392.3125 Z M 429.234375 379.714844 L 424.988281 380.902344 L 423.117188 377.257812 L 427.359375 376.070312 Z M 431.6875 384.492188 L 427.445312 385.679688 L 425.480469 381.855469 L 429.722656 380.664062 Z M 434.019531 389.03125 L 429.777344 390.21875 L 427.933594 386.632812 L 432.179688 385.449219 Z M 436.351562 393.5625 L 432.105469 394.753906 L 430.261719 391.167969 L 434.507812 389.980469 Z M 438.523438 397.796875 L 434.277344 398.984375 L 432.59375 395.703125 L 436.835938 394.515625 Z M 424.121094 381.144531 L 419.675781 382.390625 L 417.804688 378.75 L 422.25 377.503906 Z M 426.578125 385.925781 L 422.132812 387.171875 L 420.164062 383.34375 L 424.613281 382.097656 Z M 428.90625 390.460938 L 424.464844 391.707031 L 422.621094 388.121094 L 427.070312 386.875 Z M 431.238281 394.996094 L 426.792969 396.242188 L 424.953125 392.660156 L 429.398438 391.414062 Z M 433.414062 399.226562 L 428.96875 400.472656 L 427.285156 397.191406 L 431.730469 395.949219 Z M 418.808594 382.636719 L 414.710938 383.78125 L 412.839844 380.136719 L 416.9375 378.988281 Z M 421.265625 387.414062 L 417.167969 388.558594 L 415.203125 384.734375 L 419.300781 383.585938 Z M 423.597656 391.945312 L 419.5 393.097656 L 417.660156 389.511719 L 421.753906 388.363281 Z M 425.925781 396.488281 L 421.832031 397.632812 L 419.992188 394.050781 L 424.085938 392.902344 Z M 428.101562 400.714844 L 424.007812 401.863281 L 422.320312 398.582031 L 426.417969 397.4375 Z M 413.847656 384.023438 L 409.957031 385.117188 L 408.082031 381.46875 L 411.976562 380.382812 Z M 416.304688 388.804688 L 412.414062 389.894531 L 410.445312 386.066406 L 414.335938 384.976562 Z M 418.636719 393.339844 L 414.742188 394.425781 L 412.898438 390.84375 L 416.792969 389.753906 Z M 420.964844 397.875 L 417.074219 398.964844 L 415.230469 395.382812 L 419.121094 394.292969 Z M 423.136719 402.105469 L 419.25 403.195312 L 417.5625 399.917969 L 421.457031 398.828125 Z M 409.085938 385.359375 L 405.25 386.433594 L 403.378906 382.789062 L 407.214844 381.710938 Z M 411.542969 390.136719 L 407.707031 391.214844 L 405.742188 387.386719 L 409.578125 386.3125 Z M 413.875 394.671875 L 410.035156 395.746094 L 408.195312 392.164062 L 412.03125 391.089844 Z M 416.203125 399.210938 L 412.367188 400.285156 L 410.527344 396.699219 L 414.367188 395.625 Z M 418.382812 403.441406 L 414.542969 404.515625 L 412.859375 401.238281 L 416.695312 400.160156 Z M 404.386719 386.675781 L 399.992188 387.90625 L 398.121094 384.261719 L 402.507812 383.03125 Z M 406.839844 391.457031 L 402.449219 392.683594 L 400.484375 388.855469 L 404.871094 387.632812 Z M 409.167969 395.992188 L 404.78125 397.222656 L 402.941406 393.640625 L 407.328125 392.410156 Z M 411.5 400.527344 L 407.109375 401.757812 L 405.269531 398.171875 L 409.660156 396.941406 Z M 413.675781 404.761719 L 409.285156 405.988281 L 407.601562 402.707031 L 411.988281 401.476562 Z M 399.128906 388.148438 L 394.789062 389.363281 L 392.917969 385.71875 L 397.257812 384.507812 Z M 401.582031 392.925781 L 397.246094 394.144531 L 395.28125 390.316406 L 399.617188 389.101562 Z M 403.910156 397.464844 L 399.578125 398.679688 L 397.738281 395.097656 L 402.074219 393.878906 Z M 406.246094 402 L 401.910156 403.214844 L 400.070312 399.628906 L 404.402344 398.417969 Z M 408.417969 406.230469 L 404.085938 407.449219 L 402.398438 404.167969 L 406.730469 402.953125 Z M 393.921875 389.605469 L 360.003906 399.113281 L 358.128906 395.464844 L 392.054688 385.960938 Z M 396.378906 394.386719 L 392.046875 395.601562 L 390.082031 391.773438 L 394.414062 390.5625 Z M 398.710938 398.921875 L 394.375 400.132812 L 392.535156 396.550781 L 396.871094 395.339844 Z M 401.042969 403.457031 L 396.710938 404.675781 L 394.867188 401.089844 L 399.199219 399.875 Z M 403.214844 407.691406 L 398.882812 408.902344 L 397.195312 405.625 L 401.53125 404.414062 Z M 391.175781 395.84375 L 387.03125 397.003906 L 385.058594 393.179688 L 389.210938 392.019531 Z M 393.507812 400.378906 L 389.359375 401.542969 L 387.515625 397.960938 L 391.667969 396.792969 Z M 395.839844 404.917969 L 391.691406 406.078125 L 389.847656 402.492188 L 394 401.328125 Z M 398.015625 409.148438 L 393.863281 410.308594 L 392.179688 407.03125 L 396.328125 405.867188 Z M 386.160156 397.25 L 382.234375 398.347656 L 380.265625 394.523438 L 384.195312 393.421875 Z M 388.492188 401.789062 L 384.566406 402.886719 L 382.722656 399.304688 L 386.648438 398.199219 Z M 390.820312 406.320312 L 386.894531 407.421875 L 385.050781 403.835938 L 388.984375 402.738281 Z M 393 410.550781 L 389.066406 411.652344 L 387.386719 408.375 L 391.3125 407.273438 Z M 381.367188 398.589844 L 377.433594 399.695312 L 375.46875 395.867188 L 379.402344 394.765625 Z M 383.695312 403.128906 L 379.769531 404.230469 L 377.925781 400.648438 L 381.855469 399.546875 Z M 386.027344 407.664062 L 382.097656 408.765625 L 380.257812 405.179688 L 384.1875 404.082031 Z M 388.203125 411.894531 L 384.273438 413 L 382.585938 409.714844 L 386.519531 408.617188 Z M 376.566406 399.933594 L 372.476562 401.085938 L 370.503906 397.257812 L 374.601562 396.109375 Z M 378.902344 404.472656 L 374.804688 405.621094 L 372.960938 402.039062 L 377.058594 400.890625 Z M 381.230469 409.007812 L 377.132812 410.15625 L 375.296875 406.574219 L 379.386719 405.425781 Z M 383.402344 413.238281 L 379.3125 414.390625 L 377.625 411.105469 L 381.71875 409.960938 Z M 371.605469 401.328125 L 367.828125 402.386719 L 365.859375 398.5625 L 369.640625 397.5 Z M 373.9375 405.863281 L 370.15625 406.921875 L 368.316406 403.339844 L 372.09375 402.28125 Z M 376.269531 410.398438 L 372.488281 411.460938 L 370.644531 407.871094 L 374.429688 406.816406 Z M 378.445312 414.628906 L 374.660156 415.691406 L 372.980469 412.414062 L 376.757812 411.347656 Z M 366.960938 402.632812 L 362.457031 403.890625 L 360.492188 400.066406 L 364.996094 398.804688 Z M 369.289062 407.167969 L 364.785156 408.425781 L 362.949219 404.84375 L 367.445312 403.582031 Z M 371.621094 411.699219 L 367.121094 412.964844 L 365.277344 409.378906 L 369.78125 408.117188 Z M 373.796875 415.933594 L 369.292969 417.195312 L 367.609375 413.914062 L 372.109375 412.65625 Z M 359.136719 399.355469 L 354.765625 400.578125 L 352.886719 396.9375 L 357.261719 395.710938 Z M 361.59375 404.136719 L 357.222656 405.363281 L 355.25 401.535156 L 359.621094 400.308594 Z M 363.921875 408.667969 L 359.550781 409.894531 L 357.707031 406.3125 L 362.078125 405.085938 Z M 366.253906 413.207031 L 361.878906 414.429688 L 360.039062 410.84375 L 364.410156 409.625 Z M 368.429688 417.4375 L 364.054688 418.664062 L 362.371094 415.382812 L 366.742188 414.15625 Z M 353.894531 400.824219 L 349.453125 402.066406 L 347.574219 398.425781 L 352.023438 397.179688 Z M 356.351562 405.605469 L 351.90625 406.851562 L 349.9375 403.023438 L 354.382812 401.773438 Z M 358.683594 410.140625 L 354.238281 411.382812 L 352.394531 407.800781 L 356.839844 406.554688 Z M 361.011719 414.671875 L 356.570312 415.917969 L 354.726562 412.335938 L 359.167969 411.089844 Z M 363.183594 418.902344 L 358.742188 420.152344 L 357.054688 416.867188 L 361.503906 415.625 Z M 348.582031 402.3125 L 344.582031 403.433594 L 342.707031 399.789062 L 346.710938 398.667969 Z M 351.035156 407.09375 L 347.039062 408.210938 L 345.066406 404.386719 L 349.070312 403.261719 Z M 353.371094 411.625 L 349.367188 412.746094 L 347.523438 409.164062 L 351.527344 408.042969 Z M 355.699219 416.164062 L 351.695312 417.285156 L 349.859375 413.699219 L 353.859375 412.578125 Z M 357.875 420.390625 L 353.875 421.515625 L 352.1875 418.238281 L 356.1875 417.113281 Z M 343.710938 403.679688 L 340.449219 404.589844 L 338.574219 400.945312 L 341.839844 400.03125 Z M 346.167969 408.457031 L 342.902344 409.375 L 340.9375 405.542969 L 344.203125 404.628906 Z M 348.5 412.988281 L 345.238281 413.90625 L 343.394531 410.324219 L 346.65625 409.40625 Z M 350.832031 417.527344 L 347.566406 418.441406 L 345.722656 414.859375 L 348.992188 413.945312 Z M 353.007812 421.757812 L 349.738281 422.671875 L 348.054688 419.390625 L 351.320312 418.480469 Z M 339.582031 404.832031 L 336.019531 405.832031 L 334.148438 402.1875 L 337.710938 401.191406 Z M 342.039062 409.613281 L 338.476562 410.609375 L 336.511719 406.78125 L 340.070312 405.785156 Z M 344.367188 414.148438 L 340.804688 415.148438 L 338.96875 411.5625 L 342.527344 410.5625 Z M 346.699219 418.683594 L 343.136719 419.683594 L 341.296875 416.097656 L 344.855469 415.101562 Z M 348.871094 422.914062 L 345.3125 423.914062 L 343.628906 420.632812 L 347.191406 419.636719 Z M 335.15625 406.074219 L 331.300781 407.15625 L 329.429688 403.507812 L 333.277344 402.429688 Z M 337.613281 410.851562 L 333.757812 411.933594 L 331.789062 408.109375 L 335.640625 407.027344 Z M 339.941406 415.390625 L 336.082031 416.46875 L 334.246094 412.882812 L 338.097656 411.808594 Z M 342.273438 419.925781 L 338.417969 421.007812 L 336.574219 417.421875 L 340.429688 416.34375 Z M 344.445312 424.15625 L 340.589844 425.238281 L 338.902344 421.957031 L 342.757812 420.875 Z M 330.433594 407.398438 L 326.207031 408.582031 L 324.332031 404.9375 L 328.558594 403.75 Z M 332.890625 412.179688 L 328.660156 413.363281 L 326.695312 409.535156 L 330.921875 408.351562 Z M 335.21875 416.710938 L 330.996094 417.894531 L 329.152344 414.3125 L 333.375 413.128906 Z M 337.546875 421.25 L 333.324219 422.433594 L 331.484375 418.847656 L 335.707031 417.660156 Z M 339.726562 425.480469 L 335.5 426.664062 L 333.8125 423.386719 L 338.039062 422.199219 Z M 325.339844 408.824219 L 321.039062 410.03125 L 319.167969 406.382812 L 323.46875 405.179688 Z M 327.796875 413.605469 L 323.496094 414.808594 L 321.53125 410.980469 L 325.828125 409.777344 Z M 330.128906 418.136719 L 325.828125 419.339844 L 323.984375 415.761719 L 328.285156 414.554688 Z M 332.457031 422.679688 L 328.160156 423.878906 L 326.320312 420.296875 L 330.613281 419.089844 Z M 334.628906 426.90625 L 330.335938 428.109375 L 328.648438 424.832031 L 332.949219 423.628906 Z M 320.175781 410.273438 L 316.070312 411.421875 L 314.554688 408.460938 C 314.359375 408.085938 314.480469 407.699219 314.828125 407.601562 L 318.304688 406.628906 Z M 322.628906 415.050781 L 318.527344 416.199219 L 316.5625 412.371094 L 320.664062 411.226562 Z M 324.964844 419.585938 L 320.859375 420.734375 L 319.019531 417.152344 L 323.121094 416.003906 Z M 327.292969 424.125 L 323.191406 425.273438 L 321.351562 421.691406 L 325.449219 420.535156 Z M 329.464844 428.355469 L 325.992188 429.332031 C 325.644531 429.421875 325.210938 429.195312 325.015625 428.816406 L 323.679688 426.222656 L 327.78125 425.074219 Z M 434.117188 373.089844 L 314.335938 406.652344 C 313.511719 406.878906 313.222656 407.804688 313.6875 408.703125 L 324.144531 429.0625 C 324.613281 429.964844 325.65625 430.507812 326.480469 430.28125 L 446.257812 396.71875 C 447.082031 396.488281 447.371094 395.5625 446.910156 394.660156 L 436.449219 374.304688 C 435.988281 373.402344 434.941406 372.855469 434.117188 373.089844 Z M 449.25 401.148438 C 449.554688 401.738281 449.363281 402.339844 448.824219 402.492188 L 442.796875 404.179688 L 441.121094 400.917969 L 447.148438 399.230469 C 447.6875 399.078125 448.367188 399.4375 448.671875 400.023438 Z M 441.929688 404.421875 L 437.683594 405.613281 L 436.011719 402.351562 L 440.257812 401.160156 Z M 436.820312 405.855469 L 432.371094 407.101562 L 430.699219 403.839844 L 435.144531 402.59375 Z M 431.503906 407.34375 L 427.414062 408.492188 L 425.734375 405.230469 L 429.832031 404.082031 Z M 426.542969 408.734375 L 422.652344 409.828125 L 420.976562 406.5625 L 424.871094 405.472656 Z M 421.785156 410.070312 L 417.949219 411.144531 L 416.273438 407.886719 L 420.109375 406.808594 Z M 417.082031 411.386719 L 412.691406 412.617188 L 411.015625 409.355469 L 415.402344 408.125 Z M 411.824219 412.859375 L 407.492188 414.074219 L 405.8125 410.808594 L 410.144531 409.597656 Z M 406.621094 414.316406 L 402.289062 415.53125 L 400.609375 412.273438 L 404.945312 411.054688 Z M 401.421875 415.773438 L 397.269531 416.9375 L 395.59375 413.675781 L 399.742188 412.515625 Z M 396.398438 417.179688 L 392.472656 418.28125 L 390.800781 415.019531 L 394.726562 413.917969 Z M 391.609375 418.523438 L 387.679688 419.625 L 386 416.363281 L 389.933594 415.261719 Z M 386.808594 419.867188 L 382.714844 421.015625 L 381.039062 417.753906 L 385.136719 416.605469 Z M 381.847656 421.257812 L 378.066406 422.316406 L 376.390625 419.058594 L 380.171875 417.996094 Z M 377.199219 422.558594 L 372.699219 423.824219 L 371.023438 420.5625 L 375.523438 419.296875 Z M 371.832031 424.0625 L 367.460938 425.289062 L 365.78125 422.027344 L 370.15625 420.804688 Z M 366.589844 425.53125 L 362.148438 426.777344 L 360.472656 423.515625 L 364.917969 422.269531 Z M 361.277344 427.019531 L 357.277344 428.144531 L 355.601562 424.882812 L 359.605469 423.761719 Z M 356.410156 428.382812 L 353.144531 429.300781 L 351.46875 426.039062 L 354.734375 425.125 Z M 352.277344 429.542969 L 348.71875 430.542969 L 347.042969 427.28125 L 350.605469 426.28125 Z M 347.851562 430.785156 L 343.996094 431.867188 L 342.320312 428.605469 L 346.175781 427.523438 Z M 343.128906 432.105469 L 338.902344 433.289062 L 337.230469 430.03125 L 341.453125 428.847656 Z M 338.035156 433.535156 L 333.742188 434.734375 L 332.0625 431.476562 L 336.363281 430.277344 Z M 332.871094 434.980469 L 329.746094 435.855469 C 329.207031 436.007812 328.527344 435.652344 328.222656 435.0625 L 327.644531 433.9375 C 327.34375 433.347656 327.535156 432.746094 328.070312 432.59375 L 331.195312 431.722656 Z M 446.660156 398.277344 L 327.582031 431.644531 C 326.566406 431.929688 326.203125 433.070312 326.777344 434.179688 L 327.355469 435.304688 C 327.929688 436.417969 329.214844 437.09375 330.234375 436.808594 L 449.3125 403.441406 C 450.328125 403.15625 450.691406 402.015625 450.117188 400.90625 L 449.542969 399.78125 C 448.964844 398.667969 447.679688 397.992188 446.660156 398.277344 Z M 453.027344 401.019531 C 453.8125 402.542969 453.320312 404.097656 451.933594 404.484375 L 329.210938 438.875 C 327.824219 439.261719 326.058594 438.339844 325.28125 436.816406 L 310.261719 407.589844 C 309.476562 406.070312 309.96875 404.515625 311.355469 404.128906 L 434.082031 369.738281 C 435.464844 369.351562 437.230469 370.273438 438.011719 371.796875 Z M 433.589844 368.785156 L 310.867188 403.175781 C 309 403.695312 308.339844 405.785156 309.390625 407.835938 L 324.414062 437.0625 C 325.464844 439.105469 327.835938 440.34375 329.699219 439.824219 L 452.425781 405.4375 C 454.285156 404.914062 454.953125 402.828125 453.894531 400.777344 L 438.878906 371.550781 C 437.828125 369.503906 435.453125 368.265625 433.589844 368.785156 " fill-opacity="1" fill-rule="nonzero"/></g><path fill="#edaa98" d="M 265.664062 457.398438 C 273.117188 476.378906 269.699219 466.871094 281.605469 478.921875 C 293.511719 490.976562 304.171875 494.253906 306.25 494.253906 C 308.328125 494.253906 305.230469 489.914062 305.230469 489.914062 C 305.230469 489.914062 309.570312 497.027344 312.894531 497.027344 C 316.214844 497.027344 314.554688 492.734375 314.554688 492.734375 C 314.554688 492.734375 314.554688 493.980469 318.015625 493.699219 C 321.476562 493.425781 314.695312 476.933594 314.28125 474.582031 C 313.863281 472.226562 309.214844 464.644531 309.214844 464.644531 L 316.214844 466.453125 C 316.214844 466.453125 323.875 485.757812 326.457031 484.277344 C 329.046875 482.804688 326.921875 462.941406 321.753906 458.691406 C 316.585938 454.441406 286.867188 444.097656 286.867188 444.097656 C 286.867188 444.097656 258.210938 438.417969 265.664062 457.398438 Z M 330.414062 230.59375 C 329.527344 230.042969 328.484375 229.730469 327.378906 229.730469 C 324.191406 229.730469 321.566406 232.339844 321.566406 235.546875 L 321.566406 241.375 C 321.566406 244.292969 323.742188 246.722656 326.542969 247.125 L 327.121094 280.535156 C 302.644531 301.4375 285.105469 280.140625 285.105469 280.140625 L 292.515625 276.011719 L 292.050781 265.816406 C 281.128906 269.085938 274.578125 267.742188 266.941406 251.195312 C 259.308594 234.65625 265.847656 228.882812 265.847656 228.882812 C 265.847656 228.882812 260.859375 204.222656 283.621094 197.050781 C 289.609375 195.15625 294.835938 195.625 299.300781 197.320312 C 303.109375 194.433594 312.738281 189.363281 312.738281 189.363281 C 312.738281 189.363281 304.5625 195.136719 300.308594 197.710938 C 312.207031 202.8125 318.390625 216.550781 318.390625 216.550781 C 318.390625 216.550781 323.539062 207.660156 332.269531 214.207031 C 337.777344 218.339844 333.972656 225.722656 330.414062 230.59375 " fill-opacity="1" fill-rule="nonzero"/><path fill="#100f0d" d="M 309.570312 464.234375 L 307.621094 462.53125 L 306.910156 463.351562 L 308.859375 465.050781 Z M 306.507812 490.855469 L 295.148438 475.277344 L 294.273438 475.917969 L 305.628906 491.496094 Z M 314.046875 492.921875 C 314 492.796875 309.242188 480.21875 308.066406 477.769531 C 306.914062 475.367188 300.636719 467.890625 300.570312 467.820312 L 301.402344 467.117188 C 301.664062 467.429688 307.832031 474.773438 309.042969 477.300781 C 310.238281 479.789062 314.867188 492.019531 315.0625 492.542969 L 314.046875 492.921875 " fill-opacity="1" fill-rule="nonzero"/><path fill="#3e5bb2" d="M 336.339844 274.988281 C 336.621094 277.597656 338.933594 302.363281 328.007812 312.203125 C 325.113281 314.8125 321.53125 316.121094 317.320312 316.121094 C 315.628906 316.121094 313.835938 315.910156 311.945312 315.484375 C 284.359375 309.308594 283.820312 283.820312 283.855469 280.8125 C 278.902344 283.304688 241.632812 302.152344 240.074219 305.261719 C 238.410156 308.582031 216.535156 406.679688 218.199219 409.734375 C 218.640625 410.554688 222.277344 414.367188 227.339844 419.511719 C 227.621094 419.804688 227.914062 420.101562 228.21875 420.402344 C 242.164062 434.5 265.664062 457.402344 265.664062 457.402344 L 286.863281 444.09375 L 261.074219 411.878906 L 260.339844 410.957031 L 247.824219 395.316406 L 263.242188 357.632812 L 287.070312 404.023438 L 372.695312 381.8125 L 372.695312 283.367188 Z M 292.515625 276.011719 L 292.265625 272.277344 L 326.71875 257.035156 L 326.988281 272.828125 L 335.339844 274.757812 C 335.570312 277.207031 337.621094 302.085938 327.285156 311.394531 C 323.496094 314.804688 318.414062 315.824219 312.183594 314.425781 C 285.417969 308.429688 285.058594 283.070312 285.105469 280.140625 L 292.515625 276.011719 " fill-opacity="1" fill-rule="nonzero"/><path fill="#ffffff" d="M 285.945312 250 C 276.070312 253.511719 273.667969 247.140625 273.667969 247.140625 C 280.960938 247.695312 301.082031 232.453125 301.082031 232.453125 C 301.082031 232.453125 295.820312 246.488281 285.945312 250 " fill-opacity="1" fill-rule="nonzero"/><path fill="#100f0d" d="M 305.300781 492.570312 C 305.292969 492.558594 305.296875 492.492188 305.269531 492.359375 C 304.996094 491.035156 304.066406 489.257812 302.890625 488.5625 C 302.601562 488.394531 302.324219 488.3125 302.0625 488.3125 C 301.941406 488.3125 301.820312 488.328125 301.703125 488.363281 L 301.699219 488.367188 C 301.351562 488.472656 300.597656 488.824219 300.476562 489.242188 C 300.417969 489.453125 300.527344 489.710938 300.796875 490.019531 C 302.089844 491.476562 304.757812 492.800781 305.300781 492.570312 Z M 306.328125 492.140625 C 306.523438 493.0625 306.023438 493.425781 305.800781 493.535156 C 305.625 493.625 305.414062 493.660156 305.179688 493.660156 C 303.640625 493.660156 301.023438 491.914062 299.984375 490.734375 C 299.324219 489.984375 299.316406 489.347656 299.433594 488.941406 C 299.746094 487.851562 301.199219 487.382812 301.382812 487.328125 C 302.046875 487.125 302.757812 487.226562 303.441406 487.628906 C 304.902344 488.488281 306 490.546875 306.328125 492.140625 Z M 313.242188 492.023438 L 313.242188 492.027344 C 313.242188 492.027344 312.652344 490.585938 311.421875 489.59375 C 310.898438 489.21875 310.03125 488.78125 309.460938 488.78125 C 309.332031 488.78125 309.222656 488.800781 309.128906 488.855469 C 308.828125 489.023438 308.695312 489.601562 308.765625 490.476562 C 308.894531 492.261719 310.574219 494.082031 312.054688 494.664062 C 312.625 494.886719 313.082031 494.890625 313.308594 494.679688 C 313.445312 494.550781 313.847656 493.980469 313.242188 492.023438 Z M 314.261719 491.667969 C 314.84375 493.535156 314.765625 494.800781 314.046875 495.472656 C 313.730469 495.769531 313.3125 495.917969 312.832031 495.917969 C 312.476562 495.917969 312.082031 495.835938 311.664062 495.675781 C 309.839844 494.957031 307.855469 492.851562 307.679688 490.558594 C 307.578125 489.195312 307.886719 488.300781 308.605469 487.902344 C 309.894531 487.183594 311.851562 488.566406 312.074219 488.726562 L 312.089844 488.738281 C 313.574219 489.925781 314.238281 491.597656 314.261719 491.667969 Z M 316.902344 491.648438 C 316.148438 491.183594 315.617188 490.316406 315.328125 489.074219 C 315.015625 487.753906 315.078125 486.789062 315.507812 486.28125 C 315.894531 485.820312 316.496094 485.863281 316.519531 485.859375 L 316.5625 485.320312 L 316.609375 484.777344 C 316.5625 484.769531 315.453125 484.6875 314.695312 485.5625 C 314.011719 486.351562 313.867188 487.621094 314.273438 489.324219 C 314.632812 490.867188 315.335938 491.964844 316.351562 492.582031 C 317.0625 493.015625 317.789062 493.117188 318.3125 493.117188 C 318.757812 493.117188 319.058594 493.046875 319.082031 493.039062 L 318.820312 491.988281 C 318.8125 491.988281 317.820312 492.214844 316.902344 491.648438 Z M 325.09375 478.175781 C 324.671875 475.222656 327.042969 474.773438 327.320312 474.730469 L 327.238281 474.191406 L 327.160156 473.652344 C 327.097656 473.667969 325.621094 473.886719 324.6875 475.132812 C 324.0625 475.96875 323.835938 477.046875 324.019531 478.332031 C 324.589844 482.269531 327.035156 482.785156 327.136719 482.804688 L 327.347656 481.738281 C 327.277344 481.722656 325.546875 481.304688 325.09375 478.175781 Z M 258.617188 443.691406 L 269.507812 454.277344 L 270.261719 453.496094 L 259.371094 442.910156 Z M 262.859375 438.199219 L 275.863281 451.144531 L 276.628906 450.375 L 263.621094 437.429688 Z M 269.5 434.183594 L 282.222656 447.148438 L 282.992188 446.386719 L 270.273438 433.425781 Z M 296.304688 282.902344 L 297.390625 282.902344 L 297.390625 270.25 L 296.304688 270.25 Z M 305.824219 283.363281 L 305.824219 266.519531 L 304.742188 266.519531 L 304.742188 283.363281 Z M 312.902344 288.152344 L 313.988281 288.152344 L 313.988281 262.90625 L 312.902344 262.90625 Z M 319.859375 279.296875 L 320.941406 279.296875 L 320.941406 259.828125 L 319.859375 259.828125 Z M 279.535156 341.992188 L 264.925781 355.351562 L 273.503906 337.359375 L 272.523438 336.894531 L 261.554688 359.910156 L 280.265625 342.792969 Z M 326.449219 272.84375 L 326.609375 278.804688 L 327.695312 278.777344 L 327.535156 272.816406 Z M 267.933594 210.425781 L 267.183594 212.28125 L 271.457031 209 C 271.457031 209 269.136719 208.914062 267.933594 210.425781 Z M 272.953125 223.65625 C 271.5 224.515625 269.597656 225.828125 269.230469 227.011719 C 269.105469 227.402344 269.140625 227.785156 269.320312 228.109375 C 270.261719 229.8125 274.300781 234.214844 274.46875 234.402344 L 275.269531 233.667969 C 275.226562 233.625 271.148438 229.171875 270.265625 227.585938 C 270.25 227.554688 270.214844 227.492188 270.261719 227.335938 C 270.59375 226.273438 273.410156 224.554688 275.109375 223.714844 L 274.628906 222.742188 C 274.460938 222.828125 273.824219 223.144531 273.050781 223.597656 C 272.1875 223.121094 267.773438 220.785156 265.410156 222.03125 L 261.855469 220.953125 L 265.664062 224.800781 C 265.664062 224.800781 269.253906 223.128906 272.953125 223.65625 Z M 294.066406 201.703125 C 284.558594 199.765625 279.898438 205.953125 279.898438 205.953125 C 284.007812 203.460938 303.570312 203.644531 294.066406 201.703125 Z M 284.835938 220.550781 C 288.808594 216.855469 299.144531 215.191406 299.144531 215.191406 L 299.976562 210.019531 L 296.09375 212.605469 C 288.160156 214.082031 284.835938 220.550781 284.835938 220.550781 Z M 321.050781 223.53125 L 322.085938 223.847656 C 323.777344 218.265625 329.402344 218.757812 329.636719 218.777344 L 329.746094 217.703125 C 329.683594 217.691406 323.003906 217.082031 321.050781 223.53125 Z M 313.09375 250.644531 C 312.953125 250.769531 298.890625 262.835938 291.867188 265.300781 L 292.222656 266.324219 C 299.445312 263.792969 313.214844 251.96875 313.800781 251.46875 Z M 299.789062 234.082031 C 295.046875 237.539062 281.277344 247.1875 274.570312 247.671875 C 275.53125 249.144531 278.484375 252.078125 285.761719 249.488281 C 293.183594 246.851562 298 237.949219 299.789062 234.082031 Z M 286.128906 250.515625 C 283.949219 251.285156 282.117188 251.589844 280.574219 251.589844 C 274.851562 251.589844 273.183594 247.386719 273.164062 247.328125 L 272.863281 246.53125 L 273.710938 246.597656 C 273.835938 246.605469 273.960938 246.609375 274.089844 246.609375 C 281.402344 246.609375 300.558594 232.167969 300.753906 232.019531 L 301.554688 231.414062 C 300.027344 230.6875 298.898438 229.835938 298.8125 229.769531 L 299.472656 228.90625 C 299.503906 228.933594 303.015625 231.589844 305.832031 231.335938 L 305.929688 232.417969 C 305.769531 232.433594 305.609375 232.4375 305.449219 232.4375 C 304.265625 232.4375 303.046875 232.070312 301.976562 231.605469 L 301.589844 232.644531 C 301.367188 233.222656 296.125 246.960938 286.128906 250.515625 Z M 282.199219 231.140625 L 277.308594 229.753906 L 277.601562 228.710938 L 282.492188 230.097656 L 282.199219 231.140625 " fill-opacity="1" fill-rule="nonzero"/><path fill="#ffffff" d="M 506.523438 371.101562 L 379.800781 406.511719 C 374.535156 407.980469 369.324219 403.996094 369.367188 398.523438 L 370.175781 287.085938 C 370.199219 283.253906 372.867188 279.945312 376.609375 279.113281 L 509.21875 249.558594 C 514.566406 248.371094 519.558594 252.648438 519.210938 258.117188 L 512.523438 363.691406 C 512.300781 367.1875 509.898438 370.160156 506.523438 371.101562 " fill-opacity="1" fill-rule="nonzero"/><path fill="#100f0d" d="M 468.921875 336.378906 C 468.640625 336.378906 468.359375 336.410156 468.074219 336.472656 L 434.898438 343.933594 C 433.140625 344.328125 431.910156 345.863281 431.910156 347.667969 L 431.910156 375.066406 C 431.910156 376.269531 432.457031 377.371094 433.402344 378.105469 C 434.351562 378.832031 435.5625 379.074219 436.71875 378.769531 L 469.125 370.167969 C 470.75 369.734375 471.921875 368.257812 471.96875 366.574219 L 472.734375 340.324219 C 472.769531 339.132812 472.265625 338.011719 471.34375 337.253906 C 470.648438 336.679688 469.796875 336.378906 468.921875 336.378906 Z M 435.722656 379.988281 C 434.660156 379.988281 433.617188 379.632812 432.742188 378.964844 C 431.527344 378.023438 430.828125 376.605469 430.828125 375.066406 L 430.828125 347.667969 C 430.828125 345.351562 432.402344 343.378906 434.660156 342.875 L 467.835938 335.414062 C 469.324219 335.082031 470.859375 335.441406 472.035156 336.417969 C 473.214844 337.386719 473.867188 338.824219 473.820312 340.351562 L 473.050781 366.605469 C 472.988281 368.769531 471.488281 370.664062 469.40625 371.214844 L 437 379.816406 C 436.574219 379.929688 436.148438 379.988281 435.722656 379.988281 " fill-opacity="1" fill-rule="nonzero"/><path fill="#ffffff" d="M 497.273438 421.304688 L 431.195312 446.105469 C 429.667969 446.679688 427.960938 446.574219 426.515625 445.804688 L 406.976562 435.488281 C 402.484375 433.117188 403.078125 426.492188 407.917969 424.953125 L 478.304688 402.597656 C 479.753906 402.140625 481.320312 402.269531 482.667969 402.964844 L 497.890625 410.847656 C 502.300781 413.128906 501.921875 419.5625 497.273438 421.304688 " fill-opacity="1" fill-rule="nonzero"/><g clip-path="url(#3d8fd845c2)"><path fill="#100f0d" d="M 377.578125 402.261719 C 377.574219 401.191406 377.304688 294.578125 377.578125 290.210938 C 377.816406 286.40625 380.421875 284.9375 380.816406 284.734375 L 512.828125 254.957031 L 512.585938 253.902344 L 380.519531 283.691406 L 380.410156 283.726562 C 380.265625 283.792969 376.789062 285.4375 376.496094 290.144531 C 376.21875 294.542969 376.480469 397.871094 376.496094 402.265625 Z M 511.027344 249.902344 C 510.46875 249.902344 509.902344 249.96875 509.332031 250.09375 L 376.726562 279.640625 C 373.210938 280.425781 370.738281 283.488281 370.71875 287.089844 L 369.90625 398.527344 C 369.886719 400.964844 370.988281 403.207031 372.917969 404.691406 C 374.855469 406.171875 377.308594 406.636719 379.652344 405.988281 L 506.382812 370.578125 C 509.523438 369.695312 511.773438 366.917969 511.980469 363.660156 L 518.671875 258.082031 C 518.828125 255.648438 517.851562 253.34375 515.996094 251.75 C 514.585938 250.542969 512.835938 249.902344 511.027344 249.902344 Z M 377.5625 407.363281 C 375.667969 407.363281 373.816406 406.746094 372.261719 405.554688 C 370.054688 403.867188 368.800781 401.300781 368.824219 398.519531 L 369.632812 287.082031 C 369.65625 282.972656 372.484375 279.476562 376.492188 278.582031 L 509.101562 249.03125 C 511.8125 248.429688 514.585938 249.117188 516.703125 250.929688 C 518.820312 252.738281 519.933594 255.371094 519.753906 258.152344 L 513.066406 363.726562 C 512.828125 367.449219 510.261719 370.621094 506.671875 371.621094 L 379.949219 407.03125 C 379.15625 407.253906 378.355469 407.363281 377.5625 407.363281 " fill-opacity="1" fill-rule="nonzero"/></g><path fill="#100f0d" d="M 430.21875 441.796875 L 407.558594 429.625 L 407.046875 430.585938 L 429.703125 442.753906 Z M 479.722656 402.878906 C 479.304688 402.90625 478.878906 402.984375 478.46875 403.113281 L 408.082031 425.476562 C 406.054688 426.117188 404.671875 427.835938 404.488281 429.957031 C 404.296875 432.078125 405.347656 434.015625 407.230469 435.007812 L 426.765625 445.328125 C 428.074219 446.019531 429.625 446.121094 431.003906 445.597656 L 497.082031 420.796875 C 499.03125 420.066406 500.316406 418.324219 500.4375 416.246094 C 500.5625 414.171875 499.492188 412.285156 497.648438 411.332031 L 482.417969 403.449219 C 481.574219 403.011719 480.648438 402.824219 479.722656 402.878906 Z M 429.582031 447 C 428.441406 447.070312 427.289062 446.832031 426.261719 446.289062 L 406.722656 435.96875 C 404.449219 434.765625 403.179688 432.425781 403.40625 429.859375 C 403.636719 427.296875 405.300781 425.21875 407.753906 424.4375 L 478.140625 402.082031 C 479.738281 401.574219 481.429688 401.714844 482.917969 402.488281 L 498.140625 410.363281 C 500.375 411.523438 501.671875 413.800781 501.523438 416.308594 C 501.375 418.824219 499.820312 420.929688 497.464844 421.8125 L 431.386719 446.617188 C 430.800781 446.832031 430.191406 446.964844 429.582031 447 " fill-opacity="1" fill-rule="nonzero"/><path fill="#ffffff" d="M 462.785156 354.835938 L 467.097656 364.078125 C 467.320312 364.566406 467.433594 365.097656 467.433594 365.628906 L 467.433594 413.863281 C 467.433594 415.445312 466.425781 416.84375 464.929688 417.34375 L 450.355469 422.207031 C 447.941406 423.011719 445.457031 421.167969 445.535156 418.621094 L 446.9375 370.457031 C 446.953125 369.933594 446.855469 369.414062 446.652344 368.933594 L 443.300781 360.929688 C 442.429688 358.847656 443.625 356.480469 445.8125 355.945312 L 458.597656 352.820312 C 460.292969 352.40625 462.046875 353.25 462.785156 354.835938 " fill-opacity="1" fill-rule="nonzero"/><path fill="#100f0d" d="M 458.726562 353.347656 L 445.941406 356.472656 C 445.050781 356.6875 444.304688 357.28125 443.890625 358.101562 C 443.480469 358.917969 443.445312 359.871094 443.800781 360.714844 L 447.152344 368.722656 C 447.386719 369.277344 447.496094 369.867188 447.480469 370.472656 L 446.078125 418.636719 C 446.046875 419.671875 446.503906 420.617188 447.335938 421.234375 C 448.164062 421.855469 449.207031 422.015625 450.1875 421.691406 L 464.761719 416.828125 C 466.035156 416.402344 466.894531 415.210938 466.894531 413.863281 L 466.894531 365.628906 C 466.894531 365.167969 466.796875 364.722656 466.605469 364.308594 L 462.292969 355.066406 C 461.667969 353.714844 460.171875 352.996094 458.726562 353.347656 Z M 449.183594 422.945312 C 448.296875 422.945312 447.429688 422.65625 446.6875 422.105469 C 445.570312 421.273438 444.949219 420 444.992188 418.601562 L 446.394531 370.441406 C 446.40625 369.992188 446.328125 369.554688 446.152344 369.140625 L 442.800781 361.136719 C 442.324219 360 442.371094 358.714844 442.925781 357.613281 C 443.480469 356.511719 444.484375 355.710938 445.683594 355.421875 L 458.46875 352.296875 C 460.402344 351.824219 462.433594 352.792969 463.273438 354.605469 L 467.582031 363.851562 C 467.847656 364.410156 467.976562 365.011719 467.976562 365.628906 L 467.976562 413.863281 C 467.976562 415.675781 466.824219 417.285156 465.105469 417.855469 L 450.527344 422.722656 C 450.085938 422.867188 449.628906 422.945312 449.183594 422.945312 " fill-opacity="1" fill-rule="nonzero"/></svg>